<?xml version="1.0" encoding="UTF-8"?>
<svg id="Layer_2" data-name="Layer 2" xmlns="http://www.w3.org/2000/svg" viewBox="0 0 183.88 42" width="184" height="42">
  <defs>
    <style>
      .cls-1 {
        fill: #008dac;
      }

      .cls-1, .cls-2 {
        stroke-width: 0px;
      }

      .cls-2 {
        fill: #fff;
      }
    </style>
  </defs>
  <g>
    <path class="cls-1" d="M21,40.5C10.25,40.5,1.5,31.75,1.5,21S10.25,1.5,21,1.5h141.88c10.75,0,19.5,8.75,19.5,19.5s-8.75,19.5-19.5,19.5H21Z"/>
    <path class="cls-2" d="M162.88,3c9.93,0,18,8.07,18,18s-8.07,18-18,18H21c-9.93,0-18-8.07-18-18S11.07,3,21,3h141.88M162.88,0H21C9.4,0,0,9.4,0,21h0c0,11.6,9.4,21,21,21h141.88c11.6,0,21-9.4,21-21h0c0-11.6-9.4-21-21-21h0Z"/>
  </g>
  <g>
    <path class="cls-2" d="M32.48,17.69c.25,0,.46.09.64.26s.26.38.26.63v6.27l1.68,2.85c.07.13.11.23.11.29,0,.19-.11.32-.32.39-.12.04-.31.05-.57.05h-15.22c-.25,0-.44-.02-.57-.05-.21-.07-.32-.2-.32-.39,0-.06.04-.16.12-.29l.11-.16,1.56-2.69v-6.27c0-.25.09-.46.26-.63.17-.17.38-.26.63-.26h11.64ZM33.37,16.79h-13.43l6.71-4.47,6.71,4.47ZM22,19.74c-.17.17-.26.38-.26.63v5.37h1.79v-5.37c-.05-.26-.15-.48-.3-.64-.16-.17-.35-.25-.59-.25s-.46.09-.63.26ZM26.02,19.74c-.17.17-.26.38-.26.63v5.37h1.79v-5.37c0-.25-.09-.46-.26-.63s-.38-.26-.63-.26-.46.09-.64.26ZM30.05,19.74c-.17.17-.26.38-.26.63v5.37h1.79v-5.37c0-.25-.09-.46-.26-.63-.17-.17-.38-.26-.64-.26s-.46.09-.64.26Z"/>
    <path class="cls-2" d="M51.32,22.35h-2.95c-.18,0-.32.04-.41.12-.09.08-.16.23-.22.44h-.28v-2.78h.28c.06.22.13.36.22.44s.23.12.41.12h5.66v.28c-.21.06-.35.13-.44.23-.08.09-.12.23-.12.41v2.45c0,.18.04.32.12.41.08.09.23.17.44.23v.22c-2.27,1.29-4.46,1.94-6.59,1.94-1.93,0-3.5-.46-4.72-1.37-1.53-1.15-2.3-2.76-2.3-4.81,0-1.91.68-3.43,2.04-4.56,1.29-1.07,3.01-1.61,5.16-1.61.68,0,1.32.06,1.93.19.6.13,1.29.34,2.06.63.4.16.68.24.85.24.12,0,.27-.07.43-.2l.25.13-1.4,2.86-.25-.13c0-.19-.03-.33-.08-.41-.05-.08-.15-.19-.31-.31-.36-.27-.88-.49-1.56-.68-.69-.19-1.34-.28-1.95-.28-1.25,0-2.28.35-3.1,1.05-.93.79-1.39,1.84-1.39,3.13s.45,2.27,1.35,3.05c.83.71,1.92,1.07,3.27,1.07.66,0,1.31-.08,1.95-.23.64-.15,1.19-.36,1.66-.62v-1.63Z"/>
    <path class="cls-2" d="M61.36,16.64c1.56,0,2.85.4,3.89,1.19,1.24.96,1.86,2.29,1.86,3.99,0,1.6-.62,2.88-1.86,3.84-1.03.79-2.32,1.19-3.88,1.19s-2.85-.4-3.88-1.19c-1.25-.96-1.87-2.26-1.87-3.92s.62-2.98,1.87-3.92c1.03-.78,2.32-1.17,3.86-1.19ZM61.37,18.49c-1.01,0-1.83.32-2.47.97-.59.61-.88,1.37-.88,2.28s.29,1.67.88,2.27c.64.65,1.46.98,2.48.98s1.83-.33,2.47-.98c.59-.6.88-1.34.88-2.23,0-.96-.29-1.74-.88-2.33-.64-.64-1.47-.96-2.48-.97Z"/>
    <path class="cls-2" d="M73.02,23.54l2.38-5.18c.14-.3.21-.52.21-.66,0-.29-.19-.49-.57-.6v-.24h3.79v.24c-.23.08-.4.17-.51.28-.1.11-.24.34-.4.68l-3.43,7.21c-.12.26-.18.45-.18.58,0,.29.19.48.58.55v.24h-3.84v-.24c.38-.08.57-.26.57-.55,0-.13-.06-.33-.18-.58l-3.43-7.21c-.16-.35-.3-.58-.4-.69-.1-.11-.27-.2-.51-.28v-.24h3.92v.24c-.37.12-.56.32-.56.6,0,.13.07.35.22.66l2.36,5.18Z"/>
    <path class="cls-2" d="M82.73,22.48v2.39h6.21c.18,0,.32-.04.42-.12.1-.08.17-.23.23-.44h.25v2.89h-.25c-.05-.2-.13-.35-.23-.43-.1-.08-.24-.13-.42-.13h-9.12v-.25c.2-.05.35-.13.43-.23.08-.1.13-.24.13-.42v-8.01c0-.18-.04-.32-.12-.41-.08-.09-.23-.17-.44-.24v-.24h8.85c.19,0,.33-.04.42-.12.1-.08.17-.23.23-.44h.24v2.89h-.24c-.06-.21-.14-.36-.23-.44-.1-.08-.24-.12-.42-.12h-5.94v2.15h3.69c.18,0,.32-.04.42-.12.1-.08.18-.23.24-.44h.24v2.82h-.24c-.06-.21-.14-.35-.23-.43-.1-.08-.24-.12-.42-.12h-3.69Z"/>
    <path class="cls-2" d="M94.21,22.62v3.12c0,.18.04.32.12.41.08.1.23.18.44.24v.25h-3.46v-.25c.2-.05.35-.13.43-.23.08-.1.13-.24.13-.42v-8.01c0-.18-.04-.32-.12-.41-.08-.09-.23-.17-.44-.24v-.24h6.42c.83,0,1.47.04,1.91.13.44.08.83.24,1.17.46.71.46,1.06,1.21,1.06,2.25,0,.79-.22,1.41-.65,1.86-.43.45-1.13.77-2.1.97l1.85,2.58c.34.48.61.8.81.97.2.17.43.28.69.33v.25h-4.12v-.25c.3-.08.46-.21.46-.39,0-.13-.09-.32-.28-.58l-1.96-2.8h-2.34ZM94.21,20.84h3.53c.54,0,.93-.06,1.19-.17.36-.16.54-.47.54-.94,0-.41-.13-.7-.38-.87-.25-.16-.7-.25-1.35-.25h-3.53v2.22Z"/>
    <path class="cls-2" d="M106.33,20.19v5.55c0,.18.04.32.13.42.08.1.23.18.43.24v.25h-3.25v-.25c.2-.05.35-.13.43-.23.08-.1.13-.24.13-.42v-8.01c0-.18-.04-.32-.12-.41-.08-.09-.23-.17-.44-.24v-.24h3.76v.24c-.26.06-.38.18-.38.34,0,.14.09.3.28.49l5.25,5.21v-5.39c0-.18-.04-.32-.12-.42-.08-.1-.23-.17-.44-.23v-.24h3.25v.24c-.21.06-.36.14-.44.23-.08.1-.12.23-.12.42v8c0,.18.04.32.12.42.08.1.23.18.44.24v.25h-3.51v-.25c.26-.05.38-.16.38-.32,0-.08-.04-.17-.11-.25-.07-.09-.23-.26-.48-.51l-5.2-5.12Z"/>
    <path class="cls-2" d="M123.21,26.64l-3.57-6.44v5.54c0,.18.04.32.12.42.08.1.23.18.44.24v.25h-3.25v-.25c.2-.05.35-.13.43-.23.08-.1.13-.24.13-.42v-8.01c0-.18-.04-.32-.12-.42-.08-.1-.23-.17-.44-.23v-.24h4.14v.24c-.27.09-.41.25-.41.5s.1.53.3.87l2.44,4.43,2.46-4.37c.28-.46.42-.79.42-.98,0-.24-.14-.39-.43-.46v-.24h4.03v.24c-.21.06-.36.14-.44.23-.08.1-.12.23-.12.42v8c0,.18.04.32.12.42.08.1.23.18.44.24v.25h-3.46v-.25c.2-.05.35-.13.43-.23.08-.1.13-.24.13-.42v-5.55l-3.78,6.44Z"/>
    <path class="cls-2" d="M134.51,22.48v2.39h6.21c.18,0,.32-.04.42-.12.1-.08.17-.23.23-.44h.25v2.89h-.25c-.05-.2-.13-.35-.23-.43-.1-.08-.24-.13-.42-.13h-9.12v-.25c.2-.05.35-.13.43-.23.08-.1.13-.24.13-.42v-8.01c0-.18-.04-.32-.12-.41-.08-.09-.23-.17-.44-.24v-.24h8.85c.19,0,.33-.04.42-.12.1-.08.17-.23.23-.44h.24v2.89h-.24c-.06-.21-.13-.36-.23-.44-.1-.08-.24-.12-.42-.12h-5.94v2.15h3.69c.18,0,.32-.04.42-.12.1-.08.18-.23.24-.44h.24v2.82h-.24c-.06-.21-.13-.35-.23-.43-.1-.08-.24-.12-.42-.12h-3.69Z"/>
    <path class="cls-2" d="M145.78,20.19v5.55c0,.18.04.32.13.42.08.1.23.18.43.24v.25h-3.25v-.25c.2-.05.35-.13.43-.23.08-.1.13-.24.13-.42v-8.01c0-.18-.04-.32-.12-.41-.08-.09-.23-.17-.44-.24v-.24h3.76v.24c-.26.06-.38.18-.38.34,0,.14.09.3.28.49l5.25,5.21v-5.39c0-.18-.04-.32-.12-.42-.08-.1-.23-.17-.44-.23v-.24h3.25v.24c-.21.06-.36.14-.44.23-.08.1-.12.23-.12.42v8c0,.18.04.32.12.42.08.1.23.18.44.24v.25h-3.51v-.25c.26-.05.38-.16.38-.32,0-.08-.04-.17-.11-.25-.07-.09-.23-.26-.48-.51l-5.2-5.12Z"/>
    <path class="cls-2" d="M161.8,18.62v7.12c0,.18.04.32.12.42.08.1.23.18.44.24v.25h-3.46v-.25c.2-.05.35-.13.43-.23.08-.1.13-.24.13-.42v-7.12h-2.88c-.19,0-.33.04-.42.12-.1.08-.17.23-.23.43h-.24v-2.89h.24c.05.2.13.35.22.43.1.08.24.13.42.13h8.12c.19,0,.33-.04.42-.12.1-.08.17-.23.23-.44h.24v2.89h-.24c-.06-.21-.14-.35-.23-.43-.1-.08-.24-.12-.42-.12h-2.88Z"/>
  </g>
</svg>