<?xml version="1.0" encoding="UTF-8"?>
<svg id="Layer_2" data-name="Layer 2" xmlns="http://www.w3.org/2000/svg" viewBox="0 0 183.88 42" width="184" height="42">
  <defs>
    <style>
      .cls-1 {
        fill: #fff;
      }

      .cls-1, .cls-2 {
        stroke-width: 0px;
      }

      .cls-2 {
        fill: #185886;
      }
    </style>
  </defs>
  <g>
    <path class="cls-2" d="M21,40.5C10.25,40.5,1.5,31.75,1.5,21S10.25,1.5,21,1.5h141.88c10.75,0,19.5,8.75,19.5,19.5s-8.75,19.5-19.5,19.5H21Z"/>
    <path class="cls-1" d="M162.88,3c9.93,0,18,8.07,18,18s-8.07,18-18,18H21c-9.93,0-18-8.07-18-18S11.07,3,21,3h141.88M162.88,0H21C9.4,0,0,9.4,0,21s9.4,21,21,21h141.88c11.6,0,21-9.4,21-21S174.48,0,162.88,0h0Z"/>
  </g>
  <g>
    <path class="cls-1" d="M24.49,13.98c0,.23-.06.44-.18.64-.12.2-.27.35-.47.45v12.66c0,.1-.03.17-.09.23-.06.06-.14.09-.23.09h-.64c-.08,0-.16-.03-.21-.09-.06-.06-.1-.14-.11-.23v-12.66c-.19-.11-.34-.26-.45-.45s-.17-.41-.18-.64c0-.36.12-.66.38-.91.25-.25.55-.38.9-.38s.65.12.91.38c.26.25.39.55.38.91ZM39.18,14.63v7.61c0,.26-.11.45-.34.57l-.18.09c-1.46.78-2.69,1.16-3.69,1.16-.58,0-1.11-.12-1.58-.36l-.29-.12c-.42-.23-.75-.39-.98-.48s-.54-.19-.91-.29c-.37-.09-.75-.14-1.13-.14-.68,0-1.47.14-2.36.43s-1.65.63-2.27,1.02c-.11.06-.22.09-.33.09s-.22-.02-.33-.07c-.2-.13-.3-.32-.3-.55v-7.43c0-.23.1-.41.3-.54.23-.14.49-.29.79-.43.3-.14.67-.32,1.13-.52s.96-.37,1.52-.5c.56-.13,1.08-.19,1.56-.18.74,0,1.44.1,2.09.3s1.35.49,2.08.86c.25.13.55.2.9.2.81,0,1.84-.38,3.1-1.13.14-.07.24-.12.3-.16.2-.11.41-.1.62.03.21.13.31.31.31.55ZM37.91,21.86v-6.16c-1.13.61-2.15.91-3.06.91-.55,0-1.03-.11-1.45-.32-.67-.32-1.28-.57-1.84-.75-.56-.18-1.15-.27-1.77-.29-1.16,0-2.5.42-4.03,1.27v5.98c1.63-.75,3.08-1.13,4.33-1.13.36,0,.7.02,1.02.07.32.05.65.14.98.27l.77.3c.18.07.45.2.82.39l.29.14c.29.14.62.21,1,.21.8,0,1.78-.3,2.94-.91Z"/>
    <path class="cls-1" d="M55.83,15.72l-1.42,2.81-.24-.14c0-.06,0-.11,0-.14,0-.2-.17-.41-.51-.64-1.04-.72-2.25-1.08-3.65-1.08-.62,0-1.16.08-1.63.23-.34.12-.62.29-.83.52-.21.23-.32.49-.32.76,0,.45.27.75.81.92.28.08.88.17,1.8.26l1.37.14c.82.09,1.48.21,1.98.36.5.15.95.36,1.34.64.4.29.71.66.94,1.13.23.47.35.96.35,1.49,0,.84-.27,1.58-.81,2.23-.49.6-1.25,1.04-2.28,1.32-.77.21-1.59.32-2.47.32-1.58,0-3.14-.38-4.68-1.14-.33-.15-.52-.23-.59-.23-.08,0-.2.06-.36.19l-.25-.13,1.29-2.93.25.12v.11c0,.26.13.5.38.72.38.34.96.63,1.76.88s1.54.37,2.25.37c.78,0,1.44-.13,1.98-.39.3-.14.54-.34.73-.58.18-.24.27-.49.27-.76,0-.39-.21-.68-.64-.85-.3-.12-.9-.22-1.8-.32l-1.35-.14c-.9-.09-1.54-.18-1.91-.27s-.75-.22-1.12-.41c-.53-.26-.95-.66-1.25-1.18-.27-.47-.41-1.02-.41-1.63,0-1.01.35-1.84,1.04-2.5.91-.87,2.27-1.3,4.09-1.3.76,0,1.47.08,2.13.23.66.15,1.48.44,2.46.86.34.13.54.2.62.2.12,0,.27-.07.43-.2l.24.13Z"/>
    <path class="cls-1" d="M62.87,18.62v7.12c0,.18.04.32.12.42.08.1.23.18.44.24v.25h-3.46v-.25c.2-.05.35-.13.43-.23s.13-.24.13-.42v-7.12h-2.88c-.19,0-.33.04-.42.12-.1.08-.17.23-.23.43h-.24v-2.89h.24c.05.21.13.35.22.43.1.08.24.13.42.13h8.12c.19,0,.33-.04.42-.12s.17-.23.23-.44h.24v2.89h-.24c-.06-.21-.14-.35-.23-.43-.1-.08-.24-.12-.42-.12h-2.88Z"/>
    <path class="cls-1" d="M73.99,24.19h-4.5l-.51,1.07c-.12.26-.18.46-.18.6,0,.28.19.46.56.53v.25h-3.6v-.25c.22-.03.39-.1.49-.2.11-.1.23-.29.38-.59l3.57-7.24c.13-.27.2-.51.2-.72,0-.24-.16-.42-.49-.56v-.24h3.8v.24c-.32.13-.48.33-.48.59,0,.19.07.43.22.71l3.71,7.02c.2.38.36.63.48.74.12.11.29.19.53.24v.25h-4v-.25c.38-.06.57-.24.57-.53,0-.18-.07-.4-.22-.67l-.54-1ZM73.29,22.82l-1.6-3.15-1.53,3.15h3.13Z"/>
    <path class="cls-1" d="M81.9,22.62v3.12c0,.18.04.32.12.41s.23.18.44.24v.25h-3.46v-.25c.2-.05.35-.13.43-.23s.13-.24.13-.42v-8.01c0-.18-.04-.32-.12-.41-.08-.09-.23-.17-.44-.24v-.24h6.42c.83,0,1.47.04,1.91.12.44.09.83.24,1.17.46.7.46,1.06,1.21,1.06,2.26,0,.79-.22,1.41-.65,1.86s-1.13.77-2.1.96l1.85,2.58c.34.48.61.8.81.97.2.17.43.28.69.33v.25h-4.12v-.25c.3-.08.46-.21.46-.39,0-.13-.09-.32-.28-.59l-1.96-2.8h-2.34ZM81.9,20.84h3.53c.54,0,.93-.06,1.19-.18.36-.16.54-.47.54-.94,0-.41-.13-.7-.38-.87-.25-.16-.7-.24-1.35-.24h-3.53v2.22Z"/>
    <path class="cls-1" d="M96.78,18.62v7.12c0,.18.04.32.12.42.08.1.23.18.44.24v.25h-3.46v-.25c.2-.05.35-.13.43-.23s.13-.24.13-.42v-7.12h-2.88c-.19,0-.33.04-.42.12-.1.08-.17.23-.23.43h-.24v-2.89h.24c.05.21.13.35.22.43.1.08.24.13.42.13h8.12c.19,0,.33-.04.42-.12s.17-.23.23-.44h.24v2.89h-.24c-.06-.21-.14-.35-.23-.43-.1-.08-.24-.12-.42-.12h-2.88Z"/>
    <path class="cls-1" d="M116.3,21.43h-6.88v4.3c0,.18.04.31.13.41.08.1.23.17.43.22v.28h-3.72v-.28c.21-.06.36-.13.44-.23s.12-.23.12-.4v-10.11c0-.18-.04-.31-.12-.4-.08-.09-.23-.17-.44-.23v-.28h3.72v.28c-.21.05-.36.13-.44.22-.08.1-.12.23-.12.41v3.85h6.88v-3.85c0-.18-.04-.31-.12-.41-.08-.1-.23-.17-.44-.22v-.28h3.72v.28c-.21.06-.36.13-.44.23-.08.09-.12.23-.12.4v10.11c0,.18.04.31.12.4s.23.17.44.23v.28h-3.72v-.28c.2-.05.35-.13.43-.22.08-.1.13-.23.13-.41v-4.3Z"/>
    <path class="cls-1" d="M124.3,22.48v2.38h6.21c.18,0,.32-.04.42-.12.1-.08.17-.23.23-.44h.25v2.89h-.25c-.05-.2-.13-.35-.23-.43-.1-.09-.24-.13-.42-.13h-9.12v-.25c.2-.05.35-.13.43-.23s.13-.24.13-.42v-8.01c0-.18-.04-.32-.12-.41-.08-.09-.23-.17-.44-.24v-.24h8.85c.19,0,.33-.04.42-.12s.17-.23.23-.44h.24v2.89h-.24c-.06-.21-.14-.36-.23-.44s-.24-.12-.42-.12h-5.94v2.15h3.69c.18,0,.32-.04.42-.12s.18-.23.24-.44h.24v2.82h-.24c-.06-.21-.14-.35-.23-.44-.1-.08-.24-.12-.42-.12h-3.69Z"/>
    <path class="cls-1" d="M135.79,22.62v3.12c0,.18.04.32.12.41s.23.18.44.24v.25h-3.46v-.25c.2-.05.35-.13.43-.23s.13-.24.13-.42v-8.01c0-.18-.04-.32-.12-.41-.08-.09-.23-.17-.44-.24v-.24h6.42c.83,0,1.47.04,1.91.12.44.09.83.24,1.17.46.7.46,1.06,1.21,1.06,2.26,0,.79-.22,1.41-.65,1.86s-1.13.77-2.1.96l1.85,2.58c.34.48.61.8.81.97.2.17.43.28.69.33v.25h-4.12v-.25c.3-.08.46-.21.46-.39,0-.13-.09-.32-.28-.59l-1.96-2.8h-2.34ZM135.79,20.84h3.53c.54,0,.93-.06,1.19-.18.36-.16.54-.47.54-.94,0-.41-.13-.7-.38-.87-.25-.16-.7-.24-1.35-.24h-3.53v2.22Z"/>
    <path class="cls-1" d="M148.11,22.48v2.38h6.21c.18,0,.32-.04.42-.12.1-.08.17-.23.23-.44h.25v2.89h-.25c-.05-.2-.13-.35-.23-.43-.1-.09-.24-.13-.42-.13h-9.12v-.25c.2-.05.35-.13.43-.23s.13-.24.13-.42v-8.01c0-.18-.04-.32-.12-.41-.08-.09-.23-.17-.44-.24v-.24h8.85c.19,0,.33-.04.42-.12s.17-.23.23-.44h.24v2.89h-.24c-.06-.21-.14-.36-.23-.44s-.24-.12-.42-.12h-5.94v2.15h3.69c.18,0,.32-.04.42-.12s.18-.23.24-.44h.24v2.82h-.24c-.06-.21-.14-.35-.23-.44-.1-.08-.24-.12-.42-.12h-3.69Z"/>
    <path class="cls-1" d="M160.37,22.44h-2.31v-.28c.24-.06.4-.13.46-.21.07-.08.1-.22.1-.42,0-.12,0-.25-.03-.39l-.64-5.38c-.04-.31-.08-.5-.14-.59-.06-.08-.21-.14-.43-.18v-.28h3.67v.28c-.23.04-.37.1-.43.18-.06.08-.11.28-.14.59l-.64,5.38c-.02.14-.03.27-.03.39,0,.21.03.35.1.43.06.08.22.15.46.21v.28ZM159.22,23.98c.4,0,.74.14,1.02.42s.42.62.42,1.02-.14.72-.42,1c-.28.28-.62.42-1.01.42s-.73-.14-1.01-.42-.42-.62-.42-1.02.14-.72.42-1c.28-.28.62-.42,1.02-.42Z"/>
  </g>
</svg>