<?xml version="1.0" encoding="UTF-8"?>
<svg id="Layer_2" data-name="Layer 2" xmlns="http://www.w3.org/2000/svg" viewBox="0 0 176.64 42" width="176" height="42">
  <defs>
    <style>
      .cls-1 {
        fill: #1e90ff;
      }

      .cls-1, .cls-2 {
        stroke-width: 0px;
      }

      .cls-2 {
        fill: #fff;
      }
    </style>
  </defs>
  <g>
    <path class="cls-1" d="M21,40.5C10.25,40.5,1.5,31.75,1.5,21S10.25,1.5,21,1.5h134.64c10.75,0,19.5,8.75,19.5,19.5s-8.75,19.5-19.5,19.5H21Z"/>
    <path class="cls-2" d="M155.64,3c9.93,0,18,8.07,18,18s-8.07,18-18,18H21c-9.93,0-18-8.07-18-18S11.07,3,21,3h134.64M155.64,0H21C9.4,0,0,9.4,0,21s9.4,21,21,21h134.64c11.6,0,21-9.4,21-21S167.24,0,155.64,0h0Z"/>
  </g>
  <g>
    <path class="cls-2" d="M38.34,17.88c0,.14-.09.3-.27.48l-3.62,3.53.86,5v.21c0,.13-.04.24-.11.34s-.17.15-.3.15c-.12,0-.26-.03-.4-.12l-4.49-2.36-4.48,2.36c-.14.08-.28.12-.41.12s-.23-.05-.3-.16c-.07-.11-.11-.22-.11-.34,0-.05,0-.12.02-.21l.86-5-3.63-3.53c-.17-.18-.25-.34-.25-.48,0-.25.18-.41.55-.46l5.01-.72,2.25-4.55c.13-.27.29-.41.48-.41s.36.14.5.41l2.24,4.55,5.01.72c.38.06.57.21.57.46Z"/>
    <path class="cls-2" d="M55.44,22.54l1.66,2.49-.23.16c-.16-.15-.3-.23-.4-.23s-.4.14-.88.42c-1,.58-1.85.97-2.53,1.17-.68.2-1.5.3-2.44.3-1.88,0-3.43-.45-4.63-1.34-.71-.52-1.27-1.16-1.68-1.93-.47-.88-.71-1.85-.71-2.91,0-1.45.42-2.7,1.27-3.77,1.27-1.6,3.19-2.4,5.76-2.4.94,0,1.75.1,2.43.3.68.2,1.52.59,2.53,1.17.48.27.78.41.88.41s.24-.08.4-.23l.23.16-1.66,2.49-.24-.16c.01-.09.02-.17.02-.24,0-.17-.07-.33-.22-.47-.15-.15-.4-.33-.78-.54-1.03-.58-2.12-.87-3.28-.87-1.36,0-2.45.34-3.26,1.02-.96.8-1.43,1.84-1.43,3.13s.48,2.33,1.43,3.13c.81.68,1.9,1.02,3.26,1.02,1.15,0,2.25-.29,3.28-.87.37-.21.63-.39.78-.54.15-.15.22-.31.22-.48,0-.06,0-.14-.02-.23l.24-.17Z"/>
    <path class="cls-2" d="M61.58,17.74v8c0,.18.04.32.12.42.08.1.23.18.44.24v.25h-3.46v-.25c.2-.05.35-.13.43-.23.08-.1.13-.24.13-.42v-8.01c0-.18-.04-.32-.12-.41-.08-.09-.23-.17-.44-.24v-.24h3.46v.24c-.21.06-.36.14-.44.23-.08.1-.12.23-.12.42Z"/>
    <path class="cls-2" d="M69.26,18.62v7.12c0,.18.04.32.12.42.08.1.23.18.44.24v.25h-3.46v-.25c.2-.05.35-.13.43-.23.08-.1.13-.24.13-.42v-7.12h-2.88c-.19,0-.33.04-.42.12-.1.08-.17.23-.23.43h-.24v-2.89h.24c.05.2.13.35.22.43.1.08.24.13.42.13h8.12c.19,0,.33-.04.42-.12.1-.08.17-.23.23-.44h.24v2.89h-.24c-.06-.21-.14-.35-.23-.43-.1-.08-.24-.12-.42-.12h-2.88Z"/>
    <path class="cls-2" d="M76.94,17.74v8c0,.18.04.32.12.42.08.1.23.18.44.24v.25h-3.46v-.25c.2-.05.35-.13.43-.23.08-.1.13-.24.13-.42v-8.01c0-.18-.04-.32-.12-.41-.08-.09-.23-.17-.44-.24v-.24h3.46v.24c-.21.06-.36.14-.44.23-.08.1-.12.23-.12.42Z"/>
    <path class="cls-2" d="M82.83,24.86h4.97c.19,0,.33-.04.42-.12.09-.08.17-.23.24-.43h.24v2.89h-.24c-.05-.2-.13-.35-.22-.43-.1-.08-.24-.13-.42-.13h-8.78v-.52l5.7-7.49h-4.74c-.19,0-.33.04-.42.12-.09.08-.17.23-.24.44h-.24v-2.89h.24c.06.21.14.36.23.44.1.08.24.12.42.12h8.61v.43l-5.77,7.59Z"/>
    <path class="cls-2" d="M93.02,22.48v2.39h6.21c.18,0,.32-.04.42-.12.1-.08.17-.23.23-.44h.25v2.89h-.25c-.05-.2-.13-.35-.23-.43-.1-.08-.24-.13-.42-.13h-9.12v-.25c.2-.05.35-.13.43-.23.08-.1.13-.24.13-.42v-8.01c0-.18-.04-.32-.12-.41-.08-.09-.23-.17-.44-.24v-.24h8.85c.19,0,.33-.04.42-.12.1-.08.17-.23.23-.44h.24v2.89h-.24c-.06-.21-.13-.36-.23-.44-.1-.08-.24-.12-.42-.12h-5.94v2.15h3.69c.18,0,.32-.04.42-.12.1-.08.18-.23.24-.44h.24v2.82h-.24c-.06-.21-.13-.35-.23-.43-.1-.08-.24-.12-.42-.12h-3.69Z"/>
    <path class="cls-2" d="M104.3,20.19v5.55c0,.18.04.32.13.42.08.1.23.18.43.24v.25h-3.25v-.25c.2-.05.35-.13.43-.23.08-.1.13-.24.13-.42v-8.01c0-.18-.04-.32-.12-.41-.08-.09-.23-.17-.44-.24v-.24h3.76v.24c-.26.06-.38.18-.38.34,0,.14.09.3.28.49l5.25,5.21v-5.39c0-.18-.04-.32-.12-.42-.08-.1-.23-.17-.44-.23v-.24h3.25v.24c-.21.06-.36.14-.44.23-.08.1-.12.23-.12.42v8c0,.18.04.32.12.42.08.1.23.18.44.24v.25h-3.51v-.25c.26-.05.38-.16.38-.32,0-.08-.04-.17-.11-.25-.07-.09-.23-.26-.48-.51l-5.2-5.12Z"/>
    <path class="cls-2" d="M124.33,17.73l-1.18,2.28-.21-.11c0-.19-.06-.34-.18-.45-.33-.3-.82-.54-1.47-.73-.65-.19-1.3-.29-1.97-.29-.56,0-1.07.08-1.5.24-.63.23-.94.56-.94.99,0,.29.15.49.46.61.3.12.89.21,1.76.28l1.38.1c1.21.09,2.12.33,2.75.7.35.21.64.49.87.84.29.44.43.93.43,1.48,0,1-.45,1.78-1.35,2.36-.86.55-2.02.83-3.48.83s-2.9-.31-4.27-.94c-.09-.04-.17-.06-.24-.06-.12,0-.22.07-.32.21l-.22-.09,1-2.4.22.09v.07c0,.15.06.28.17.38.29.26.8.48,1.51.67.72.19,1.42.28,2.12.28.62,0,1.17-.08,1.66-.25.61-.2.91-.52.91-.96,0-.36-.21-.6-.63-.74-.28-.09-.78-.17-1.51-.24l-1.37-.11c-.74-.06-1.31-.13-1.7-.23-.39-.09-.73-.23-1.02-.41-.37-.23-.66-.55-.87-.95s-.31-.84-.31-1.32c0-1.07.46-1.89,1.38-2.46.84-.51,1.88-.77,3.11-.77.67,0,1.29.07,1.88.22s1.27.41,2.08.78c.24.11.41.17.5.17s.21-.06.36-.19l.21.11Z"/>
    <path class="cls-2" d="M134.31,22.37h-5.47v3.37c0,.18.04.32.12.42.08.1.23.18.44.24v.25h-3.46v-.25c.2-.05.35-.13.43-.23.08-.1.13-.24.13-.42v-8.01c0-.18-.04-.32-.12-.41-.08-.09-.23-.17-.44-.24v-.24h3.46v.24c-.21.06-.36.14-.44.23-.08.1-.12.23-.12.41v2.86h5.47v-2.86c0-.18-.04-.32-.12-.41-.08-.09-.23-.17-.44-.24v-.24h3.46v.24c-.21.06-.36.14-.44.23-.08.1-.12.23-.12.42v8c0,.18.04.32.12.42.08.1.23.18.44.24v.25h-3.46v-.25c.2-.05.35-.13.43-.23.08-.1.13-.24.13-.42v-3.37Z"/>
    <path class="cls-2" d="M141.83,17.74v8c0,.18.04.32.12.42.08.1.23.18.44.24v.25h-3.46v-.25c.2-.05.35-.13.43-.23.08-.1.13-.24.13-.42v-8.01c0-.18-.04-.32-.12-.41-.08-.09-.23-.17-.44-.24v-.24h3.46v.24c-.21.06-.36.14-.44.23-.08.1-.12.23-.12.42Z"/>
    <path class="cls-2" d="M147.01,22.62v3.12c0,.18.04.32.12.41.08.1.23.18.44.24v.25h-3.46v-.25c.2-.05.35-.13.43-.23.08-.1.13-.24.13-.42v-8.01c0-.18-.04-.32-.12-.41-.08-.09-.23-.17-.44-.24v-.24h6.38c1.26,0,2.22.19,2.86.57.37.22.67.54.87.94.21.41.32.87.32,1.37,0,.97-.33,1.7-1,2.17-.66.48-1.68.71-3.05.71h-3.48ZM147.01,20.84h3.34c.61,0,1.04-.06,1.28-.17.35-.17.52-.48.52-.94s-.17-.77-.52-.93c-.23-.12-.66-.18-1.28-.18h-3.34v2.22Z"/>
  </g>
</svg>