<?xml version="1.0" encoding="UTF-8"?>
<svg id="Layer_2" data-name="Layer 2" xmlns="http://www.w3.org/2000/svg" viewBox="0 0 230.98 42" width="231" height="42">
  <defs>
    <style>
      .cls-1 {
        fill: #325733;
      }

      .cls-1, .cls-2 {
        stroke-width: 0px;
      }

      .cls-2 {
        fill: #fff;
      }
    </style>
  </defs>
  <g>
    <path class="cls-1" d="M21,40.5C10.25,40.5,1.5,31.75,1.5,21S10.25,1.5,21,1.5h188.98c10.75,0,19.5,8.75,19.5,19.5s-8.75,19.5-19.5,19.5H21Z"/>
    <path class="cls-2" d="M209.98,3c9.93,0,18,8.07,18,18s-8.07,18-18,18H21c-9.93,0-18-8.07-18-18S11.07,3,21,3h188.98M209.98,0H21C9.4,0,0,9.4,0,21s9.4,21,21,21h188.98c11.6,0,21-9.4,21-21S221.58,0,209.98,0h0Z"/>
  </g>
  <g>
    <path class="cls-2" d="M21.48,24.13l.02-.02c.67,0,1.28,0,1.84-.02l-.23-.39-1.81-.04c-.11-.24-.18-.44-.21-.61-.04-.14-.07-.37-.11-.66.56,0,1.06,0,1.49-.02-.05-.12-.09-.24-.12-.36l-.02-.05h-1.41c-.05-.25-.08-.62-.11-1.09v-.2h1.2c-.01-.14-.01-.28,0-.41-.53,0-.92,0-1.18-.02.04-.54.1-.96.18-1.27.21-.01.54-.02.97-.02,0-.1,0-.19.02-.27l.02-.12c-.16-.01-.37-.02-.64-.02h-.25c.08-.37.15-.62.19-.73s.12-.3.24-.55c.17-.01.41-.02.72-.02l.11-.41h-.63c.1-.33.34-.76.73-1.29h.5s.05-.12.11-.21c.06-.09.09-.16.09-.21-.04-.01-.08-.02-.14-.02s-.13,0-.2-.02c-.01-.02.1-.17.35-.44.24-.27.47-.5.67-.69.55-.47,1.04-.83,1.47-1.09.16-.1.38-.21.66-.36.29-.14.44-.21.45-.2l-.32.25c-.37.3-.71.64-1.02,1.04-.31.39-.56.81-.75,1.25-.3.68-.47,1.37-.52,2.06l-.02.32v.41c.02.46.06.78.11.95l.09.45c.11.51.24.96.39,1.34.16.38.35.76.59,1.13.3.44.61.81.92,1.12.32.3.63.58.96.82s.85.61,1.58,1.1l.2.12c.18.12.28.19.3.21l.04.04c.07.04.13.07.16.09l.13.09c.23.15.34.24.34.25v.04h-7.5c-.17-.23-.28-.41-.35-.56-.07-.15-.15-.38-.26-.71ZM25.12,28.38c.2-.49.51-.94.91-1.35.41-.41.94-.81,1.59-1.21l.36-.21h3.9l.38.21c.66.39,1.19.8,1.59,1.22.41.42.7.87.89,1.34l.04.07h-3.15v-.04s-.04-.18-.13-.4c-.08-.22-.16-.4-.23-.53-.25-.51-.59-.99-1.02-1.42l-.27-.27h-.11l-.27.27c-.43.43-.77.9-1.02,1.42-.06.14-.13.32-.21.54-.08.21-.13.35-.13.39v.04h-3.17l.04-.07ZM30.27,25.37s.06-.06.19-.15.22-.15.29-.19c.02-.01.07-.04.13-.07l.05-.05s.12-.1.3-.21l.2-.12c.72-.48,1.24-.84,1.58-1.09.31-.24.63-.52.95-.84.37-.35.68-.71.92-1.09.24-.38.44-.76.6-1.15.15-.38.29-.83.39-1.34l.11-.45c.04-.18.07-.5.09-.95.01-.17,0-.41-.02-.72v-.02c-.05-.69-.22-1.38-.52-2.06-.19-.44-.44-.86-.75-1.25-.31-.39-.65-.74-1.02-1.04l-.16-.12-.16-.12s.16.05.45.2c.29.14.51.26.66.36.43.26.92.62,1.47,1.09.2.19.43.42.67.69.24.27.35.41.33.43-.02.02-.07.03-.14.03s-.13,0-.18.02c.02.07.07.17.14.3l.07.11h.48l.21.36c.25.42.42.73.52.93h-.63c.01.07.04.17.07.3l.04.11c.31,0,.55,0,.72.02l.02.04c.24.58.38,1,.41,1.25-.41,0-.7,0-.88.02-.01.07,0,.18.02.32v.07c.43,0,.75,0,.97.02l.02.09c.1.45.15.85.16,1.18-.26.01-.65.02-1.16.02l-.02.41h1.2v.36c-.02.51-.05.8-.09.88l-.02.05h-1.4l-.14.41c.35.01.84.02,1.47.02v.05c-.12.55-.23.96-.32,1.22l-1.81.04-.05.09c-.05.1-.11.2-.18.3l1.84.02c-.11.31-.19.54-.26.69-.07.15-.18.35-.33.6h-7.5v-.04Z"/>
    <path class="cls-2" d="M54.53,18.23l-2.73,6.9c-.16.35-.24.57-.24.66,0,.27.21.46.65.57v.28h-3.84v-.28c.39-.08.59-.28.59-.6,0-.09-.08-.35-.25-.78l-3.42-8.8c-.17-.44-.32-.73-.46-.89-.14-.15-.34-.26-.6-.31v-.28h4.15v.28c-.37.08-.55.25-.55.52,0,.13.05.33.14.58l2.36,6.31,2.55-6.35c.11-.27.17-.46.17-.54,0-.27-.2-.44-.58-.52v-.28h4.34v.28c-.4.11-.59.29-.59.57,0,.09.05.27.15.53l2.44,6.31,2.35-6.21c.12-.31.18-.54.18-.69,0-.26-.21-.43-.63-.51v-.28h4.1v.28c-.29.08-.49.19-.6.31-.11.13-.26.42-.44.88l-3.42,8.8c-.16.42-.24.7-.24.84,0,.29.21.46.62.53v.28h-3.89v-.28c.41-.06.61-.26.61-.59,0-.11-.09-.37-.27-.79l-2.63-6.76Z"/>
    <path class="cls-2" d="M70.19,16.64c1.56,0,2.85.4,3.89,1.19,1.24.96,1.86,2.29,1.86,3.99,0,1.6-.62,2.88-1.86,3.84-1.03.79-2.32,1.19-3.88,1.19s-2.85-.4-3.88-1.19c-1.25-.96-1.87-2.26-1.87-3.92s.62-2.98,1.87-3.92c1.03-.78,2.32-1.17,3.86-1.19ZM70.2,18.49c-1.01,0-1.83.32-2.47.97-.59.61-.88,1.37-.88,2.28s.29,1.67.88,2.27c.64.65,1.46.98,2.48.98s1.83-.33,2.47-.98c.59-.6.88-1.34.88-2.23,0-.96-.29-1.74-.88-2.32-.64-.64-1.47-.96-2.48-.97Z"/>
    <path class="cls-2" d="M80.34,22.62v3.12c0,.18.04.32.12.41.08.1.23.18.44.24v.25h-3.46v-.25c.2-.05.35-.13.43-.23.08-.1.13-.24.13-.42v-8.01c0-.18-.04-.32-.12-.41-.08-.09-.23-.17-.44-.24v-.24h6.42c.83,0,1.47.04,1.91.12.44.09.83.24,1.17.46.71.46,1.06,1.21,1.06,2.26,0,.79-.22,1.41-.65,1.86-.43.45-1.13.77-2.1.96l1.85,2.58c.34.48.61.8.81.97s.43.28.69.33v.25h-4.12v-.25c.3-.08.46-.21.46-.39,0-.13-.09-.32-.28-.59l-1.96-2.8h-2.34ZM80.34,20.84h3.53c.54,0,.93-.06,1.19-.18.36-.16.54-.47.54-.94,0-.41-.13-.7-.38-.87-.25-.16-.7-.24-1.35-.24h-3.53v2.22Z"/>
    <path class="cls-2" d="M92.67,24.86h5.48c.19,0,.33-.04.42-.12.09-.08.17-.23.24-.44h.24v2.89h-.24c-.06-.21-.14-.36-.23-.44-.1-.08-.24-.12-.42-.12h-8.38v-.25c.2-.05.35-.13.43-.23.08-.1.13-.24.13-.42v-8.01c0-.18-.04-.32-.12-.41-.08-.09-.23-.17-.44-.24v-.24h3.46v.24c-.21.06-.36.13-.44.23-.08.1-.12.24-.12.42v7.12Z"/>
    <path class="cls-2" d="M100.61,25.75v-8.01c0-.18-.04-.32-.12-.41-.08-.09-.23-.17-.44-.24v-.24h5.74c1.19,0,2.14.15,2.82.45.97.42,1.66,1.11,2.09,2.08.3.68.45,1.46.45,2.37,0,1.67-.5,2.94-1.49,3.8-.45.38-.98.66-1.59.84-.61.17-1.37.26-2.28.26h-5.74v-.25c.2-.05.35-.13.43-.23.08-.1.13-.24.13-.42ZM102.95,24.86h2.5c1.15,0,1.98-.26,2.5-.79.54-.55.81-1.33.81-2.33s-.27-1.79-.81-2.33c-.27-.27-.6-.47-1-.6s-.9-.19-1.5-.19h-2.5v6.24Z"/>
    <path class="cls-2" d="M126.08,23.6h-5.42l-.8,1.68c-.11.23-.17.42-.17.55,0,.26.2.43.58.53v.28h-3.95v-.28c.23-.05.41-.13.53-.25.12-.12.26-.34.42-.68l4.39-9.17c.14-.29.21-.53.21-.7,0-.27-.17-.46-.51-.58v-.28h4.23v.28c-.34.1-.52.27-.52.52,0,.17.05.36.17.58l4.54,9.2c.19.39.36.66.51.8s.34.24.59.29v.28h-4.39v-.28c.39-.06.58-.25.58-.54,0-.12-.06-.3-.17-.54l-.82-1.68ZM125.33,21.96l-1.93-4.25-1.97,4.25h3.9Z"/>
    <path class="cls-2" d="M141.09,17.73l-1.18,2.28-.21-.12c0-.19-.06-.34-.18-.45-.33-.3-.82-.54-1.47-.73-.65-.19-1.3-.29-1.97-.29-.57,0-1.07.08-1.5.24-.63.23-.94.56-.94.99,0,.29.15.49.45.61s.89.21,1.76.28l1.38.11c1.21.09,2.12.33,2.75.7.35.21.64.49.87.84.29.44.43.93.43,1.48,0,1-.45,1.78-1.35,2.36-.86.55-2.02.83-3.48.83s-2.9-.31-4.27-.94c-.09-.04-.17-.06-.24-.06-.12,0-.22.07-.32.21l-.22-.09,1.01-2.4.22.09v.07c0,.15.06.28.17.38.29.26.79.48,1.51.67s1.42.29,2.12.29c.62,0,1.17-.08,1.66-.25.61-.2.91-.52.91-.96,0-.36-.21-.6-.63-.74-.28-.09-.78-.17-1.51-.24l-1.37-.11c-.74-.06-1.3-.13-1.7-.23-.39-.09-.73-.23-1.02-.41-.37-.23-.67-.55-.87-.95-.21-.4-.32-.84-.32-1.32,0-1.07.46-1.89,1.38-2.46.84-.51,1.88-.77,3.11-.77.67,0,1.29.07,1.88.22.58.15,1.27.41,2.08.78.24.11.4.17.5.17s.21-.06.36-.19l.21.12Z"/>
    <path class="cls-2" d="M152.11,17.73l-1.18,2.28-.21-.12c0-.19-.06-.34-.18-.45-.33-.3-.82-.54-1.47-.73-.65-.19-1.3-.29-1.97-.29-.56,0-1.07.08-1.5.24-.63.23-.94.56-.94.99,0,.29.15.49.46.61.3.12.89.21,1.76.28l1.38.11c1.21.09,2.12.33,2.75.7.35.21.64.49.87.84.29.44.43.93.43,1.48,0,1-.45,1.78-1.35,2.36-.86.55-2.02.83-3.48.83s-2.9-.31-4.27-.94c-.09-.04-.17-.06-.24-.06-.12,0-.22.07-.32.21l-.22-.09,1-2.4.22.09v.07c0,.15.06.28.17.38.29.26.8.48,1.51.67.72.19,1.42.29,2.12.29.62,0,1.17-.08,1.66-.25.61-.2.91-.52.91-.96,0-.36-.21-.6-.63-.74-.28-.09-.78-.17-1.51-.24l-1.37-.11c-.74-.06-1.31-.13-1.7-.23-.39-.09-.73-.23-1.02-.41-.37-.23-.66-.55-.87-.95s-.31-.84-.31-1.32c0-1.07.46-1.89,1.38-2.46.84-.51,1.88-.77,3.11-.77.67,0,1.29.07,1.88.22s1.27.41,2.08.78c.24.11.41.17.5.17s.21-.06.36-.19l.21.12Z"/>
    <path class="cls-2" d="M156.62,22.48v2.38h6.21c.18,0,.32-.04.42-.12.1-.08.17-.23.23-.44h.25v2.89h-.25c-.05-.2-.13-.35-.23-.43-.1-.09-.24-.13-.42-.13h-9.12v-.25c.2-.05.35-.13.43-.23.08-.1.13-.24.13-.42v-8.01c0-.18-.04-.32-.12-.41-.08-.09-.23-.17-.44-.24v-.24h8.85c.19,0,.33-.04.42-.12.1-.08.17-.23.23-.44h.24v2.89h-.24c-.06-.21-.14-.36-.23-.44-.1-.08-.24-.12-.42-.12h-5.94v2.15h3.69c.18,0,.32-.04.42-.12.1-.08.18-.23.24-.44h.24v2.82h-.24c-.06-.21-.14-.35-.23-.44-.1-.08-.24-.12-.42-.12h-3.69Z"/>
    <path class="cls-2" d="M171.47,26.64l-3.57-6.44v5.54c0,.18.04.32.12.41.08.1.23.18.44.24v.25h-3.25v-.25c.2-.05.35-.13.43-.23.08-.1.13-.24.13-.42v-8.01c0-.18-.04-.32-.12-.42-.08-.1-.23-.17-.44-.23v-.24h4.14v.24c-.27.09-.41.25-.41.5s.1.53.3.87l2.44,4.43,2.46-4.37c.28-.46.42-.79.42-.98,0-.24-.14-.39-.43-.46v-.24h4.03v.24c-.21.06-.36.13-.44.23-.08.1-.12.23-.12.42v8c0,.18.04.32.12.42.08.1.23.18.44.23v.25h-3.46v-.25c.2-.05.35-.13.43-.23.08-.1.13-.24.13-.42v-5.55l-3.78,6.44Z"/>
    <path class="cls-2" d="M188.86,21.38c.48.22.84.44,1.07.66.43.42.64.98.64,1.7,0,.96-.36,1.69-1.08,2.21-.64.46-1.52.69-2.65.69h-6.97v-.25c.2-.05.35-.13.43-.23.08-.1.13-.24.13-.42v-8.01c0-.18-.04-.32-.12-.41-.08-.09-.23-.17-.44-.24v-.24h6.85c1.2,0,2.08.21,2.64.65.59.45.89,1.08.89,1.87,0,.47-.1.85-.31,1.15-.21.3-.57.58-1.08.87ZM182.77,20.52h3.56c.56,0,.96-.07,1.19-.21.23-.14.35-.39.35-.74s-.12-.59-.35-.73c-.23-.14-.63-.21-1.19-.21h-3.56v1.9ZM182.77,24.86h3.64c1.18,0,1.77-.43,1.77-1.29s-.59-1.28-1.77-1.28h-3.64v2.57Z"/>
    <path class="cls-2" d="M194.89,24.86h5.48c.19,0,.33-.04.42-.12.09-.08.17-.23.24-.44h.24v2.89h-.24c-.06-.21-.14-.36-.23-.44-.1-.08-.24-.12-.42-.12h-8.38v-.25c.2-.05.35-.13.43-.23.08-.1.13-.24.13-.42v-8.01c0-.18-.04-.32-.12-.41-.08-.09-.23-.17-.44-.24v-.24h3.46v.24c-.21.06-.36.13-.44.23-.08.1-.12.24-.12.42v7.12Z"/>
    <path class="cls-2" d="M206.68,22.34v3.4c0,.18.04.32.12.42.08.1.23.18.44.24v.24h-3.46v-.24c.21-.06.36-.14.44-.23.08-.1.12-.24.12-.42v-3.4l-2.9-3.99c-.33-.45-.59-.76-.78-.92s-.43-.28-.7-.34v-.24h4.41v.24c-.38.1-.57.28-.57.53,0,.13.14.38.41.77l1.42,1.97,1.39-1.97c.27-.39.41-.65.41-.78,0-.24-.19-.42-.56-.52v-.24s4.19,0,4.19,0v.24c-.27.06-.5.17-.69.34s-.46.47-.78.92l-2.9,3.99Z"/>
  </g>
</svg>
