<?xml version="1.0" encoding="UTF-8"?>
<svg id="rsc_stuff" data-name="rsc stuff" xmlns="http://www.w3.org/2000/svg" viewBox="0 0 173.89 42" width="174" height="42">
  <defs>
    <style>
      .cls-1, .cls-2 {
        fill: #fff;
      }

      .cls-1, .cls-2, .cls-3 {
        stroke-width: 0px;
      }

      .cls-2 {
        fill-rule: evenodd;
      }

      .cls-3 {
        fill: #bb1b1b;
      }
    </style>
  </defs>
  <g>
    <path class="cls-3" d="M21,40.5C10.25,40.5,1.5,31.75,1.5,21S10.25,1.5,21,1.5h131.89c10.75,0,19.5,8.75,19.5,19.5s-8.75,19.5-19.5,19.5H21Z"/>
    <path class="cls-1" d="M152.89,3c9.93,0,18,8.07,18,18s-8.07,18-18,18H21c-9.93,0-18-8.08-18-18S11.07,3,21,3h131.89M152.89,0H21C9.4,0,0,9.4,0,21h0c0,11.6,9.4,21,21,21h131.89c11.6,0,21-9.4,21-21h0c0-11.6-9.4-21-21-21h0Z"/>
  </g>
  <g>
    <path class="cls-1" d="M16.34,24.13l.02-.02c.67,0,1.28,0,1.84-.02l-.23-.39-1.81-.04c-.11-.24-.18-.44-.21-.61-.04-.14-.07-.36-.11-.66.56,0,1.06,0,1.49-.02-.05-.12-.09-.24-.12-.36l-.02-.05h-1.41c-.05-.25-.08-.61-.11-1.09v-.2h1.2c-.01-.14-.01-.28,0-.41-.52,0-.92,0-1.18-.02.04-.54.09-.96.18-1.27.21-.01.54-.02.97-.02,0-.09,0-.18.02-.27l.02-.12c-.16-.01-.37-.02-.64-.02h-.25c.08-.37.15-.62.19-.73s.12-.3.24-.55c.17-.01.41-.02.72-.02l.11-.41h-.63c.1-.33.34-.76.73-1.29h.5s.05-.12.11-.21c.06-.09.09-.16.09-.21-.04-.01-.08-.02-.14-.02s-.12,0-.2-.02c-.01-.02.1-.17.35-.44.24-.27.47-.5.67-.69.55-.47,1.04-.83,1.47-1.09.15-.1.38-.21.66-.36.29-.14.44-.21.45-.2l-.32.25c-.37.3-.71.64-1.02,1.04-.31.39-.56.81-.75,1.25-.3.68-.47,1.37-.52,2.06l-.02.32v.41c.02.47.06.78.11.95l.09.45c.11.51.24.96.39,1.34s.35.76.59,1.13c.3.44.61.81.92,1.12.32.3.64.58.96.82.32.25.85.61,1.58,1.1l.2.12c.18.12.28.19.3.21l.04.04c.07.04.12.07.16.09l.12.09c.23.16.34.24.34.25v.04h-7.5c-.17-.23-.28-.41-.35-.56-.07-.15-.15-.38-.26-.71ZM19.97,28.38c.2-.49.51-.94.91-1.35.41-.41.94-.81,1.59-1.21l.36-.21h3.9l.38.21c.66.39,1.19.8,1.59,1.22.41.42.7.87.9,1.34l.04.07h-3.15v-.04s-.04-.18-.12-.4c-.08-.22-.16-.4-.23-.53-.25-.51-.59-.99-1.02-1.42l-.27-.27h-.11l-.27.27c-.43.43-.77.9-1.02,1.42-.06.14-.13.32-.21.54-.08.21-.12.35-.12.39v.04h-3.17l.04-.07ZM25.13,25.37s.06-.06.19-.15c.12-.09.22-.15.29-.19.02-.01.07-.04.12-.07l.05-.05s.13-.1.3-.21l.2-.12c.72-.48,1.24-.84,1.58-1.09.31-.24.63-.52.95-.84.37-.35.68-.71.92-1.09s.44-.76.6-1.15.29-.83.39-1.34l.11-.45c.04-.18.07-.5.09-.95.01-.17,0-.41-.02-.72v-.02c-.05-.69-.22-1.38-.52-2.06-.19-.44-.44-.86-.75-1.25-.31-.39-.65-.74-1.02-1.04l-.16-.12-.16-.12s.16.05.45.2c.29.14.51.26.66.36.43.26.92.63,1.47,1.09.2.19.43.42.67.69.25.27.36.41.33.43-.02.02-.07.03-.14.03s-.13,0-.18.02c.02.07.07.17.14.3l.07.11h.48l.21.36c.25.42.42.73.52.93h-.63c.01.07.04.17.07.3l.04.11c.31,0,.55,0,.72.02l.02.04c.24.58.38,1,.41,1.25-.41,0-.7,0-.88.02-.01.07,0,.18.02.32v.07c.43,0,.75,0,.97.02l.02.09c.1.45.15.85.16,1.18-.26.01-.65.02-1.16.02l-.02.41h1.2v.36c-.02.51-.05.8-.09.88l-.02.05h-1.4l-.14.41c.35.01.83.02,1.47.02v.05c-.12.55-.23.95-.32,1.22l-1.81.04-.05.09c-.05.1-.11.2-.18.3l1.84.02c-.11.31-.19.54-.26.69-.07.15-.18.35-.33.6h-7.5v-.04Z"/>
    <path class="cls-1" d="M56.38,22.54l1.66,2.49-.23.16c-.16-.15-.3-.23-.4-.23s-.4.14-.88.42c-1,.58-1.85.97-2.53,1.17-.69.2-1.5.3-2.44.3-1.88,0-3.43-.45-4.63-1.34-.71-.52-1.27-1.16-1.68-1.93-.47-.88-.71-1.85-.71-2.91,0-1.45.42-2.7,1.27-3.77,1.27-1.6,3.19-2.4,5.76-2.4.94,0,1.75.1,2.43.3s1.52.59,2.54,1.17c.48.27.78.41.88.41s.24-.08.4-.23l.23.16-1.66,2.49-.24-.16c.01-.09.02-.17.02-.24,0-.17-.07-.33-.22-.47-.15-.15-.41-.33-.78-.54-1.03-.58-2.12-.87-3.28-.87-1.36,0-2.45.34-3.26,1.02-.96.8-1.43,1.84-1.43,3.13s.48,2.33,1.43,3.13c.81.68,1.9,1.02,3.26,1.02,1.15,0,2.25-.29,3.28-.87.37-.21.63-.39.78-.54s.22-.31.22-.48c0-.06,0-.14-.02-.23l.24-.17Z"/>
    <path class="cls-1" d="M65.13,16.64c1.56,0,2.85.4,3.89,1.19,1.24.96,1.86,2.29,1.86,3.99,0,1.6-.62,2.88-1.86,3.84-1.03.79-2.32,1.19-3.88,1.19s-2.85-.4-3.88-1.19c-1.25-.96-1.87-2.26-1.87-3.92s.62-2.98,1.87-3.92c1.03-.78,2.32-1.17,3.86-1.19ZM65.14,18.49c-1.01,0-1.83.32-2.47.97-.59.61-.88,1.37-.88,2.28s.29,1.67.88,2.27c.64.65,1.46.98,2.48.98s1.83-.33,2.47-.98c.59-.6.88-1.34.88-2.23,0-.96-.29-1.74-.88-2.33-.64-.64-1.47-.96-2.48-.97Z"/>
    <path class="cls-1" d="M75.07,20.19v5.55c0,.18.04.32.13.42.08.1.23.18.43.24v.25h-3.25v-.25c.2-.05.35-.13.43-.23.08-.1.13-.24.13-.42v-8.01c0-.18-.04-.32-.12-.41-.08-.09-.23-.17-.44-.24v-.24h3.76v.24c-.26.06-.38.18-.38.34,0,.14.09.3.28.49l5.25,5.21v-5.39c0-.18-.04-.32-.12-.42-.08-.1-.23-.17-.44-.23v-.24h3.25v.24c-.21.06-.36.14-.44.23-.08.1-.12.23-.12.42v8c0,.18.04.32.12.42.08.1.23.18.44.24v.25h-3.51v-.25c.26-.05.38-.16.38-.32,0-.08-.04-.17-.11-.25-.07-.09-.23-.26-.48-.51l-5.2-5.12Z"/>
    <path class="cls-1" d="M91.09,18.62v7.12c0,.18.04.32.12.42.08.1.23.18.44.24v.25h-3.46v-.25c.2-.05.35-.13.43-.23.08-.1.13-.24.13-.42v-7.12h-2.88c-.19,0-.33.04-.42.12-.1.08-.17.23-.23.43h-.24v-2.89h.24c.05.2.13.35.22.43.1.08.24.13.42.13h8.12c.19,0,.33-.04.42-.12.1-.08.17-.23.23-.44h.24v2.89h-.24c-.06-.21-.14-.35-.23-.43-.1-.08-.24-.12-.42-.12h-2.88Z"/>
    <path class="cls-1" d="M102.22,24.19h-4.5l-.51,1.07c-.12.26-.18.46-.18.6,0,.28.19.46.56.53v.25h-3.6v-.25c.22-.03.39-.1.49-.2.11-.1.23-.29.38-.59l3.57-7.24c.13-.27.2-.51.2-.72,0-.24-.16-.42-.49-.56v-.24h3.8v.24c-.32.13-.48.33-.48.59,0,.19.07.43.22.71l3.71,7.02c.2.38.36.63.48.74.12.11.29.19.53.24v.25h-4v-.25c.38-.06.57-.24.57-.53,0-.18-.07-.4-.22-.67l-.54-1ZM101.51,22.82l-1.6-3.15-1.53,3.15h3.13Z"/>
    <path class="cls-1" d="M116.79,23.12l1.48,2.16-.2.15c-.14-.1-.25-.15-.33-.15-.1,0-.33.11-.69.32-.8.47-1.5.79-2.12.97-.61.18-1.32.27-2.12.27-1.6,0-2.9-.38-3.91-1.15-.57-.44-1.03-.98-1.36-1.64-.36-.71-.54-1.48-.54-2.32,0-1.15.33-2.16,1-3.04,1.04-1.38,2.64-2.06,4.8-2.06.8,0,1.51.09,2.13.27.62.18,1.33.5,2.12.97.36.22.59.32.69.32.08,0,.19-.05.33-.15l.2.16-1.48,2.14-.19-.14c0-.07.01-.11.02-.13,0-.05,0-.09,0-.11,0-.28-.39-.61-1.18-.97-.75-.34-1.5-.51-2.25-.51-1.06,0-1.94.28-2.62.84-.79.63-1.18,1.43-1.18,2.42s.39,1.8,1.18,2.42c.69.55,1.57.83,2.62.83.83,0,1.65-.21,2.47-.62.64-.33.96-.61.96-.86,0-.01,0-.09-.03-.25l.19-.15Z"/>
    <path class="cls-1" d="M125.09,18.62v7.12c0,.18.04.32.12.42.08.1.23.18.44.24v.25h-3.46v-.25c.2-.05.35-.13.43-.23.08-.1.13-.24.13-.42v-7.12h-2.88c-.19,0-.33.04-.42.12-.1.08-.17.23-.23.43h-.24v-2.89h.24c.05.2.13.35.22.43.1.08.24.13.42.13h8.12c.19,0,.33-.04.42-.12.1-.08.17-.23.23-.44h.24v2.89h-.24c-.06-.21-.14-.35-.23-.43-.1-.08-.24-.12-.42-.12h-2.88Z"/>
    <path class="cls-1" d="M146.71,15.63v6.69c0,1.26-.23,2.21-.7,2.84-.84,1.13-2.57,1.7-5.2,1.7-1.9,0-3.35-.31-4.36-.92-.59-.36-1-.84-1.22-1.45-.22-.61-.33-1.33-.33-2.17v-6.69c0-.18-.04-.32-.12-.41-.08-.09-.23-.17-.44-.23v-.28h3.72v.28c-.21.05-.35.13-.43.22-.08.1-.12.24-.12.42v5.95c0,.69.04,1.2.11,1.53.08.33.22.6.43.83.56.59,1.52.89,2.87.89s2.32-.3,2.88-.89c.2-.22.34-.5.42-.83.08-.33.11-.84.11-1.53v-5.95c0-.18-.04-.32-.12-.41-.08-.09-.23-.17-.44-.23v-.28h3.51v.28c-.21.06-.36.13-.44.23-.08.09-.12.23-.12.41Z"/>
    <path class="cls-1" d="M158.37,17.73l-1.18,2.28-.21-.11c0-.19-.06-.34-.18-.45-.33-.3-.82-.54-1.47-.73-.65-.19-1.3-.29-1.97-.29-.56,0-1.07.08-1.5.24-.63.23-.94.56-.94.99,0,.29.15.49.46.61.3.12.89.21,1.76.28l1.38.1c1.21.09,2.12.33,2.75.7.35.21.64.49.87.84.29.44.43.93.43,1.48,0,1-.45,1.78-1.35,2.36-.86.55-2.02.83-3.48.83s-2.9-.31-4.27-.94c-.09-.04-.17-.06-.24-.06-.12,0-.22.07-.32.21l-.22-.09,1-2.4.22.09v.07c0,.15.06.28.17.38.29.26.8.48,1.51.67.72.19,1.42.28,2.12.28.62,0,1.17-.08,1.66-.25.61-.2.91-.52.91-.96,0-.36-.21-.6-.63-.74-.28-.09-.78-.17-1.51-.24l-1.37-.11c-.74-.06-1.31-.13-1.7-.23-.39-.09-.73-.23-1.02-.41-.37-.23-.66-.55-.87-.95s-.31-.84-.31-1.32c0-1.07.46-1.89,1.38-2.46.84-.51,1.88-.77,3.11-.77.67,0,1.29.07,1.88.22s1.27.41,2.08.78c.24.11.41.17.5.17s.21-.06.36-.19l.21.11Z"/>
  </g>
  <g>
    <polygon id="Five-pointed_star.svg_0" data-name="Five-pointed star.svg 0" class="cls-2" points="24.9 31.65 25.44 33.2 27.09 33.2 25.81 34.2 26.26 35.76 24.9 34.85 23.53 35.76 23.98 34.2 22.7 33.2 24.35 33.2 24.9 31.65"/>
    <polygon id="Five-pointed_star.svg_1" data-name="Five-pointed star.svg 1" class="cls-2" points="24.9 4.66 25.44 6.21 27.09 6.21 25.81 7.21 26.26 8.77 24.9 7.86 23.53 8.77 23.98 7.21 22.7 6.21 24.35 6.21 24.9 4.66"/>
    <polygon id="Five-pointed_star.svg_2" data-name="Five-pointed star.svg 2" class="cls-2" points="38.39 18.16 38.94 19.7 40.59 19.7 39.3 20.7 39.76 22.26 38.39 21.35 37.02 22.26 37.48 20.7 36.2 19.7 37.85 19.7 38.39 18.16"/>
    <polygon id="Five-pointed_star.svg_3" data-name="Five-pointed star.svg 3" class="cls-2" points="11.4 18.16 11.94 19.7 13.59 19.7 12.31 20.7 12.77 22.26 11.4 21.35 10.03 22.26 10.49 20.7 9.21 19.7 10.86 19.7 11.4 18.16"/>
    <polygon id="Five-pointed_star.svg_4" data-name="Five-pointed star.svg 4" class="cls-2" points="31.81 29.86 32.37 31.42 34 31.42 32.74 32.42 33.2 33.99 31.81 33.07 30.44 33.99 30.9 32.42 29.62 31.42 31.27 31.42 31.81 29.86"/>
    <polygon id="Five-pointed_star.svg_5" data-name="Five-pointed star.svg 5" class="cls-2" points="18.31 6.49 18.88 8.05 20.51 8.05 19.23 9.05 19.7 10.61 18.31 9.7 16.95 10.61 17.4 9.05 16.12 8.05 17.77 8.05 18.31 6.49"/>
    <polygon id="Five-pointed_star.svg_6" data-name="Five-pointed star.svg 6" class="cls-2" points="36.76 11.44 37.3 12.98 38.95 12.98 37.67 14 38.13 15.54 36.76 14.63 35.39 15.54 35.85 14 34.57 12.98 36.22 12.98 36.76 11.44"/>
    <polygon id="Five-pointed_star.svg_7" data-name="Five-pointed star.svg 7" class="cls-2" points="13.38 24.93 13.93 26.48 15.58 26.48 14.3 27.49 14.75 29.04 13.38 28.13 12.01 29.04 12.47 27.49 11.19 26.48 12.84 26.48 13.38 24.93"/>
    <polygon id="Five-pointed_star.svg_8" data-name="Five-pointed star.svg 8" class="cls-2" points="36.62 24.69 37.16 26.23 38.81 26.23 37.53 27.25 37.99 28.79 36.62 27.88 35.25 28.79 35.71 27.25 34.43 26.23 36.07 26.23 36.62 24.69"/>
    <polygon id="Five-pointed_star.svg_9" data-name="Five-pointed star.svg 9" class="cls-2" points="13.24 11.19 13.79 12.73 15.44 12.73 14.16 13.75 14.61 15.3 13.24 14.38 11.87 15.3 12.33 13.75 11.05 12.73 12.7 12.73 13.24 11.19"/>
    <polygon id="Five-pointed_star.svg_10" data-name="Five-pointed star.svg 10" class="cls-2" points="31.67 6.24 32.23 7.8 33.86 7.8 32.58 8.8 33.04 10.36 31.67 9.43 30.3 10.36 30.76 8.8 29.48 7.8 31.13 7.8 31.67 6.24"/>
    <polygon id="Five-pointed_star.svg_11" data-name="Five-pointed star.svg 11" class="cls-2" points="18.17 29.62 18.74 31.18 20.37 31.18 19.09 32.18 19.54 33.74 18.17 32.81 16.81 33.74 17.26 32.18 15.98 31.18 17.63 31.18 18.17 29.62"/>
  </g>
</svg>