<?xml version="1.0" encoding="UTF-8"?>
<svg id="rsc_stuff" data-name="rsc stuff" xmlns="http://www.w3.org/2000/svg" viewBox="0 0 92.98 42" width="93" height="42">
  <defs>
    <style>
      .cls-1 {
        fill: #fff;
      }

      .cls-1, .cls-2 {
        stroke-width: 0px;
      }

      .cls-2 {
        fill: #bb1b1b;
      }
    </style>
  </defs>
  <g>
    <path class="cls-2" d="M21,40.5C10.25,40.5,1.5,31.75,1.5,21S10.25,1.5,21,1.5h50.98c10.75,0,19.5,8.75,19.5,19.5s-8.75,19.5-19.5,19.5H21Z"/>
    <path class="cls-1" d="M71.98,3c9.93,0,18,8.07,18,18s-8.07,18-18,18H21c-9.93,0-18-8.07-18-18S11.07,3,21,3h50.98M71.98,0H21C9.4,0,0,9.4,0,21s9.4,21,21,21h50.98c11.6,0,21-9.4,21-21S83.58,0,71.98,0h0Z"/>
  </g>
  <g>
    <path class="cls-1" d="M29.1,17.98c0,.36-.05.69-.14,1-.1.31-.21.57-.36.77-.14.2-.33.4-.55.59-.23.19-.42.34-.57.45-.16.11-.36.22-.61.34-.27.15-.5.38-.68.66-.18.29-.27.51-.27.66,0,.12-.04.23-.12.32-.08.1-.18.15-.29.16h-2.4c-.1,0-.18-.07-.25-.2-.07-.13-.11-.25-.11-.36v-.46c0-.55.22-1.07.66-1.56.44-.49.91-.85,1.41-1.07.39-.19.67-.38.84-.57.17-.19.25-.44.25-.73s-.16-.55-.47-.75c-.31-.2-.67-.31-1.07-.32-.43,0-.79.1-1.07.29-.24.17-.6.55-1.07,1.14-.08.11-.19.16-.3.16-.08,0-.17-.03-.25-.07l-1.63-1.25c-.1-.07-.15-.15-.16-.25-.01-.1,0-.19.05-.29,1.06-1.77,2.61-2.65,4.64-2.65.54,0,1.07.1,1.61.3s1.02.48,1.45.82c.43.35.78.78,1.06,1.29.27.51.41,1.04.41,1.58ZM25.95,23.97v2.4c0,.11-.04.2-.13.27-.08.07-.17.11-.27.12h-2.4c-.11,0-.2-.04-.29-.12-.08-.08-.13-.17-.13-.27v-2.4c0-.11.04-.2.13-.29.08-.08.18-.12.29-.11h2.4c.11,0,.2.04.27.11.07.07.11.17.13.29Z"/>
    <path class="cls-1" d="M37.85,21.42v4.3c0,.18.04.32.13.41.08.1.23.17.43.22v.28h-3.72v-.28c.21-.06.36-.13.44-.23s.12-.23.12-.41v-10.1c0-.18-.04-.32-.12-.41-.08-.09-.23-.17-.44-.23v-.28h10.56c.17,0,.31-.04.4-.12.09-.08.17-.23.23-.44h.28v3.08h-.28c-.06-.21-.13-.36-.23-.44-.09-.08-.23-.12-.4-.12h-7.39v2.85h4.83c.18,0,.32-.04.41-.12.09-.08.17-.23.23-.43h.28v3.01h-.28c-.06-.21-.13-.35-.23-.43-.09-.08-.23-.12-.41-.12h-4.83Z"/>
    <path class="cls-1" d="M54.9,23.6h-5.42l-.8,1.68c-.11.23-.17.42-.17.55,0,.26.19.43.58.53v.28h-3.95v-.28c.23-.05.41-.13.53-.25.12-.12.26-.34.42-.68l4.39-9.17c.14-.29.21-.53.21-.7,0-.27-.17-.46-.51-.58v-.28h4.23v.28c-.34.1-.52.27-.52.52,0,.17.06.36.17.58l4.54,9.2c.19.39.36.66.51.8.15.14.34.24.59.29v.28h-4.39v-.28c.39-.06.58-.25.58-.54,0-.12-.06-.3-.17-.54l-.82-1.68ZM54.15,21.96l-1.93-4.25-1.97,4.25h3.9Z"/>
    <path class="cls-1" d="M71.41,25.1l.93.96c.21.22.35.36.42.41.07.05.16.07.26.07.08,0,.22-.04.4-.11l.18.21-2.56,2.33-.19-.21c.12-.19.17-.34.17-.43,0-.1-.16-.35-.49-.74l-1.03-1.26c-.86.35-1.91.52-3.15.52-2.03,0-3.66-.56-4.88-1.69-.65-.6-1.15-1.32-1.49-2.16-.3-.74-.45-1.52-.45-2.33,0-1.19.31-2.28.93-3.27,1.2-1.93,3.18-2.9,5.94-2.9,2.07,0,3.71.56,4.92,1.69.65.6,1.15,1.32,1.49,2.15.3.74.45,1.52.45,2.33,0,1.75-.62,3.23-1.86,4.43ZM69.68,23.36c.62-.77.93-1.67.93-2.7,0-1.29-.45-2.33-1.35-3.12-.75-.68-1.7-1.01-2.85-1.01s-2.11.34-2.86,1.01c-.9.8-1.35,1.85-1.35,3.13s.45,2.34,1.35,3.13c.76.68,1.72,1.01,2.87,1.01.55,0,1.08-.09,1.61-.28-.06-.08-.12-.15-.17-.21-.62-.79-1.35-1.29-2.19-1.48v-.25c.42-.33.9-.49,1.44-.49.39,0,.77.09,1.15.28.38.19.86.51,1.42.97Z"/>
  </g>
</svg>