<?xml version="1.0" encoding="UTF-8"?>
<svg id="rsc_stuff" data-name="rsc stuff" xmlns="http://www.w3.org/2000/svg" viewBox="0 0 182.94 42" width="183" height="42">
  <defs>
    <style>
      .cls-1 {
        fill: #fff;
      }

      .cls-1, .cls-2 {
        stroke-width: 0px;
      }

      .cls-2 {
        fill: #bb1b1b;
      }
    </style>
  </defs>
  <g>
    <path class="cls-2" d="M21,40.5C10.25,40.5,1.5,31.75,1.5,21S10.25,1.5,21,1.5h140.94c10.75,0,19.5,8.75,19.5,19.5s-8.75,19.5-19.5,19.5H21Z"/>
    <path class="cls-1" d="M161.94,3c9.93,0,18,8.07,18,18s-8.07,18-18,18H21c-9.93,0-18-8.07-18-18S11.07,3,21,3h140.94M161.94,0H21C9.4,0,0,9.4,0,21s9.4,21,21,21h140.94c11.6,0,21-9.4,21-21S173.54,0,161.94,0h0Z"/>
  </g>
  <g>
    <path class="cls-1" d="M14.7,24.13l.02-.02c.67,0,1.28,0,1.84-.02l-.23-.39-1.81-.04c-.11-.24-.18-.44-.21-.61-.04-.14-.07-.36-.11-.66.56,0,1.06,0,1.49-.02-.05-.12-.09-.24-.12-.36l-.02-.05h-1.41c-.05-.25-.08-.61-.11-1.09v-.2h1.2c-.01-.14-.01-.28,0-.41-.53,0-.92,0-1.18-.02.04-.54.1-.96.18-1.27.21-.01.54-.02.97-.02,0-.09,0-.18.02-.27l.02-.12c-.16-.01-.37-.02-.64-.02h-.25c.08-.37.15-.62.19-.73s.12-.3.24-.55c.17-.01.41-.02.72-.02l.11-.41h-.63c.1-.33.34-.76.73-1.29h.5s.05-.12.11-.21c.06-.09.09-.16.09-.21-.04-.01-.08-.02-.14-.02s-.13,0-.2-.02c-.01-.02.1-.17.35-.44.24-.27.47-.5.67-.69.55-.47,1.04-.83,1.47-1.09.16-.1.38-.21.66-.36.29-.14.44-.21.45-.2l-.32.25c-.37.3-.71.64-1.02,1.04-.31.39-.56.81-.75,1.25-.3.68-.47,1.37-.52,2.06l-.02.32v.41c.02.47.06.78.11.95l.09.45c.11.51.24.96.39,1.34s.35.76.59,1.13c.3.44.61.81.92,1.12.32.3.63.58.96.82.32.25.85.61,1.58,1.1l.2.12c.18.12.28.19.3.21l.04.04c.07.04.13.07.16.09l.13.09c.23.16.34.24.34.25v.04h-7.5c-.17-.23-.28-.41-.35-.56s-.15-.38-.26-.71ZM18.34,28.38c.2-.49.51-.94.91-1.35.41-.41.94-.81,1.59-1.21l.36-.21h3.9l.38.21c.66.39,1.19.8,1.59,1.22.41.42.7.87.89,1.34l.04.07h-3.15v-.04s-.04-.18-.13-.4c-.08-.22-.16-.4-.23-.53-.25-.51-.59-.99-1.02-1.42l-.27-.27h-.11l-.27.27c-.43.43-.77.9-1.02,1.42-.06.14-.13.32-.21.54-.08.21-.13.35-.13.39v.04h-3.17l.04-.07ZM23.49,25.37s.06-.06.19-.15c.12-.09.22-.15.29-.19.02-.01.07-.04.13-.07l.05-.05s.12-.1.3-.21l.2-.12c.72-.48,1.24-.84,1.58-1.09.31-.24.63-.52.95-.84.37-.35.68-.71.92-1.09.24-.38.44-.76.6-1.15.15-.38.29-.83.39-1.34l.11-.45c.04-.18.07-.5.09-.95.01-.17,0-.41-.02-.72v-.02c-.05-.69-.22-1.38-.52-2.06-.19-.44-.44-.86-.75-1.25-.31-.39-.65-.74-1.02-1.04l-.16-.12-.16-.12s.16.05.45.2c.29.14.51.26.66.36.43.26.92.63,1.47,1.09.2.19.43.42.67.69.24.27.35.41.33.43-.02.02-.07.03-.14.03s-.13,0-.18.02c.02.07.07.17.14.3l.07.11h.48l.21.36c.25.42.42.73.52.93h-.63c.01.07.04.17.07.3l.04.11c.31,0,.55,0,.72.02l.02.04c.24.58.38,1,.41,1.25-.41,0-.7,0-.88.02-.01.07,0,.18.02.32v.07c.43,0,.75,0,.97.02l.02.09c.1.45.15.85.16,1.18-.26.01-.65.02-1.16.02l-.02.41h1.2v.36c-.02.51-.05.8-.09.88l-.02.05h-1.4l-.14.41c.35.01.84.02,1.47.02v.05c-.12.55-.23.95-.32,1.22l-1.81.04-.05.09c-.05.1-.11.2-.18.3l1.84.02c-.11.31-.19.54-.26.69s-.18.35-.33.6h-7.5v-.04Z"/>
    <path class="cls-1" d="M46.35,21.4v3.27h7.67c.17,0,.31-.04.4-.12.09-.08.17-.23.23-.44h.28v3.09h-.28c-.06-.21-.13-.36-.23-.44-.09-.08-.23-.12-.4-.12h-10.84v-.28c.21-.06.36-.13.44-.23.08-.09.12-.23.12-.41v-10.09c0-.18-.04-.32-.12-.41-.08-.09-.23-.17-.44-.23v-.28h10.63c.17,0,.31-.04.4-.12s.17-.23.23-.43h.28v3.08h-.28c-.06-.21-.13-.35-.23-.43s-.23-.12-.4-.12h-7.46v2.83h4.84c.17,0,.31-.04.4-.12.09-.08.17-.23.23-.44h.28v3.02h-.28c-.06-.2-.13-.35-.23-.43-.09-.08-.23-.13-.4-.13h-4.84Z"/>
    <path class="cls-1" d="M59.26,20.19v5.55c0,.18.04.32.13.42.08.1.23.18.43.24v.25h-3.25v-.25c.2-.05.35-.13.43-.23.08-.1.13-.24.13-.42v-8.01c0-.18-.04-.32-.12-.41-.08-.09-.23-.17-.44-.24v-.24h3.76v.24c-.26.06-.38.18-.38.34,0,.14.09.3.28.49l5.25,5.21v-5.39c0-.18-.04-.32-.12-.42-.08-.1-.23-.17-.44-.23v-.24h3.25v.24c-.21.06-.36.14-.44.23-.08.1-.12.23-.12.42v8c0,.18.04.32.12.42.08.1.23.18.44.24v.25h-3.51v-.25c.26-.05.38-.16.38-.32,0-.08-.04-.17-.11-.25-.07-.09-.23-.26-.48-.51l-5.2-5.12Z"/>
    <path class="cls-1" d="M70.44,25.75v-8.01c0-.18-.04-.32-.12-.41-.08-.09-.23-.17-.44-.24v-.24h5.74c1.19,0,2.14.15,2.82.45.97.42,1.66,1.11,2.09,2.08.3.68.45,1.47.45,2.37,0,1.67-.5,2.94-1.49,3.8-.45.38-.98.66-1.59.83-.61.17-1.37.26-2.28.26h-5.74v-.25c.2-.05.35-.13.43-.23.08-.1.13-.24.13-.42ZM72.78,24.86h2.5c1.15,0,1.98-.26,2.5-.79.54-.55.81-1.33.81-2.33s-.27-1.79-.81-2.33c-.27-.27-.6-.47-1-.6s-.9-.19-1.5-.19h-2.5v6.24Z"/>
    <path class="cls-1" d="M87.98,16.64c1.56,0,2.85.4,3.89,1.19,1.24.96,1.86,2.29,1.86,3.99,0,1.6-.62,2.88-1.86,3.84-1.03.79-2.32,1.19-3.88,1.19s-2.85-.4-3.88-1.19c-1.25-.96-1.87-2.26-1.87-3.92s.62-2.98,1.87-3.92c1.03-.78,2.32-1.17,3.86-1.19ZM87.99,18.49c-1.01,0-1.83.32-2.47.97-.59.61-.88,1.37-.88,2.28s.29,1.67.88,2.27c.64.65,1.46.98,2.48.98s1.83-.33,2.47-.98c.59-.6.88-1.34.88-2.23,0-.96-.29-1.74-.88-2.33-.64-.64-1.47-.96-2.48-.97Z"/>
    <path class="cls-1" d="M100.6,18.62v7.12c0,.18.04.32.12.42.08.1.23.18.44.24v.25h-3.46v-.25c.2-.05.35-.13.43-.23.08-.1.13-.24.13-.42v-7.12h-2.88c-.19,0-.33.04-.42.12-.1.08-.17.23-.23.43h-.24v-2.89h.24c.05.2.13.35.22.43.1.08.24.13.42.13h8.12c.19,0,.33-.04.42-.12.1-.08.17-.23.23-.44h.24v2.89h-.24c-.06-.21-.14-.35-.23-.43-.1-.08-.24-.12-.42-.12h-2.88Z"/>
    <path class="cls-1" d="M111.72,24.19h-4.5l-.51,1.07c-.12.26-.18.46-.18.6,0,.28.19.46.56.53v.25h-3.6v-.25c.22-.03.39-.1.49-.2.11-.1.23-.29.38-.59l3.57-7.24c.13-.27.2-.51.2-.72,0-.24-.16-.42-.49-.56v-.24h3.8v.24c-.32.13-.48.33-.48.59,0,.19.07.43.22.71l3.71,7.02c.2.38.36.63.48.74.12.11.29.19.53.24v.25h-4v-.25c.38-.06.57-.24.57-.53,0-.18-.07-.4-.22-.67l-.54-1ZM111.02,22.82l-1.6-3.15-1.53,3.15h3.13Z"/>
    <path class="cls-1" d="M119.63,22.62v3.12c0,.18.04.32.12.41.08.1.23.18.44.24v.25h-3.46v-.25c.2-.05.35-.13.43-.23.08-.1.13-.24.13-.42v-8.01c0-.18-.04-.32-.12-.41-.08-.09-.23-.17-.44-.24v-.24h6.42c.83,0,1.47.04,1.91.13.44.08.83.24,1.17.46.7.46,1.06,1.21,1.06,2.25,0,.79-.22,1.41-.65,1.86-.43.45-1.13.77-2.1.97l1.85,2.58c.34.48.61.8.81.97.2.17.43.28.69.33v.25h-4.12v-.25c.3-.08.46-.21.46-.39,0-.13-.09-.32-.28-.58l-1.96-2.8h-2.34ZM119.63,20.84h3.53c.54,0,.93-.06,1.19-.17.36-.16.54-.47.54-.94,0-.41-.13-.7-.38-.87-.25-.16-.7-.25-1.35-.25h-3.53v2.22Z"/>
    <path class="cls-1" d="M134.51,18.62v7.12c0,.18.04.32.12.42.08.1.23.18.44.24v.25h-3.46v-.25c.2-.05.35-.13.43-.23.08-.1.13-.24.13-.42v-7.12h-2.88c-.19,0-.33.04-.42.12-.1.08-.17.23-.23.43h-.24v-2.89h.24c.05.2.13.35.22.43.1.08.24.13.42.13h8.12c.19,0,.33-.04.42-.12.1-.08.17-.23.23-.44h.24v2.89h-.24c-.06-.21-.14-.35-.23-.43-.1-.08-.24-.12-.42-.12h-2.88Z"/>
    <path class="cls-1" d="M142.2,17.74v8c0,.18.04.32.12.42.08.1.23.18.44.24v.25h-3.46v-.25c.2-.05.35-.13.43-.23.08-.1.13-.24.13-.42v-8.01c0-.18-.04-.32-.12-.41-.08-.09-.23-.17-.44-.24v-.24h3.46v.24c-.21.06-.36.14-.44.23-.08.1-.12.23-.12.42Z"/>
    <path class="cls-1" d="M147.17,20.19v5.55c0,.18.04.32.13.42.08.1.23.18.43.24v.25h-3.25v-.25c.2-.05.35-.13.43-.23.08-.1.13-.24.13-.42v-8.01c0-.18-.04-.32-.12-.41-.08-.09-.23-.17-.44-.24v-.24h3.76v.24c-.26.06-.38.18-.38.34,0,.14.09.3.28.49l5.25,5.21v-5.39c0-.18-.04-.32-.12-.42-.08-.1-.23-.17-.44-.23v-.24h3.25v.24c-.21.06-.36.14-.44.23-.08.1-.12.23-.12.42v8c0,.18.04.32.12.42.08.1.23.18.44.24v.25h-3.51v-.25c.26-.05.38-.16.38-.32,0-.08-.04-.17-.11-.25-.07-.09-.23-.26-.48-.51l-5.2-5.12Z"/>
    <path class="cls-1" d="M166.62,22.86h-2.23c-.19,0-.33.04-.42.12-.1.08-.17.23-.23.44h-.24v-2.6h.24c.06.21.13.35.23.44.1.08.24.12.42.12h4.66v.25c-.2.06-.35.14-.43.25-.08.11-.13.27-.13.47v2.06c0,.18.04.32.13.42.08.1.23.18.43.24v.2c-1.89,1.04-3.77,1.56-5.65,1.56-1.62,0-2.93-.38-3.93-1.15-.54-.42-.98-.94-1.31-1.56-.39-.73-.58-1.52-.58-2.35,0-1.15.36-2.18,1.07-3.08,1.11-1.39,2.74-2.08,4.91-2.08.95,0,2.03.21,3.25.63.48.16.77.25.85.25.1,0,.22-.05.35-.14l.21.11-1.17,2.46-.21-.1v-.05c0-.22-.22-.44-.65-.66-.8-.43-1.65-.64-2.57-.64-1.05,0-1.92.29-2.59.87-.71.61-1.07,1.42-1.07,2.45,0,.96.32,1.73.97,2.31.66.59,1.6.88,2.8.88s2.11-.21,2.89-.64v-1.5Z"/>
  </g>
</svg>