<?xml version="1.0" encoding="UTF-8"?>
<svg id="rsc_stuff" data-name="rsc stuff" xmlns="http://www.w3.org/2000/svg" viewBox="0 0 230.04 42" width="230" height="42">
  <defs>
    <style>
      .cls-1 {
        fill: #fff;
      }

      .cls-1, .cls-2 {
        stroke-width: 0px;
      }

      .cls-2 {
        fill: #bb1b1b;
      }
    </style>
  </defs>
  <g>
    <path class="cls-2" d="M21,40.5C10.25,40.5,1.5,31.75,1.5,21S10.25,1.5,21,1.5h188.04c10.75,0,19.5,8.75,19.5,19.5s-8.75,19.5-19.5,19.5H21Z"/>
    <path class="cls-1" d="M209.04,3c9.93,0,18,8.08,18,18s-8.07,18-18,18H21c-9.93,0-18-8.07-18-18S11.07,3,21,3h188.04M209.04,0H21C9.4,0,0,9.4,0,21h0c0,11.6,9.4,21,21,21h188.04c11.6,0,21-9.4,21-21h0c0-11.6-9.4-21-21-21h0Z"/>
  </g>
  <g>
    <path class="cls-1" d="M23.61,13.34v7.68c0,.57-.11,1.14-.32,1.7-.21.56-.5,1.06-.84,1.5-.35.44-.74.87-1.18,1.27s-.86.75-1.25,1.02-.8.53-1.22.77c-.42.24-.72.41-.9.5s-.31.16-.4.21-.18.06-.28.06-.18-.02-.25-.07l-.43-.2c-.18-.08-.48-.25-.9-.5-.42-.25-.82-.51-1.2-.77-.38-.26-.81-.6-1.27-1.02-.47-.42-.86-.84-1.18-1.27s-.6-.93-.82-1.5c-.23-.57-.34-1.14-.34-1.7v-7.68c0-.17.07-.32.2-.45.13-.13.28-.2.45-.2h11.51c.17,0,.32.07.45.2.13.13.19.28.18.45ZM21.69,21.02v-6.39h-4.48v11.35c.8-.42,1.51-.87,2.13-1.36,1.56-1.23,2.34-2.43,2.34-3.6Z"/>
    <path class="cls-1" d="M32.32,21.4v3.27h7.67c.17,0,.31-.04.4-.12.09-.08.17-.23.23-.44h.28v3.09h-.28c-.06-.21-.13-.36-.23-.44-.09-.08-.23-.12-.4-.12h-10.84v-.28c.21-.06.36-.13.44-.23.08-.09.12-.23.12-.41v-10.09c0-.18-.04-.32-.12-.41-.08-.09-.23-.17-.44-.23v-.28h10.63c.17,0,.31-.04.4-.12.09-.08.17-.23.23-.43h.28v3.08h-.28c-.06-.21-.13-.35-.23-.43-.09-.08-.23-.12-.4-.12h-7.46v2.83h4.84c.17,0,.31-.04.4-.12.09-.08.17-.23.23-.44h.28v3.02h-.28c-.06-.2-.13-.35-.23-.43-.09-.08-.23-.13-.4-.13h-4.84Z"/>
    <path class="cls-1" d="M45.23,20.19v5.55c0,.18.04.32.13.42s.23.18.43.24v.25h-3.25v-.25c.2-.05.35-.13.43-.23.08-.1.13-.24.13-.42v-8.01c0-.18-.04-.32-.12-.41-.08-.09-.23-.17-.44-.24v-.24h3.76v.24c-.26.06-.38.18-.38.34,0,.14.09.3.28.49l5.25,5.21v-5.39c0-.18-.04-.32-.12-.42-.08-.1-.23-.17-.44-.23v-.24h3.25v.24c-.21.06-.36.14-.44.23-.08.1-.12.23-.12.42v8c0,.18.04.32.12.42.08.1.23.18.44.24v.25h-3.51v-.25c.26-.05.38-.16.38-.32,0-.08-.04-.17-.1-.25-.07-.09-.23-.26-.48-.51l-5.2-5.12Z"/>
    <path class="cls-1" d="M56.41,25.75v-8.01c0-.18-.04-.32-.12-.41-.08-.09-.23-.17-.44-.24v-.24h5.74c1.19,0,2.14.15,2.82.45.97.42,1.66,1.11,2.09,2.08.3.68.45,1.47.45,2.37,0,1.67-.5,2.94-1.49,3.8-.45.38-.98.66-1.59.83s-1.37.26-2.28.26h-5.74v-.25c.2-.05.35-.13.43-.23.08-.1.13-.24.13-.42ZM58.75,24.86h2.5c1.15,0,1.98-.26,2.5-.79.54-.55.81-1.33.81-2.33s-.27-1.79-.81-2.33c-.27-.27-.6-.47-1-.6-.4-.12-.9-.19-1.5-.19h-2.5v6.24Z"/>
    <path class="cls-1" d="M73.96,16.64c1.56,0,2.85.4,3.89,1.19,1.24.96,1.86,2.29,1.86,3.99,0,1.6-.62,2.88-1.86,3.84-1.03.79-2.32,1.19-3.88,1.19s-2.85-.4-3.88-1.19c-1.25-.96-1.87-2.26-1.87-3.92s.62-2.98,1.87-3.92c1.03-.78,2.32-1.17,3.86-1.19ZM73.97,18.49c-1.01,0-1.83.32-2.47.97-.59.61-.88,1.37-.88,2.28s.29,1.67.88,2.27c.64.65,1.46.98,2.48.98s1.83-.33,2.47-.98c.59-.6.88-1.34.88-2.23,0-.96-.29-1.74-.88-2.33-.64-.64-1.47-.96-2.48-.97Z"/>
    <path class="cls-1" d="M84.11,22.62v3.12c0,.18.04.32.12.41s.23.18.44.24v.25h-3.46v-.25c.2-.05.35-.13.43-.23.08-.1.13-.24.13-.42v-8.01c0-.18-.04-.32-.12-.41-.08-.09-.23-.17-.44-.24v-.24h6.42c.83,0,1.47.04,1.91.13.44.08.83.24,1.17.46.7.46,1.06,1.21,1.06,2.25,0,.79-.22,1.41-.65,1.86-.43.45-1.13.77-2.1.97l1.85,2.58c.34.48.61.8.81.97.2.17.43.28.69.33v.25h-4.12v-.25c.3-.08.46-.21.46-.39,0-.13-.09-.32-.28-.58l-1.96-2.8h-2.34ZM84.11,20.84h3.53c.54,0,.93-.06,1.19-.17.36-.16.54-.47.54-.94,0-.41-.13-.7-.38-.87s-.7-.25-1.35-.25h-3.53v2.22Z"/>
    <path class="cls-1" d="M102.74,17.73l-1.18,2.28-.21-.11c0-.19-.06-.34-.18-.45-.33-.3-.82-.54-1.47-.73s-1.3-.29-1.97-.29c-.56,0-1.07.08-1.5.24-.63.23-.94.56-.94.99,0,.29.15.49.45.61.3.12.89.21,1.76.28l1.38.1c1.21.09,2.12.33,2.75.7.35.21.64.49.87.84.29.44.43.93.43,1.48,0,1-.45,1.78-1.35,2.36-.86.55-2.02.83-3.48.83s-2.9-.31-4.27-.94c-.09-.04-.17-.06-.24-.06-.12,0-.22.07-.32.21l-.22-.09,1.01-2.4.22.09v.07c0,.15.06.28.17.38.29.26.8.48,1.51.67.72.19,1.42.28,2.12.28.62,0,1.17-.08,1.66-.25.61-.2.91-.52.91-.96,0-.36-.21-.6-.63-.74-.28-.09-.78-.17-1.51-.24l-1.37-.11c-.74-.06-1.31-.13-1.7-.23-.39-.09-.73-.23-1.02-.41-.37-.23-.66-.55-.87-.95-.21-.4-.31-.84-.31-1.32,0-1.07.46-1.89,1.38-2.46.84-.51,1.88-.77,3.11-.77.67,0,1.29.07,1.88.22.58.15,1.27.41,2.08.78.24.11.4.17.5.17s.21-.06.36-.19l.21.11Z"/>
    <path class="cls-1" d="M107.25,22.48v2.39h6.21c.18,0,.32-.04.42-.12.1-.08.17-.23.23-.44h.25v2.89h-.25c-.05-.2-.13-.35-.23-.43-.1-.08-.24-.13-.42-.13h-9.12v-.25c.2-.05.35-.13.43-.23.08-.1.13-.24.13-.42v-8.01c0-.18-.04-.32-.12-.41-.08-.09-.23-.17-.44-.24v-.24h8.85c.19,0,.33-.04.42-.12.1-.08.17-.23.23-.44h.24v2.89h-.24c-.06-.21-.14-.36-.23-.44s-.24-.12-.42-.12h-5.94v2.15h3.69c.18,0,.32-.04.42-.12s.18-.23.24-.44h.24v2.82h-.24c-.06-.21-.14-.35-.23-.43-.1-.08-.24-.12-.42-.12h-3.69Z"/>
    <path class="cls-1" d="M122.09,26.64l-3.57-6.44v5.54c0,.18.04.32.12.42.08.1.23.18.44.24v.25h-3.25v-.25c.2-.05.35-.13.43-.23.08-.1.13-.24.13-.42v-8.01c0-.18-.04-.32-.12-.42-.08-.1-.23-.17-.44-.23v-.24h4.14v.24c-.27.09-.41.25-.41.5s.1.53.3.87l2.44,4.43,2.46-4.37c.28-.46.42-.79.42-.98,0-.24-.14-.39-.43-.46v-.24h4.03v.24c-.21.06-.36.14-.44.23-.08.1-.12.23-.12.42v8c0,.18.04.32.12.42s.23.18.44.24v.25h-3.46v-.25c.2-.05.35-.13.43-.23.08-.1.13-.24.13-.42v-5.55l-3.78,6.44Z"/>
    <path class="cls-1" d="M133.39,22.48v2.39h6.21c.18,0,.32-.04.42-.12.1-.08.17-.23.23-.44h.25v2.89h-.25c-.05-.2-.13-.35-.23-.43-.1-.08-.24-.13-.42-.13h-9.12v-.25c.2-.05.35-.13.43-.23.08-.1.13-.24.13-.42v-8.01c0-.18-.04-.32-.12-.41-.08-.09-.23-.17-.44-.24v-.24h8.85c.19,0,.33-.04.42-.12.1-.08.17-.23.23-.44h.24v2.89h-.24c-.06-.21-.14-.36-.23-.44s-.24-.12-.42-.12h-5.94v2.15h3.69c.18,0,.32-.04.42-.12s.18-.23.24-.44h.24v2.82h-.24c-.06-.21-.14-.35-.23-.43-.1-.08-.24-.12-.42-.12h-3.69Z"/>
    <path class="cls-1" d="M144.66,20.19v5.55c0,.18.04.32.13.42s.23.18.43.24v.25h-3.25v-.25c.2-.05.35-.13.43-.23.08-.1.13-.24.13-.42v-8.01c0-.18-.04-.32-.12-.41-.08-.09-.23-.17-.44-.24v-.24h3.76v.24c-.26.06-.38.18-.38.34,0,.14.09.3.28.49l5.25,5.21v-5.39c0-.18-.04-.32-.12-.42-.08-.1-.23-.17-.44-.23v-.24h3.25v.24c-.21.06-.36.14-.44.23-.08.1-.12.23-.12.42v8c0,.18.04.32.12.42.08.1.23.18.44.24v.25h-3.51v-.25c.26-.05.38-.16.38-.32,0-.08-.04-.17-.1-.25-.07-.09-.23-.26-.48-.51l-5.2-5.12Z"/>
    <path class="cls-1" d="M160.69,18.62v7.12c0,.18.04.32.12.42.08.1.23.18.44.24v.25h-3.46v-.25c.2-.05.35-.13.43-.23.08-.1.13-.24.13-.42v-7.12h-2.88c-.19,0-.33.04-.42.12s-.17.23-.23.43h-.24v-2.89h.24c.05.2.13.35.22.43.1.08.24.13.42.13h8.12c.19,0,.33-.04.42-.12.1-.08.17-.23.23-.44h.24v2.89h-.24c-.06-.21-.14-.35-.23-.43s-.24-.12-.42-.12h-2.88Z"/>
    <path class="cls-1" d="M181.72,22.54l1.66,2.49-.23.16c-.16-.15-.3-.23-.4-.23s-.4.14-.88.42c-1,.58-1.85.97-2.53,1.17-.69.2-1.5.3-2.44.3-1.88,0-3.43-.45-4.63-1.34-.71-.52-1.27-1.16-1.68-1.93-.47-.88-.71-1.85-.71-2.91,0-1.45.42-2.7,1.27-3.77,1.27-1.6,3.19-2.4,5.76-2.4.94,0,1.75.1,2.43.3.68.2,1.52.59,2.53,1.17.48.27.78.41.88.41s.24-.08.4-.23l.23.16-1.66,2.49-.24-.16c.01-.09.02-.17.02-.24,0-.17-.07-.33-.22-.47-.15-.15-.4-.33-.78-.54-1.03-.58-2.12-.87-3.28-.87-1.36,0-2.45.34-3.26,1.02-.96.8-1.43,1.84-1.43,3.13s.48,2.33,1.43,3.13c.81.68,1.9,1.02,3.26,1.02,1.15,0,2.25-.29,3.28-.87.37-.21.63-.39.78-.54.15-.15.22-.31.22-.48,0-.06,0-.14-.02-.23l.24-.17Z"/>
    <path class="cls-1" d="M192.37,24.19h-4.5l-.51,1.07c-.12.26-.18.46-.18.6,0,.28.19.46.56.53v.25h-3.6v-.25c.22-.03.39-.1.49-.2.11-.1.23-.29.38-.59l3.57-7.24c.13-.27.2-.51.2-.72,0-.24-.16-.42-.49-.56v-.24h3.8v.24c-.32.13-.48.33-.48.59,0,.19.07.43.22.71l3.71,7.02c.2.38.36.63.48.74.12.11.29.19.53.24v.25h-4v-.25c.38-.06.57-.24.57-.53,0-.18-.07-.4-.22-.67l-.54-1ZM191.67,22.82l-1.6-3.15-1.53,3.15h3.13Z"/>
    <path class="cls-1" d="M200.28,22.62v3.12c0,.18.04.32.12.41s.23.18.44.24v.25h-3.46v-.25c.2-.05.35-.13.43-.23.08-.1.13-.24.13-.42v-8.01c0-.18-.04-.32-.12-.41-.08-.09-.23-.17-.44-.24v-.24h6.38c1.26,0,2.22.19,2.86.57.37.22.66.54.87.94.21.41.31.87.31,1.37,0,.97-.33,1.7-1,2.17-.66.48-1.68.71-3.05.71h-3.48ZM200.28,20.84h3.34c.61,0,1.04-.06,1.28-.17.35-.17.52-.48.52-.94s-.17-.77-.52-.93c-.23-.12-.66-.18-1.28-.18h-3.34v2.22Z"/>
    <path class="cls-1" d="M218.46,17.73l-1.18,2.28-.21-.11c0-.19-.06-.34-.18-.45-.33-.3-.82-.54-1.47-.73s-1.3-.29-1.97-.29c-.56,0-1.07.08-1.5.24-.63.23-.94.56-.94.99,0,.29.15.49.45.61.3.12.89.21,1.76.28l1.38.1c1.21.09,2.12.33,2.75.7.35.21.64.49.87.84.29.44.43.93.43,1.48,0,1-.45,1.78-1.35,2.36-.86.55-2.02.83-3.48.83s-2.9-.31-4.27-.94c-.09-.04-.17-.06-.24-.06-.12,0-.22.07-.32.21l-.22-.09,1.01-2.4.22.09v.07c0,.15.06.28.17.38.29.26.8.48,1.51.67.72.19,1.42.28,2.12.28.62,0,1.17-.08,1.66-.25.61-.2.91-.52.91-.96,0-.36-.21-.6-.63-.74-.28-.09-.78-.17-1.51-.24l-1.37-.11c-.74-.06-1.31-.13-1.7-.23-.39-.09-.73-.23-1.02-.41-.37-.23-.66-.55-.87-.95-.21-.4-.31-.84-.31-1.32,0-1.07.46-1.89,1.38-2.46.84-.51,1.88-.77,3.11-.77.67,0,1.29.07,1.88.22.58.15,1.27.41,2.08.78.24.11.4.17.5.17s.21-.06.36-.19l.21.11Z"/>
  </g>
</svg>