<?xml version="1.0" encoding="UTF-8"?>
<svg id="rsc_stuff" data-name="rsc stuff" xmlns="http://www.w3.org/2000/svg" viewBox="0 0 105.04 42" width="105" height="42">
  <defs>
    <style>
      .cls-1 {
        fill: #fff;
      }

      .cls-1, .cls-2 {
        stroke-width: 0px;
      }

      .cls-2 {
        fill: #bb1b1b;
      }
    </style>
  </defs>
  <g>
    <path class="cls-2" d="M21,40.5C10.25,40.5,1.5,31.75,1.5,21S10.25,1.5,21,1.5h63.04c10.75,0,19.5,8.75,19.5,19.5s-8.75,19.5-19.5,19.5H21Z"/>
    <path class="cls-1" d="M84.04,3c9.93,0,18,8.07,18,18s-8.07,18-18,18H21c-9.93,0-18-8.07-18-18S11.07,3,21,3h63.04M84.04,0H21C9.4,0,0,9.4,0,21s9.4,21,21,21h63.04c11.6,0,21-9.4,21-21S95.63,0,84.04,0h0Z"/>
  </g>
  <g>
    <path class="cls-1" d="M14.71,24.13l.02-.02c.67,0,1.28,0,1.84-.02l-.23-.39-1.81-.04c-.11-.24-.18-.44-.21-.61-.04-.14-.07-.37-.11-.66.56,0,1.06,0,1.49-.02-.05-.12-.09-.24-.12-.36l-.02-.05h-1.41c-.05-.25-.08-.62-.11-1.09v-.2h1.2c-.01-.14-.01-.28,0-.41-.52,0-.92,0-1.18-.02.04-.54.1-.96.18-1.27.21-.01.54-.02.97-.02,0-.1,0-.19.02-.27l.02-.12c-.16-.01-.37-.02-.64-.02h-.25c.08-.37.15-.62.19-.73s.12-.3.24-.55c.17-.01.41-.02.72-.02l.11-.41h-.63c.1-.33.34-.76.73-1.29h.5s.05-.12.11-.21c.06-.09.09-.16.09-.21-.04-.01-.08-.02-.14-.02s-.13,0-.2-.02c-.01-.02.1-.17.35-.44.24-.27.47-.5.67-.69.55-.47,1.04-.83,1.47-1.09.15-.1.38-.21.66-.36.29-.14.44-.21.45-.2l-.32.25c-.37.3-.71.64-1.02,1.04-.31.39-.56.81-.75,1.25-.3.68-.47,1.37-.52,2.06l-.02.32v.41c.02.46.06.78.11.95l.09.45c.11.51.24.96.39,1.34.16.38.35.76.59,1.13.3.44.61.81.92,1.12.32.3.64.58.96.82s.85.61,1.58,1.1l.2.12c.18.12.28.19.3.21l.04.04c.07.04.13.07.16.09l.13.09c.23.15.34.24.34.25v.04h-7.5c-.17-.23-.28-.41-.35-.56-.07-.15-.15-.38-.26-.71ZM18.34,28.38c.2-.49.51-.94.91-1.35s.94-.81,1.59-1.21l.36-.21h3.9l.38.21c.66.39,1.19.8,1.59,1.22.41.42.7.87.9,1.34l.04.07h-3.15v-.04s-.04-.18-.13-.4-.16-.4-.23-.53c-.25-.51-.59-.99-1.02-1.42l-.27-.27h-.11l-.27.27c-.43.43-.77.9-1.02,1.42-.06.14-.13.32-.21.54-.08.21-.13.35-.13.39v.04h-3.17l.04-.07ZM23.5,25.37s.06-.06.19-.15c.12-.09.22-.15.29-.19.02-.01.07-.04.13-.07l.05-.05s.13-.1.3-.21l.2-.12c.72-.48,1.24-.84,1.58-1.09.31-.24.63-.52.95-.84.37-.35.68-.71.92-1.09.24-.38.44-.76.6-1.15.15-.38.29-.83.39-1.34l.11-.45c.04-.18.07-.5.09-.95.01-.17,0-.41-.02-.72v-.02c-.05-.69-.22-1.38-.52-2.06-.19-.44-.44-.86-.75-1.25-.31-.39-.65-.74-1.02-1.04l-.16-.12-.16-.12s.16.05.45.2c.29.14.51.26.66.36.43.26.92.62,1.47,1.09.2.19.43.42.67.69.24.27.35.41.33.43-.02.02-.07.03-.14.03s-.13,0-.18.02c.02.07.07.17.14.3l.07.11h.48l.21.36c.25.42.42.73.52.93h-.63c.01.07.04.17.07.3l.04.11c.31,0,.55,0,.72.02l.02.04c.24.58.38,1,.41,1.25-.41,0-.7,0-.88.02-.01.07,0,.18.02.32v.07c.43,0,.75,0,.97.02l.02.09c.1.45.15.85.16,1.18-.26.01-.65.02-1.16.02l-.02.41h1.2v.36c-.02.51-.05.8-.09.88l-.02.05h-1.4l-.14.41c.35.01.84.02,1.47.02v.05c-.12.55-.23.96-.32,1.22l-1.81.04-.05.09c-.05.1-.11.2-.18.3l1.84.02c-.11.31-.19.54-.26.69-.07.15-.18.35-.33.6h-7.5v-.04Z"/>
    <path class="cls-1" d="M48.76,21.43h-6.88v4.3c0,.18.04.31.13.41.08.1.23.17.43.22v.28h-3.72v-.28c.21-.06.36-.13.44-.23s.12-.23.12-.4v-10.11c0-.18-.04-.31-.12-.4-.08-.09-.23-.17-.44-.23v-.28h3.72v.28c-.21.05-.36.13-.44.22-.08.1-.12.23-.12.41v3.85h6.88v-3.85c0-.18-.04-.31-.12-.41-.08-.1-.23-.17-.44-.22v-.28h3.72v.28c-.21.06-.36.13-.44.23-.08.09-.12.23-.12.4v10.11c0,.18.04.31.12.4s.23.17.44.23v.28h-3.72v-.28c.2-.05.35-.13.43-.22.08-.1.13-.23.13-.41v-4.3Z"/>
    <path class="cls-1" d="M59.36,16.64c1.56,0,2.85.4,3.89,1.19,1.24.96,1.86,2.29,1.86,3.99,0,1.6-.62,2.88-1.86,3.84-1.03.79-2.32,1.19-3.88,1.19s-2.85-.4-3.88-1.19c-1.25-.96-1.87-2.26-1.87-3.92s.62-2.98,1.87-3.92c1.03-.78,2.32-1.17,3.86-1.19ZM59.37,18.49c-1.01,0-1.83.32-2.47.97-.59.61-.88,1.37-.88,2.28s.29,1.67.88,2.27c.64.65,1.46.98,2.48.98s1.83-.33,2.47-.98c.59-.6.88-1.34.88-2.23,0-.96-.29-1.74-.88-2.32-.64-.64-1.47-.96-2.48-.97Z"/>
    <path class="cls-1" d="M72.88,26.64l-3.57-6.44v5.54c0,.18.04.32.12.41.08.1.23.18.44.24v.25h-3.25v-.25c.2-.05.35-.13.43-.23s.13-.24.13-.42v-8.01c0-.18-.04-.32-.12-.42-.08-.1-.23-.17-.44-.23v-.24h4.14v.24c-.27.09-.41.25-.41.5s.1.53.3.87l2.44,4.43,2.46-4.37c.28-.46.42-.79.42-.98,0-.24-.14-.39-.43-.46v-.24h4.03v.24c-.21.06-.36.13-.44.23-.08.1-.12.23-.12.42v8c0,.18.04.32.12.42.08.1.23.18.44.23v.25h-3.46v-.25c.2-.05.35-.13.43-.23s.13-.24.13-.42v-5.55l-3.78,6.44Z"/>
    <path class="cls-1" d="M84.18,22.48v2.38h6.21c.18,0,.32-.04.42-.12.1-.08.17-.23.23-.44h.25v2.89h-.25c-.05-.2-.13-.35-.23-.43-.1-.09-.24-.13-.42-.13h-9.12v-.25c.2-.05.35-.13.43-.23s.13-.24.13-.42v-8.01c0-.18-.04-.32-.12-.41-.08-.09-.23-.17-.44-.24v-.24h8.85c.19,0,.33-.04.42-.12s.17-.23.23-.44h.24v2.89h-.24c-.06-.21-.14-.36-.23-.44s-.24-.12-.42-.12h-5.94v2.15h3.69c.18,0,.32-.04.42-.12s.18-.23.24-.44h.24v2.82h-.24c-.06-.21-.14-.35-.23-.44-.1-.08-.24-.12-.42-.12h-3.69Z"/>
  </g>
  <path class="cls-1" d="M27.95,16.53c0,.08-.05.17-.15.28l-2.07,2.02.49,2.86v.12c0,.08-.02.14-.06.2s-.1.08-.17.09c-.07,0-.15-.02-.23-.07l-2.57-1.35-2.56,1.35c-.08.05-.16.07-.24.07s-.13-.03-.17-.09-.06-.13-.06-.2c0-.03,0-.07.01-.12l.49-2.86-2.08-2.02c-.1-.1-.14-.19-.14-.28,0-.14.11-.23.32-.27l2.87-.41,1.29-2.61c.08-.16.17-.24.28-.24s.21.08.29.24l1.28,2.61,2.87.41c.22.03.33.12.33.27Z"/>
</svg>