<?xml version="1.0" encoding="UTF-8" standalone="no"?>
<svg xmlns:rdf="http://www.w3.org/1999/02/22-rdf-syntax-ns#" xmlns="http://www.w3.org/2000/svg" height="176.66mm" width="176.66mm" version="1.1" xmlns:cc="http://creativecommons.org/ns#" xmlns:dc="http://purl.org/dc/elements/1.1/" viewBox="0 0 625.94999 625.94999">
<defs>
<linearGradient id="e" x1=".02" gradientUnits="userSpaceOnUse" gradientTransform="matrix(-328.19 328.19 -328.19 -328.19 492.76 164.57)" x2="0.98">
<stop stop-color="#286c1a" offset="0"/>
<stop stop-color="#368d23" offset="1"/>
</linearGradient>
<linearGradient id="d" x1=".02" gradientUnits="userSpaceOnUse" gradientTransform="matrix(-299.24 299.24 -299.24 -299.24 674.54 329.97)" x2="0.98">
<stop stop-color="#9f1717" offset="0"/>
<stop stop-color="#d11e1e" offset="1"/>
</linearGradient>
<linearGradient id="c" x1=".02" gradientUnits="userSpaceOnUse" gradientTransform="matrix(-237.4 237.4 -237.4 -237.4 606.48 131.68)" x2="0.98">
<stop stop-color="#b7b265" offset="0"/>
<stop stop-color="#c1bc69" offset="1"/>
</linearGradient>
<linearGradient id="b" x1=".02" gradientUnits="userSpaceOnUse" gradientTransform="matrix(-318.24 318.24 -318.24 -318.24 568.62 250.38)" x2="0.98">
<stop stop-color="#032e63" offset="0"/>
<stop stop-color="#03387c" offset="1"/>
</linearGradient>
<linearGradient id="a" x1=".02" gradientUnits="userSpaceOnUse" gradientTransform="matrix(-500.76 500.76 -500.76 -500.76 751.14 250.38)" x2="0.98">
<stop stop-color="#bea41c" offset="0"/>
<stop stop-color="#fcd726" offset="1"/>
</linearGradient>
</defs>
<g transform="translate(-832.74 -187.96)">
<g transform="matrix(1.25 0 0 -1.25 832.74 813.91)">
<path d="m427.09 427.09c22.948-22.948 40.965-49.672 53.552-79.432 13.034-30.816 19.643-63.544 19.643-97.277 0-33.732-6.6093-66.461-19.643-97.277-12.59-29.76-30.6-56.481-53.55-79.429s-49.67-40.965-79.43-53.551c-30.82-13.034-63.55-19.644-97.28-19.644-33.73 0.0002-66.46 6.6095-97.28 19.644-29.76 12.586-56.48 30.603-79.428 53.551-22.947 22.948-40.965 49.669-53.552 79.429-13.034 30.82-19.643 63.55-19.643 97.28 0 33.733 6.6092 66.461 19.643 97.277 12.587 29.76 30.605 56.484 53.552 79.432 22.947 22.947 49.672 40.965 79.432 53.552 30.816 13.034 63.544 19.643 97.277 19.643 33.732 0 66.461-6.6093 97.277-19.643 29.759-12.587 56.484-30.605 79.431-53.552z" fill-rule="evenodd" stroke="#fff" stroke-miterlimit="2.6131" stroke-width=".5" fill="#fff"/>
<path d="m328.66 12.978c-25.15-8.3028-51.4-12.501-78.28-12.501-33.73-0.0002-66.46 6.609-97.28 19.643-29.76 12.587-56.481 30.604-79.428 53.552-22.948 22.947-40.966 49.668-53.552 79.428-13.034 30.82-19.644 63.55-19.644 97.28 0 26.886 4.1984 53.133 12.502 78.282l315.68-315.68z" fill-rule="evenodd" fill="url(#e)"/>
<path d="m328.66 12.978c-25.15-8.3028-51.4-12.501-78.28-12.501-33.73-0.0002-66.46 6.609-97.28 19.643-29.76 12.587-56.481 30.604-79.428 53.552-22.948 22.947-40.966 49.668-53.552 79.428-13.034 30.82-19.644 63.55-19.644 97.28 0 26.886 4.1984 53.133 12.502 78.282l315.68-315.68z" stroke="#378e42" stroke-miterlimit="2.6131" stroke-width=".5" fill="none"/>
<path d="m487.75 172.13-237.4 237.4 78.282 78.282c6.4054-2.1149 12.74-4.496 18.996-7.1419 29.759-12.587 56.484-30.605 79.431-53.552 22.948-22.948 40.965-49.672 53.552-79.432 13.034-30.816 19.643-63.544 19.643-97.277 0-26.884-4.1984-53.132-12.501-78.281" fill-rule="evenodd" fill="url(#d)"/>
<path d="m487.75 172.13-237.4 237.4 78.282 78.282c6.4054-2.1149 12.74-4.496 18.996-7.1419 29.759-12.587 56.484-30.605 79.431-53.552 22.948-22.948 40.965-49.672 53.552-79.432 13.034-30.816 19.643-63.544 19.643-97.277 0-26.884-4.1984-53.132-12.501-78.281z" stroke="#cc2026" stroke-miterlimit="2.6131" stroke-width=".5" fill="none"/>
<path d="m487.78 172.1c-2.1149-6.4057-4.496-12.74-7.1419-18.996-12.587-29.759-30.604-56.484-53.552-79.431-22.947-22.948-49.672-40.965-79.431-53.552-6.2555-2.6459-12.59-5.027-18.996-7.1416l-78.282 78.282 159.12 159.12 78.282-78.282z" fill-rule="evenodd" fill="url(#c)"/>
<path d="m487.78 172.1c-2.1149-6.4057-4.496-12.74-7.1419-18.996-12.587-29.759-30.604-56.484-53.552-79.431-22.947-22.948-49.672-40.965-79.431-53.552-6.2555-2.6459-12.59-5.027-18.996-7.1416l-78.282 78.282 159.12 159.12 78.282-78.282z" stroke="#bab566" stroke-miterlimit="2.6131" stroke-width=".5" fill="none"/>
<path d="m91.26 250.38 159.12 159.12 159.12-159.12-159.12-159.12-159.12 159.12z" fill-rule="evenodd" fill="url(#b)"/>
<path d="m91.26 250.38 159.12 159.12 159.12-159.12-159.12-159.12-159.12 159.12z" stroke="#213d79" stroke-miterlimit="2.6131" stroke-width=".5" fill="none"/>
<g>
<path d="m48.781 281.82 7.77-23.916h25.146l-20.343-14.924 7.7701-23.987-20.343 14.744-20.344-14.798 7.7709 24.05-20.344 14.915h25.146l7.7709 23.916z" fill="#fcd626"/>
<path d="m451.98 281.82 7.77-23.916h25.146l-20.343-14.924 7.7701-23.987-20.343 14.744-20.344-14.798 7.7709 24.05-20.344 14.915h25.146l7.7709 23.916z" fill="#bfa61c"/>
<path d="m250.38 80.221 7.77-23.916h25.146l-20.343-14.924 7.7701-23.987-20.343 14.744-20.344-14.798 7.7709 24.05-20.344 14.915h25.146l7.7709 23.916z" fill="#bfa61c"/>
<path d="m250.38 483.42 7.77-23.916h25.146l-20.343-14.924 7.7701-23.987-20.343 14.744-20.344-14.798 7.7709 24.05-20.344 14.915h25.146l7.7709 23.916z" fill="#fcd626"/>
<path d="m424.97 382.62 7.77-23.916h25.146l-20.343-14.924 7.77-23.987-20.343 14.744-20.344-14.798 7.7709 24.05-20.344 14.915h25.146l7.7709 23.916z" fill="#e0c221"/>
<path d="m75.79 181.02 7.7701-23.916h25.146l-20.343-14.924 7.77-23.987-20.343 14.744-20.344-14.798 7.7709 24.05-20.344 14.915h25.146l7.7709 23.916z" fill="#f7d426"/>
<path d="m351.18 456.41 7.77-23.916h25.146l-20.343-14.924 7.7701-23.987-20.343 14.744-20.344-14.798 7.7709 24.05-20.344 14.915h25.146l7.7709 23.916z" fill="#f7d426"/>
<path d="m149.58 107.23 7.77-23.916h25.146l-20.343-14.924 7.7701-23.987-20.343 14.744-20.344-14.798 7.7709 24.05-20.344 14.915h25.146l7.7709 23.916z" fill="#e0c221"/>
<path d="m75.789 382.62-7.7701-23.916h-25.146l20.343-14.924-7.77-23.987 20.343 14.744 20.344-14.798-7.7709 24.05 20.344 14.915h-25.146l-7.7709 23.916z" fill="#fcd626"/>
<path d="m424.97 181.02-7.7701-23.916h-25.146l20.343-14.924-7.7701-23.987 20.343 14.744 20.344-14.798-7.7709 24.05 20.344 14.915h-25.146l-7.7709 23.916z" fill="#bfa61c"/>
<path d="m149.58 456.41-7.77-23.916h-25.146l20.343-14.924-7.77-23.987 20.343 14.744 20.344-14.798-7.7709 24.05 20.344 14.915h-25.146l-7.7709 23.916z" fill="#fcd626"/>
<path d="m351.18 107.23-7.77-23.916h-25.146l20.343-14.924-7.77-23.987 20.343 14.744 20.344-14.798-7.7709 24.05 20.344 14.915h-25.146l-7.7709 23.916z" fill="#bfa61c"/>
</g>
<path d="m250.38 500.76c138.28 0 250.38-112.1 250.38-250.38s-112.1-250.38-250.38-250.38-250.38 112.1-250.38 250.38 112.1 250.38 250.38 250.38zm0-10.188c132.65 0 240.19-107.54 240.19-240.19s-107.54-240.19-240.19-240.19-240.19 107.54-240.19 240.19 107.54 240.19 240.19 240.19" fill-rule="evenodd" fill="url(#a)"/>
<g fill-rule="evenodd" stroke-miterlimit="2.6131" stroke-width="2.0001">
<path d="m288.15 302.05-37.773 116.26 0.0006-167.93 37.773 51.668z" stroke="#ffe300" fill="#ffe300"/>
<path d="m250.38 250.38 37.773 51.668h122.25l-160.02-51.67z" stroke="#f2cc00" fill="#f2cc00"/>
<path d="m410.4 302.05-160.02-51.67l61.123-20.884 98.897 72.553z" stroke="#d6c200" fill="#d6c200"/>
<path d="m250.38 250.38 98.9-137.49-37.78 116.61-61.12 20.88z" stroke="#bfa100" fill="#bfa100"/>
<path d="m250.38 250.38 98.896-137.49-98.897 71.676 0.0006 65.818z" stroke="#d6c200" fill="#d6c200"/>
<path d="m212.61 302.05 37.773 116.26-0.0006-167.93-37.773 51.668z" stroke="#ffeb80" fill="#ffeb80"/>
<path d="m250.38 250.38-37.773 51.668h-122.25l160.02-51.668z" stroke="#fff2a3" fill="#fff2a3"/>
<path d="m90.36 302.05 160.02-51.67-61.12-20.88-98.9 72.55z" stroke="#ffde2e" fill="#ffde2e"/>
<path d="m250.38 250.38-98.9-137.49 37.78 116.61 61.12 20.88z" stroke="#f5db00" fill="#f5db00"/>
<path d="m250.38 250.38-98.896-137.49 98.897 71.676-0.0006 65.818z" stroke="#bfa100" fill="#bfa100"/>
</g>
</g>
</g>
</svg>
