<?xml version="1.0" encoding="UTF-8"?>
<svg id="Layer_2" data-name="Layer 2" xmlns="http://www.w3.org/2000/svg" viewBox="0 0 398.41 42" width="398" height="42">
  <defs>
    <style>
      .cls-1 {
        fill: #fff;
      }

      .cls-1, .cls-2 {
        stroke-width: 0px;
      }

      .cls-2 {
        fill: #185886;
      }
    </style>
  </defs>
  <g>
    <path class="cls-2" d="M21,40.5C10.25,40.5,1.5,31.75,1.5,21S10.25,1.5,21,1.5h356.41c10.75,0,19.5,8.75,19.5,19.5s-8.75,19.5-19.5,19.5H21Z"/>
    <path class="cls-1" d="M377.41,3c9.93,0,18,8.07,18,18s-8.07,18-18,18H21c-9.93,0-18-8.07-18-18S11.07,3,21,3h356.41M377.41,0H21C9.4,0,0,9.4,0,21s9.4,21,21,21h356.41c11.6,0,21-9.4,21-21S389.01,0,377.41,0h0Z"/>
  </g>
  <g>
    <path class="cls-1" d="M32.85,25.26c.39.23.7.54.92.93.23.39.34.82.34,1.27v.09h-5.03v-.09c0-.45.11-.87.33-1.26s.53-.7.91-.93c.39-.23.81-.35,1.26-.35s.87.11,1.26.34ZM42.17,23.43c-.06.06-.1.11-.12.14-.93.93-2.03,1.56-3.29,1.88-1.23.32-2.46.32-3.69,0-1.27-.32-2.36-.95-3.29-1.88-.93-.93-1.56-2.03-1.9-3.29-.32-1.23-.32-2.46,0-3.69.33-1.27.97-2.36,1.9-3.29.05-.05.09-.09.13-.12l10.27,10.26ZM38.06,14.99c.4.14.76.35,1.08.63.43.33.77.76,1.01,1.26s.37,1.04.37,1.58c-.01.1-.06.18-.13.24-.08.07-.16.1-.25.1s-.17-.04-.25-.11c-.08-.07-.12-.15-.12-.25,0-.35-.06-.69-.19-1.02-.13-.33-.3-.63-.53-.88-.26-.32-.59-.57-.98-.75-.39-.18-.8-.27-1.22-.27-.1,0-.18-.04-.26-.12-.08-.08-.11-.17-.11-.26,0-.09.04-.17.11-.24.07-.07.15-.11.24-.12.42,0,.83.07,1.23.21ZM36.94,13.39c.6.02,1.17.14,1.73.36.56.21,1.05.51,1.49.9.54.46.96,1.03,1.26,1.69s.46,1.35.47,2.07c0,.08-.04.16-.12.23-.08.07-.16.11-.26.11s-.18-.04-.26-.12c-.08-.08-.12-.16-.12-.26-.01-.6-.15-1.17-.4-1.74-.26-.56-.61-1.04-1.07-1.43-.37-.33-.79-.59-1.27-.77-.48-.18-.97-.27-1.47-.29-.12,0-.21-.03-.27-.09-.1-.07-.14-.18-.12-.31.01-.14.07-.24.16-.3.07-.04.14-.05.21-.05h.02Z"/>
    <path class="cls-1" d="M60.55,18.46v1.27c0,1.48-.49,2.76-1.47,3.85-.98,1.09-2.2,1.71-3.65,1.86v1.32h2.56c.18,0,.33.07.45.2.12.13.19.28.2.45s-.05.32-.2.45c-.14.13-.29.2-.45.2h-6.39c-.18,0-.33-.07-.45-.2-.12-.13-.19-.28-.2-.45-.01-.17.05-.32.2-.45.14-.13.29-.2.45-.2h2.56v-1.32c-1.44-.16-2.66-.78-3.65-1.86s-1.48-2.37-1.47-3.85v-1.27c0-.18.07-.33.2-.45s.28-.19.45-.2c.17-.01.32.05.45.2.13.14.19.29.18.45v1.27c0,1.23.44,2.29,1.32,3.17.88.88,1.93,1.32,3.15,1.31s2.27-.45,3.17-1.31,1.33-1.92,1.31-3.17v-1.27c0-.18.07-.33.2-.45.13-.12.28-.19.45-.2s.32.05.45.2c.13.14.2.29.2.45ZM57.99,14.63v5.1c0,.88-.31,1.64-.93,2.26-.62.62-1.38.94-2.27.95s-1.65-.3-2.26-.95c-.61-.64-.92-1.4-.93-2.26v-5.1c0-.88.31-1.64.93-2.27.62-.63,1.37-.94,2.26-.93s1.64.32,2.27.93c.63.61.94,1.37.93,2.27Z"/>
    <path class="cls-1" d="M83.64,12.91c.52,0,.97.18,1.34.55.37.37.55.81.54,1.31v11.19c0,.51-.18.95-.54,1.31-.36.36-.81.54-1.34.55h-16.77c-.53,0-.97-.19-1.32-.55-.36-.37-.54-.81-.54-1.31v-11.19c0-.5.18-.94.54-1.31s.8-.55,1.32-.55h16.77ZM66.87,14.77v11.19h7.46v-11.19h-7.46ZM73.4,16.17v2.81c0,.12-.05.23-.14.32-.1.09-.2.14-.32.12h-4.65c-.12,0-.23-.04-.34-.12-.11-.08-.16-.19-.14-.32v-2.81c0-.12.05-.23.14-.32s.21-.14.34-.13h4.65c.12,0,.23.04.32.13.1.08.14.19.14.32ZM72.94,20.37c.12,0,.23.05.32.14.1.1.14.2.14.32s-.05.23-.14.32c-.1.1-.2.14-.32.14h-4.65c-.12,0-.23-.05-.34-.14s-.16-.2-.14-.32c.01-.12.06-.23.14-.32s.2-.14.34-.14h4.65ZM72.94,22.22c.12,0,.23.05.32.16.1.11.14.21.14.32s-.05.21-.14.32c-.1.11-.2.16-.32.14h-4.65c-.12,0-.23-.05-.34-.14-.11-.09-.16-.2-.14-.32.01-.12.06-.23.14-.32.08-.09.2-.15.34-.16h4.65ZM72.94,24.1c.12,0,.23.05.32.16.1.11.14.21.14.32s-.05.21-.14.3c-.1.1-.2.14-.32.14h-4.65c-.12,0-.23-.05-.34-.14s-.16-.2-.14-.3c.01-.11.06-.21.14-.32s.2-.16.34-.16h4.65ZM83.64,25.96v-11.19h-8.38v11.19h8.38ZM79.94,16.17v4.67c0,.12-.05.23-.14.32-.1.1-.2.14-.32.14h-2.81c-.12,0-.23-.05-.32-.14s-.14-.2-.14-.32v-4.67c0-.12.05-.23.14-.32s.2-.14.32-.13h2.81c.12,0,.23.04.32.13.1.08.14.19.14.32ZM76.66,23.17c-.12,0-.23-.05-.32-.14-.1-.09-.14-.2-.14-.32s.05-.23.14-.32c.1-.09.2-.15.32-.16h2.81c.12,0,.23.05.32.16.1.11.14.21.14.32s-.05.21-.14.32c-.1.11-.2.16-.32.14h-2.81ZM79.47,24.1c.12,0,.23.05.32.16.1.11.14.21.14.32s-.05.21-.14.3c-.1.1-.2.14-.32.14h-2.81c-.12,0-.23-.05-.32-.14s-.14-.2-.14-.3.05-.21.14-.32.2-.16.32-.16h2.81ZM81.32,16.63c-.12,0-.23-.05-.32-.14-.1-.1-.14-.2-.14-.32s.05-.23.14-.32c.1-.1.2-.14.32-.13h.95c.12,0,.23.04.32.13.1.08.14.19.14.32s-.05.24-.14.32c-.1.08-.2.13-.32.14h-.95ZM81.32,18.51c-.12,0-.23-.05-.32-.14-.1-.09-.14-.2-.14-.32s.05-.23.14-.32c.1-.09.2-.15.32-.16h.95c.12,0,.23.05.32.16.1.11.14.21.14.32s-.05.21-.14.32c-.1.11-.2.16-.32.14h-.95ZM81.32,20.37c-.12,0-.23-.05-.32-.14-.1-.1-.14-.21-.14-.34s.05-.24.14-.32c.1-.08.2-.13.32-.14h.95c.12,0,.23.05.32.14.1.1.14.2.14.32s-.05.23-.14.34c-.1.11-.2.16-.32.14h-.95ZM82.73,21.75v2.83c0,.12-.05.22-.14.3-.1.08-.2.13-.32.14h-.95c-.12,0-.23-.05-.32-.14-.1-.1-.14-.2-.14-.3v-2.83c0-.12.05-.22.14-.3.1-.08.2-.13.32-.14h.95c.12,0,.23.05.32.14.1.1.14.2.14.3Z"/>
    <path class="cls-1" d="M94.24,21.4v3.27h7.67c.17,0,.31-.04.4-.12.09-.08.17-.23.23-.44h.28v3.09h-.28c-.06-.21-.13-.36-.23-.44-.09-.08-.23-.12-.4-.12h-10.84v-.28c.21-.06.36-.13.44-.23.08-.09.12-.23.12-.41v-10.09c0-.18-.04-.32-.12-.41-.08-.09-.23-.17-.44-.23v-.28h10.63c.17,0,.31-.04.4-.12.09-.08.17-.23.23-.43h.28v3.08h-.28c-.06-.21-.13-.35-.23-.43-.09-.08-.23-.12-.4-.12h-7.46v2.83h4.84c.17,0,.31-.04.4-.12.09-.08.17-.23.23-.44h.28v3.02h-.28c-.06-.2-.13-.35-.23-.43-.09-.08-.23-.13-.4-.13h-4.84Z"/>
    <path class="cls-1" d="M114.73,17.74v5.18c0,1.18-.23,2.05-.7,2.6-.75.88-2.17,1.32-4.25,1.32-1.39,0-2.52-.21-3.37-.64-.62-.31-1.04-.75-1.27-1.32-.21-.52-.31-1.18-.31-1.97v-5.18c0-.18-.04-.32-.12-.41-.08-.09-.23-.17-.44-.24v-.24h3.46v.24c-.21.06-.36.14-.44.23-.08.1-.12.24-.12.42v4.71c0,.55.05.97.14,1.26.1.29.26.53.5.72.48.38,1.17.57,2.07.57s1.59-.19,2.07-.57c.23-.19.4-.43.49-.72.09-.29.14-.71.14-1.26v-4.71c0-.18-.04-.32-.12-.41-.08-.09-.23-.17-.44-.24v-.24h3.26v.24c-.21.06-.36.14-.44.23-.08.1-.12.24-.12.42Z"/>
    <path class="cls-1" d="M119.72,22.62v3.12c0,.18.04.32.12.41s.23.18.44.24v.25h-3.46v-.25c.2-.05.35-.13.43-.23.08-.1.13-.24.13-.42v-8.01c0-.18-.04-.32-.12-.41-.08-.09-.23-.17-.44-.24v-.24h6.42c.83,0,1.47.04,1.91.13.44.08.83.24,1.17.46.7.46,1.06,1.21,1.06,2.25,0,.79-.22,1.41-.65,1.86-.43.45-1.13.77-2.1.97l1.85,2.58c.34.48.61.8.81.97.2.17.43.28.69.33v.25h-4.12v-.25c.3-.08.46-.21.46-.39,0-.13-.09-.32-.28-.58l-1.96-2.8h-2.34ZM119.72,20.84h3.53c.54,0,.93-.06,1.19-.17.36-.16.54-.47.54-.94,0-.41-.13-.7-.38-.87s-.7-.25-1.35-.25h-3.53v2.22Z"/>
    <path class="cls-1" d="M134.4,16.64c1.56,0,2.85.4,3.89,1.19,1.24.96,1.86,2.29,1.86,3.99,0,1.6-.62,2.88-1.86,3.84-1.03.79-2.32,1.19-3.88,1.19s-2.85-.4-3.88-1.19c-1.25-.96-1.87-2.26-1.87-3.92s.62-2.98,1.87-3.92c1.03-.78,2.32-1.17,3.86-1.19ZM134.41,18.49c-1.01,0-1.83.32-2.47.97-.59.61-.88,1.37-.88,2.28s.29,1.67.88,2.27c.64.65,1.46.98,2.48.98s1.83-.33,2.47-.98c.59-.6.88-1.34.88-2.23,0-.96-.29-1.74-.88-2.33-.64-.64-1.47-.96-2.48-.97Z"/>
    <path class="cls-1" d="M144.55,22.62v3.12c0,.18.04.32.12.41s.23.18.44.24v.25h-3.46v-.25c.2-.05.35-.13.43-.23.08-.1.13-.24.13-.42v-8.01c0-.18-.04-.32-.12-.41-.08-.09-.23-.17-.44-.24v-.24h6.38c1.26,0,2.22.19,2.86.57.37.22.66.54.87.94.21.41.31.87.31,1.37,0,.97-.33,1.7-1,2.17-.66.48-1.68.71-3.05.71h-3.48ZM144.55,20.84h3.34c.61,0,1.04-.06,1.28-.17.35-.17.52-.48.52-.94s-.17-.77-.52-.93c-.23-.12-.66-.18-1.28-.18h-3.34v2.22Z"/>
    <path class="cls-1" d="M156.22,22.48v2.39h6.21c.18,0,.32-.04.42-.12.1-.08.17-.23.23-.44h.25v2.89h-.25c-.05-.2-.13-.35-.23-.43-.1-.08-.24-.13-.42-.13h-9.12v-.25c.2-.05.35-.13.43-.23.08-.1.13-.24.13-.42v-8.01c0-.18-.04-.32-.12-.41-.08-.09-.23-.17-.44-.24v-.24h8.85c.19,0,.33-.04.42-.12.1-.08.17-.23.23-.44h.24v2.89h-.24c-.06-.21-.14-.36-.23-.44s-.24-.12-.42-.12h-5.94v2.15h3.69c.18,0,.32-.04.42-.12s.18-.23.24-.44h.24v2.82h-.24c-.06-.21-.14-.35-.23-.43-.1-.08-.24-.12-.42-.12h-3.69Z"/>
    <path class="cls-1" d="M167.7,17.74v8c0,.18.04.32.12.42.08.1.23.18.44.24v.25h-3.46v-.25c.2-.05.35-.13.43-.23.08-.1.13-.24.13-.42v-8.01c0-.18-.04-.32-.12-.41-.08-.09-.23-.17-.44-.24v-.24h3.46v.24c-.21.06-.36.14-.44.23-.08.1-.12.23-.12.42Z"/>
    <path class="cls-1" d="M177.4,24.19h-4.5l-.51,1.07c-.12.26-.18.46-.18.6,0,.28.19.46.56.53v.25h-3.6v-.25c.22-.03.39-.1.49-.2.11-.1.23-.29.38-.59l3.57-7.24c.13-.27.2-.51.2-.72,0-.24-.16-.42-.49-.56v-.24h3.8v.24c-.32.13-.48.33-.48.59,0,.19.07.43.22.71l3.71,7.02c.2.38.36.63.48.74.12.11.29.19.53.24v.25h-4v-.25c.38-.06.57-.24.57-.53,0-.18-.07-.4-.22-.67l-.54-1ZM176.7,22.82l-1.6-3.15-1.53,3.15h3.13Z"/>
    <path class="cls-1" d="M185.1,20.19v5.55c0,.18.04.32.13.42s.23.18.43.24v.25h-3.25v-.25c.2-.05.35-.13.43-.23.08-.1.13-.24.13-.42v-8.01c0-.18-.04-.32-.12-.41-.08-.09-.23-.17-.44-.24v-.24h3.76v.24c-.26.06-.38.18-.38.34,0,.14.09.3.28.49l5.25,5.21v-5.39c0-.18-.04-.32-.12-.42-.08-.1-.23-.17-.44-.23v-.24h3.25v.24c-.21.06-.36.14-.44.23-.08.1-.12.23-.12.42v8c0,.18.04.32.12.42.08.1.23.18.44.24v.25h-3.51v-.25c.26-.05.38-.16.38-.32,0-.08-.04-.17-.1-.25-.07-.09-.23-.26-.48-.51l-5.2-5.12Z"/>
    <path class="cls-1" d="M207.76,26.64l-4.4-8.24v7.32c0,.18.04.32.12.41.08.09.23.17.44.23v.28h-3.5v-.28c.21-.06.36-.13.44-.23.08-.09.12-.23.12-.41v-10.1c0-.17-.04-.31-.12-.4-.08-.09-.23-.17-.44-.23v-.28h4.6v.28c-.27.07-.41.23-.41.48,0,.12.04.25.12.4l3.25,6.17,3.3-6.06c.15-.27.22-.46.22-.59,0-.24-.15-.37-.44-.4v-.28h4.51v.28c-.21.06-.36.13-.44.23-.08.09-.12.23-.12.4v10.1c0,.18.04.32.12.41.08.09.23.17.44.23v.28h-3.72v-.28c.2-.05.35-.13.43-.22.08-.1.13-.23.13-.42v-7.32l-4.65,8.24Z"/>
    <path class="cls-1" d="M220.39,22.48v2.39h6.21c.18,0,.32-.04.42-.12.1-.08.17-.23.23-.44h.25v2.89h-.25c-.05-.2-.13-.35-.23-.43-.1-.08-.24-.13-.42-.13h-9.12v-.25c.2-.05.35-.13.43-.23.08-.1.13-.24.13-.42v-8.01c0-.18-.04-.32-.12-.41-.08-.09-.23-.17-.44-.24v-.24h8.85c.19,0,.33-.04.42-.12.1-.08.17-.23.23-.44h.24v2.89h-.24c-.06-.21-.14-.36-.23-.44s-.24-.12-.42-.12h-5.94v2.15h3.69c.18,0,.32-.04.42-.12s.18-.23.24-.44h.24v2.82h-.24c-.06-.21-.14-.35-.23-.43-.1-.08-.24-.12-.42-.12h-3.69Z"/>
    <path class="cls-1" d="M229.53,25.75v-8.01c0-.18-.04-.32-.12-.41-.08-.09-.23-.17-.44-.24v-.24h5.74c1.19,0,2.14.15,2.82.45.97.42,1.66,1.11,2.09,2.08.3.68.45,1.47.45,2.37,0,1.67-.5,2.94-1.49,3.8-.45.38-.98.66-1.59.83s-1.37.26-2.28.26h-5.74v-.25c.2-.05.35-.13.43-.23.08-.1.13-.24.13-.42ZM231.88,24.86h2.5c1.15,0,1.98-.26,2.5-.79.54-.55.81-1.33.81-2.33s-.27-1.79-.81-2.33c-.27-.27-.6-.47-1-.6-.4-.12-.9-.19-1.5-.19h-2.5v6.24Z"/>
    <path class="cls-1" d="M244.47,17.74v8c0,.18.04.32.12.42.08.1.23.18.44.24v.25h-3.46v-.25c.2-.05.35-.13.43-.23.08-.1.13-.24.13-.42v-8.01c0-.18-.04-.32-.12-.41-.08-.09-.23-.17-.44-.24v-.24h3.46v.24c-.21.06-.36.14-.44.23-.08.1-.12.23-.12.42Z"/>
    <path class="cls-1" d="M254.17,24.19h-4.5l-.51,1.07c-.12.26-.18.46-.18.6,0,.28.19.46.56.53v.25h-3.6v-.25c.22-.03.39-.1.49-.2.11-.1.23-.29.38-.59l3.57-7.24c.13-.27.2-.51.2-.72,0-.24-.16-.42-.49-.56v-.24h3.8v.24c-.32.13-.48.33-.48.59,0,.19.07.43.22.71l3.71,7.02c.2.38.36.63.48.74.12.11.29.19.53.24v.25h-4v-.25c.38-.06.57-.24.57-.53,0-.18-.07-.4-.22-.67l-.54-1ZM253.46,22.82l-1.6-3.15-1.53,3.15h3.13Z"/>
    <path class="cls-1" d="M273.91,21.43h-6.88v4.3c0,.17.04.31.13.41.08.1.23.17.43.22v.28h-3.72v-.28c.21-.06.36-.13.44-.23.08-.09.12-.23.12-.4v-10.11c0-.17-.04-.31-.12-.4-.08-.09-.23-.17-.44-.23v-.28h3.72v.28c-.21.05-.36.13-.44.22-.08.1-.12.23-.12.41v3.85h6.88v-3.85c0-.17-.04-.31-.12-.41-.08-.1-.23-.17-.44-.22v-.28h3.72v.28c-.21.06-.36.13-.44.23-.08.09-.12.23-.12.4v10.11c0,.17.04.31.12.4.08.09.23.17.44.23v.28h-3.72v-.28c.2-.05.35-.13.43-.22.08-.1.13-.23.13-.41v-4.3Z"/>
    <path class="cls-1" d="M281.91,17.74v8c0,.18.04.32.12.42.08.1.23.18.44.24v.25h-3.46v-.25c.2-.05.35-.13.43-.23.08-.1.13-.24.13-.42v-8.01c0-.18-.04-.32-.12-.41-.08-.09-.23-.17-.44-.24v-.24h3.46v.24c-.21.06-.36.14-.44.23-.08.1-.12.23-.12.42Z"/>
    <path class="cls-1" d="M293.02,22.86h-2.23c-.19,0-.33.04-.42.12-.1.08-.17.23-.23.44h-.24v-2.6h.24c.06.21.14.35.23.44.1.08.24.12.42.12h4.66v.25c-.2.06-.35.14-.43.25s-.13.27-.13.47v2.06c0,.18.04.32.13.42.08.1.23.18.43.24v.2c-1.89,1.04-3.77,1.56-5.65,1.56-1.62,0-2.93-.38-3.93-1.15-.54-.42-.98-.94-1.31-1.56-.39-.73-.59-1.52-.59-2.35,0-1.15.36-2.18,1.07-3.08,1.11-1.39,2.74-2.08,4.91-2.08.95,0,2.03.21,3.25.63.48.16.77.25.85.25.1,0,.22-.05.35-.14l.21.11-1.17,2.46-.21-.1v-.05c0-.22-.22-.44-.65-.66-.8-.43-1.65-.64-2.57-.64-1.05,0-1.92.29-2.59.87-.71.61-1.07,1.42-1.07,2.45,0,.96.32,1.73.97,2.31.66.59,1.6.88,2.8.88s2.11-.21,2.89-.64v-1.5Z"/>
    <path class="cls-1" d="M305.45,22.37h-5.47v3.37c0,.18.04.32.12.42.08.1.23.18.44.24v.25h-3.46v-.25c.2-.05.35-.13.43-.23.08-.1.13-.24.13-.42v-8.01c0-.18-.04-.32-.12-.41-.08-.09-.23-.17-.44-.24v-.24h3.46v.24c-.21.06-.36.14-.44.23s-.12.23-.12.41v2.86h5.47v-2.86c0-.18-.04-.32-.12-.41-.08-.09-.23-.17-.44-.24v-.24h3.46v.24c-.21.06-.36.14-.44.23-.08.1-.12.23-.12.42v8c0,.18.04.32.12.42.08.1.23.18.44.24v.25h-3.46v-.25c.2-.05.35-.13.43-.23.08-.1.13-.24.13-.42v-3.37Z"/>
    <path class="cls-1" d="M312.96,24.86h5.48c.19,0,.33-.04.42-.12.09-.08.17-.23.24-.44h.24v2.89h-.24c-.06-.21-.14-.36-.23-.44-.1-.08-.24-.12-.42-.12h-8.38v-.25c.2-.05.35-.13.43-.23.08-.1.13-.24.13-.42v-8.01c0-.18-.04-.32-.12-.41-.08-.09-.23-.17-.44-.24v-.24h3.46v.24c-.21.06-.36.14-.44.23-.08.1-.12.24-.12.42v7.12Z"/>
    <path class="cls-1" d="M323.24,17.74v8c0,.18.04.32.12.42.08.1.23.18.44.24v.25h-3.46v-.25c.2-.05.35-.13.43-.23.08-.1.13-.24.13-.42v-8.01c0-.18-.04-.32-.12-.41-.08-.09-.23-.17-.44-.24v-.24h3.46v.24c-.21.06-.36.14-.44.23-.08.1-.12.23-.12.42Z"/>
    <path class="cls-1" d="M334.35,22.86h-2.23c-.19,0-.33.04-.42.12-.1.08-.17.23-.23.44h-.24v-2.6h.24c.06.21.14.35.23.44.1.08.24.12.42.12h4.66v.25c-.2.06-.35.14-.43.25s-.13.27-.13.47v2.06c0,.18.04.32.13.42.08.1.23.18.43.24v.2c-1.89,1.04-3.77,1.56-5.65,1.56-1.62,0-2.93-.38-3.93-1.15-.54-.42-.98-.94-1.31-1.56-.39-.73-.59-1.52-.59-2.35,0-1.15.36-2.18,1.07-3.08,1.11-1.39,2.74-2.08,4.91-2.08.95,0,2.03.21,3.25.63.48.16.77.25.85.25.1,0,.22-.05.35-.14l.21.11-1.17,2.46-.21-.1v-.05c0-.22-.22-.44-.65-.66-.8-.43-1.65-.64-2.57-.64-1.05,0-1.92.29-2.59.87-.71.61-1.07,1.42-1.07,2.45,0,.96.32,1.73.97,2.31.66.59,1.6.88,2.8.88s2.11-.21,2.89-.64v-1.5Z"/>
    <path class="cls-1" d="M346.78,22.37h-5.47v3.37c0,.18.04.32.12.42.08.1.23.18.44.24v.25h-3.46v-.25c.2-.05.35-.13.43-.23.08-.1.13-.24.13-.42v-8.01c0-.18-.04-.32-.12-.41-.08-.09-.23-.17-.44-.24v-.24h3.46v.24c-.21.06-.36.14-.44.23s-.12.23-.12.41v2.86h5.47v-2.86c0-.18-.04-.32-.12-.41-.08-.09-.23-.17-.44-.24v-.24h3.46v.24c-.21.06-.36.14-.44.23-.08.1-.12.23-.12.42v8c0,.18.04.32.12.42.08.1.23.18.44.24v.25h-3.46v-.25c.2-.05.35-.13.43-.23.08-.1.13-.24.13-.42v-3.37Z"/>
    <path class="cls-1" d="M356.8,18.62v7.12c0,.18.04.32.12.42.08.1.23.18.44.24v.25h-3.46v-.25c.2-.05.35-.13.43-.23.08-.1.13-.24.13-.42v-7.12h-2.88c-.19,0-.33.04-.42.12s-.17.23-.23.43h-.24v-2.89h.24c.05.2.13.35.22.43.1.08.24.13.42.13h8.12c.19,0,.33-.04.42-.12.1-.08.17-.23.23-.44h.24v2.89h-.24c-.06-.21-.14-.35-.23-.43s-.24-.12-.42-.12h-2.88Z"/>
    <path class="cls-1" d="M370.99,17.73l-1.18,2.28-.21-.11c0-.19-.06-.34-.18-.45-.33-.3-.82-.54-1.47-.73s-1.3-.29-1.97-.29c-.56,0-1.07.08-1.5.24-.63.23-.94.56-.94.99,0,.29.15.49.45.61.3.12.89.21,1.76.28l1.38.1c1.21.09,2.12.33,2.75.7.35.21.64.49.87.84.29.44.43.93.43,1.48,0,1-.45,1.78-1.35,2.36-.86.55-2.02.83-3.48.83s-2.9-.31-4.27-.94c-.09-.04-.17-.06-.24-.06-.12,0-.22.07-.32.21l-.22-.09,1.01-2.4.22.09v.07c0,.15.06.28.17.38.29.26.8.48,1.51.67.72.19,1.42.28,2.12.28.62,0,1.17-.08,1.66-.25.61-.2.91-.52.91-.96,0-.36-.21-.6-.63-.74-.28-.09-.78-.17-1.51-.24l-1.37-.11c-.74-.06-1.31-.13-1.7-.23-.39-.09-.73-.23-1.02-.41-.37-.23-.66-.55-.87-.95-.21-.4-.31-.84-.31-1.32,0-1.07.46-1.89,1.38-2.46.84-.51,1.88-.77,3.11-.77.67,0,1.29.07,1.88.22.58.15,1.27.41,2.08.78.24.11.4.17.5.17s.21-.06.36-.19l.21.11Z"/>
  </g>
</svg>