<?xml version="1.0" encoding="UTF-8"?>
<svg id="Layer_2" data-name="Layer 2" xmlns="http://www.w3.org/2000/svg" xmlns:xlink="http://www.w3.org/1999/xlink" viewBox="0 0 353.22 42" width="353" height="42">
  <defs>
    <style>
      .cls-1 {
        fill: url(#linear-gradient);
      }

      .cls-1, .cls-2 {
        stroke-width: 0px;
      }

      .cls-2 {
        fill: #fff;
      }
    </style>
    <linearGradient id="linear-gradient" x1="1.5" y1="21" x2="351.72" y2="21" gradientUnits="userSpaceOnUse">
      <stop offset="0" stop-color="#bb1b1b"/>
      <stop offset="1" stop-color="#185886"/>
    </linearGradient>
  </defs>
  <g>
    <path class="cls-1" d="M21,40.5C10.25,40.5,1.5,31.75,1.5,21S10.25,1.5,21,1.5h311.22c10.75,0,19.5,8.75,19.5,19.5s-8.75,19.5-19.5,19.5H21Z"/>
    <path class="cls-2" d="M332.22,3c9.93,0,18,8.07,18,18s-8.07,18-18,18H21c-9.93,0-18-8.07-18-18S11.07,3,21,3h311.22M332.22,0H21C9.4,0,0,9.4,0,21s9.4,21,21,21h311.22c11.6,0,21-9.4,21-21S343.81,0,332.22,0h0Z"/>
  </g>
  <g>
    <path class="cls-2" d="M31.61,26.1c.01.18-.04.33-.17.46s-.28.2-.47.2h-1.43c-.17,0-.32-.06-.45-.18s-.19-.26-.18-.41c-.08-1.43-.42-2.79-1.02-4.08s-1.37-2.41-2.31-3.37c-.94-.96-2.06-1.72-3.37-2.31-1.3-.58-2.66-.92-4.06-1.02-.17-.01-.31-.08-.43-.2-.12-.12-.18-.26-.18-.43v-1.43c0-.19.06-.35.19-.46s.28-.18.46-.18h.02c1.75.1,3.43.5,5.01,1.2,1.59.71,3,1.68,4.25,2.93,1.25,1.25,2.23,2.67,2.94,4.27.72,1.6,1.12,3.27,1.2,5.01ZM26.49,26.08c.01.18-.04.34-.16.47-.12.14-.28.21-.48.21h-1.34c-.17,0-.31-.05-.43-.16s-.19-.24-.2-.41c-.14-1.53-.76-2.83-1.84-3.92-1.09-1.08-2.39-1.7-3.92-1.84-.17-.01-.3-.08-.41-.2s-.16-.26-.16-.43v-1.34c0-.19.07-.35.21-.46.11-.12.25-.18.43-.18h.05c1.06.08,2.08.35,3.04.81s1.83,1.05,2.59,1.81c.76.75,1.36,1.62,1.82,2.6.45.98.72,2,.81,3.06ZM21.37,24.85c0,.54-.19.99-.55,1.36-.37.37-.82.55-1.36.55s-.99-.19-1.36-.55c-.37-.37-.55-.82-.55-1.36s.19-.99.55-1.36c.37-.37.82-.55,1.36-.55s.99.18,1.36.55c.37.37.55.82.55,1.36Z"/>
    <path class="cls-2" d="M43.11,13.98c1.26,0,2.44.23,3.53.68,1.09.46,1.94,1.07,2.56,1.86.62.79.94,1.65.95,2.58.01.93-.3,1.79-.95,2.56-.64.78-1.5,1.4-2.56,1.86-1.06.46-2.24.69-3.53.68-.57,0-1.16-.05-1.75-.16-.84.58-1.76,1.01-2.77,1.29-.25.06-.54.11-.86.16h-.04c-.07,0-.14-.03-.21-.09-.07-.06-.11-.13-.11-.21-.01-.01-.02-.03-.02-.05s0-.05.02-.07c.01-.02.02-.04.02-.05l.02-.05.07-.11.05-.05s.05-.05.04-.04l.5-.54c.06-.06.13-.16.21-.3.08-.14.17-.27.25-.38.08-.11.15-.26.2-.45-.82-.48-1.47-1.06-1.93-1.75-.47-.69-.7-1.44-.72-2.24,0-.93.32-1.79.95-2.58.63-.79,1.49-1.41,2.56-1.86,1.07-.45,2.25-.68,3.53-.68ZM43.11,15.25c-1.01,0-1.97.17-2.86.52-.9.35-1.6.82-2.11,1.42-.51.6-.78,1.23-.79,1.91,0,.54.18,1.06.54,1.58s.85.95,1.49,1.31l.97.57-.34.82c.23-.13.43-.26.61-.38l.45-.32.54.11c.51.1,1.02.14,1.52.14,1.01,0,1.97-.17,2.86-.52s1.6-.82,2.11-1.41c.51-.6.77-1.23.77-1.9s-.26-1.31-.77-1.91c-.51-.61-1.22-1.08-2.11-1.42-.9-.33-1.85-.51-2.86-.52ZM51.32,25.65c.06.17.13.32.2.45.07.13.16.26.25.38l.48.59c.11.13.19.21.23.25l.09.09.07.11.05.18s0,.03-.02.05c-.02.1-.07.17-.12.23-.06.06-.13.08-.21.07-.33-.05-.62-.1-.86-.16-1.03-.27-1.96-.7-2.79-1.29-.6.11-1.18.16-1.75.16-1.8,0-3.37-.44-4.71-1.32.38.04.67.05.88.05,1.07,0,2.1-.15,3.08-.45s1.86-.73,2.65-1.29c.82-.62,1.46-1.33,1.92-2.13.45-.8.67-1.64.66-2.52,0-.51-.08-1.02-.23-1.52.86.46,1.54,1.06,2.04,1.77.5.71.75,1.48.75,2.28s-.24,1.56-.72,2.26c-.48.71-1.12,1.29-1.93,1.76Z"/>
    <path class="cls-2" d="M77.08,12.91c.52,0,.97.19,1.34.55.37.37.55.81.54,1.31v11.19c0,.51-.18.95-.54,1.31-.36.36-.81.54-1.34.55h-16.77c-.53,0-.97-.19-1.32-.55-.36-.37-.54-.81-.54-1.31v-11.19c0-.5.18-.94.54-1.31.36-.37.8-.55,1.32-.55h16.77ZM60.31,14.77v11.19h7.46v-11.19h-7.46ZM66.84,16.17v2.81c0,.12-.05.23-.14.32-.1.1-.2.14-.32.12h-4.65c-.12,0-.23-.04-.34-.12s-.16-.19-.14-.32v-2.81c0-.12.05-.23.14-.32s.21-.14.34-.12h4.65c.12,0,.23.04.32.12.1.08.14.19.14.32ZM66.38,20.37c.12,0,.23.05.32.14.1.1.14.2.14.32s-.05.23-.14.32c-.1.1-.2.14-.32.14h-4.65c-.12,0-.23-.05-.34-.14s-.16-.2-.14-.32c.01-.12.06-.23.14-.32s.2-.14.34-.14h4.65ZM66.38,22.22c.12,0,.23.05.32.16.1.11.14.21.14.32s-.05.21-.14.32c-.1.11-.2.16-.32.14h-4.65c-.12,0-.23-.05-.34-.14-.11-.09-.16-.2-.14-.32.01-.12.06-.23.14-.32.08-.09.2-.15.34-.16h4.65ZM66.38,24.1c.12,0,.23.05.32.16.1.11.14.21.14.32s-.05.21-.14.3c-.1.1-.2.14-.32.14h-4.65c-.12,0-.23-.05-.34-.14s-.16-.2-.14-.3c.01-.11.06-.21.14-.32s.2-.16.34-.16h4.65ZM77.08,25.96v-11.19h-8.38v11.19h8.38ZM73.38,16.17v4.67c0,.12-.05.23-.14.32-.1.1-.2.14-.32.14h-2.81c-.12,0-.23-.05-.32-.14s-.14-.2-.14-.32v-4.67c0-.12.05-.23.14-.32s.2-.14.32-.12h2.81c.12,0,.23.04.32.12.1.08.14.19.14.32ZM70.1,23.17c-.12,0-.23-.05-.32-.14-.1-.09-.14-.2-.14-.32s.05-.23.14-.32c.1-.09.2-.15.32-.16h2.81c.12,0,.23.05.32.16.1.11.14.21.14.32s-.05.21-.14.32c-.1.11-.2.16-.32.14h-2.81ZM72.91,24.1c.12,0,.23.05.32.16.1.11.14.21.14.32s-.05.21-.14.3c-.1.1-.2.14-.32.14h-2.81c-.12,0-.23-.05-.32-.14s-.14-.2-.14-.3.05-.21.14-.32.2-.16.32-.16h2.81ZM74.75,16.63c-.12,0-.23-.05-.32-.14-.1-.1-.14-.2-.14-.32s.05-.23.14-.32c.1-.1.2-.14.32-.12h.95c.12,0,.23.04.32.12.1.08.14.19.14.32s-.05.24-.14.32c-.1.08-.2.13-.32.14h-.95ZM74.75,18.51c-.12,0-.23-.05-.32-.14-.1-.09-.14-.2-.14-.32s.05-.23.14-.32c.1-.09.2-.15.32-.16h.95c.12,0,.23.05.32.16.1.11.14.21.14.32s-.05.21-.14.32c-.1.11-.2.16-.32.14h-.95ZM74.75,20.37c-.12,0-.23-.05-.32-.14-.1-.1-.14-.21-.14-.34s.05-.24.14-.32c.1-.08.2-.13.32-.14h.95c.12,0,.23.05.32.14.1.1.14.2.14.32s-.05.23-.14.34c-.1.11-.2.15-.32.14h-.95ZM76.17,21.75v2.83c0,.12-.05.22-.14.3-.1.08-.2.13-.32.14h-.95c-.12,0-.23-.05-.32-.14-.1-.1-.14-.2-.14-.3v-2.83c0-.12.05-.22.14-.3.1-.08.2-.13.32-.14h.95c.12,0,.23.05.32.14.1.1.14.2.14.3Z"/>
    <path class="cls-2" d="M87.68,21.42v4.3c0,.18.04.32.13.41.08.1.23.17.43.22v.28h-3.72v-.28c.21-.06.36-.13.44-.23s.12-.23.12-.41v-10.1c0-.18-.04-.32-.12-.41-.08-.09-.23-.17-.44-.23v-.28h10.56c.17,0,.31-.04.4-.12.09-.08.17-.23.23-.44h.28v3.08h-.28c-.06-.21-.13-.36-.23-.44-.09-.08-.23-.12-.4-.12h-7.39v2.85h4.83c.18,0,.32-.04.41-.12.09-.08.17-.23.23-.43h.28v3.01h-.28c-.06-.21-.13-.35-.23-.43-.09-.08-.23-.12-.41-.12h-4.83Z"/>
    <path class="cls-2" d="M101.93,16.64c1.56,0,2.85.4,3.89,1.19,1.24.96,1.86,2.29,1.86,3.99,0,1.6-.62,2.88-1.86,3.84-1.03.79-2.32,1.19-3.88,1.19s-2.85-.4-3.88-1.19c-1.25-.96-1.87-2.26-1.87-3.92s.62-2.98,1.87-3.92c1.03-.78,2.32-1.17,3.86-1.19ZM101.94,18.49c-1.01,0-1.83.32-2.47.97-.59.61-.88,1.37-.88,2.28s.29,1.67.88,2.27c.64.65,1.46.98,2.48.98s1.83-.33,2.47-.98c.59-.6.88-1.34.88-2.23,0-.96-.29-1.74-.88-2.32-.64-.64-1.47-.96-2.48-.97Z"/>
    <path class="cls-2" d="M112.08,22.62v3.12c0,.18.04.32.12.41s.23.18.44.24v.25h-3.46v-.25c.2-.05.35-.13.43-.23s.13-.24.13-.42v-8.01c0-.18-.04-.32-.12-.41-.08-.09-.23-.17-.44-.24v-.24h6.42c.83,0,1.47.04,1.91.12.44.09.83.24,1.17.46.7.46,1.06,1.21,1.06,2.26,0,.79-.22,1.41-.65,1.86s-1.13.77-2.1.96l1.85,2.58c.34.48.61.8.81.97.2.17.43.28.69.33v.25h-4.12v-.25c.3-.08.46-.21.46-.39,0-.13-.09-.32-.28-.59l-1.96-2.8h-2.34ZM112.08,20.84h3.53c.54,0,.93-.06,1.19-.18.36-.16.54-.47.54-.94,0-.41-.13-.7-.38-.87-.25-.16-.7-.24-1.35-.24h-3.53v2.22Z"/>
    <path class="cls-2" d="M131.49,17.74v5.18c0,1.18-.23,2.05-.7,2.6-.75.88-2.17,1.32-4.25,1.32-1.39,0-2.52-.21-3.37-.64-.62-.31-1.04-.75-1.27-1.32-.21-.53-.31-1.18-.31-1.97v-5.18c0-.18-.04-.32-.12-.41-.08-.09-.23-.17-.44-.24v-.24h3.46v.24c-.21.06-.36.13-.44.23-.08.1-.12.24-.12.42v4.71c0,.55.05.97.14,1.26.1.29.26.53.5.72.48.38,1.17.57,2.07.57s1.59-.19,2.07-.57c.23-.19.4-.43.49-.72.09-.29.14-.71.14-1.26v-4.71c0-.18-.04-.32-.12-.41-.08-.09-.23-.17-.44-.24v-.24h3.26v.24c-.21.06-.36.13-.44.23-.08.1-.12.24-.12.42Z"/>
    <path class="cls-2" d="M139.84,26.64l-3.57-6.44v5.54c0,.18.04.32.12.41.08.1.23.18.44.24v.25h-3.25v-.25c.2-.05.35-.13.43-.23s.13-.24.13-.42v-8.01c0-.18-.04-.32-.12-.42-.08-.1-.23-.17-.44-.23v-.24h4.14v.24c-.27.09-.41.25-.41.5s.1.53.3.87l2.44,4.43,2.46-4.37c.28-.46.42-.79.42-.98,0-.24-.14-.39-.43-.46v-.24h4.03v.24c-.21.06-.36.13-.44.23-.08.1-.12.23-.12.42v8c0,.18.04.32.12.42.08.1.23.18.44.23v.25h-3.46v-.25c.2-.05.35-.13.43-.23s.13-.24.13-.42v-5.55l-3.78,6.44Z"/>
    <path class="cls-2" d="M160.13,24.19h-4.5l-.51,1.07c-.12.26-.18.46-.18.6,0,.28.19.46.56.53v.25h-3.6v-.25c.22-.03.39-.1.49-.2.11-.1.23-.29.38-.59l3.57-7.24c.13-.27.2-.51.2-.72,0-.24-.16-.42-.49-.56v-.24h3.8v.24c-.32.13-.48.33-.48.59,0,.19.07.43.22.71l3.71,7.02c.2.38.36.63.48.74.12.11.29.19.53.24v.25h-4v-.25c.38-.06.57-.24.57-.53,0-.18-.07-.4-.22-.67l-.54-1ZM159.43,22.82l-1.6-3.15-1.53,3.15h3.13Z"/>
    <path class="cls-2" d="M167.83,20.19v5.55c0,.18.04.32.13.42.08.1.23.18.43.23v.25h-3.25v-.25c.2-.05.35-.13.43-.23s.13-.24.13-.42v-8.01c0-.18-.04-.32-.12-.41-.08-.09-.23-.17-.44-.24v-.24h3.76v.24c-.26.06-.38.18-.38.34,0,.14.09.3.28.49l5.25,5.21v-5.39c0-.18-.04-.32-.12-.42-.08-.1-.23-.17-.44-.23v-.24h3.25v.24c-.21.06-.36.13-.44.23-.08.1-.12.23-.12.42v8c0,.18.04.32.12.42.08.1.23.18.44.24v.25h-3.51v-.25c.26-.05.38-.16.38-.32,0-.08-.04-.16-.1-.25-.07-.09-.23-.26-.48-.51l-5.2-5.12Z"/>
    <path class="cls-2" d="M179.01,25.75v-8.01c0-.18-.04-.32-.12-.41-.08-.09-.23-.17-.44-.24v-.24h5.74c1.19,0,2.14.15,2.82.45.97.42,1.66,1.11,2.09,2.08.3.68.45,1.46.45,2.37,0,1.67-.5,2.94-1.49,3.8-.45.38-.98.66-1.59.84s-1.37.26-2.28.26h-5.74v-.25c.2-.05.35-.13.43-.23s.13-.24.13-.42ZM181.35,24.86h2.5c1.15,0,1.98-.26,2.5-.79.54-.55.81-1.33.81-2.33s-.27-1.79-.81-2.33c-.27-.27-.6-.47-1-.6-.4-.12-.9-.19-1.5-.19h-2.5v6.24Z"/>
    <path class="cls-2" d="M196.29,25.72v-10.1c0-.18-.04-.32-.12-.41-.08-.09-.23-.17-.44-.23v-.28h6.66c1.46,0,2.58.17,3.36.5,1.12.48,1.95,1.28,2.48,2.39.43.88.64,1.9.64,3.07,0,2.06-.63,3.62-1.9,4.7-.53.46-1.15.78-1.86.97s-1.62.29-2.72.29h-6.66v-.28c.21-.06.36-.13.44-.23s.12-.23.12-.41ZM198.9,24.67h3.27c1.04,0,1.83-.14,2.35-.43,1.13-.61,1.69-1.8,1.69-3.58,0-1.28-.3-2.26-.91-2.95-.34-.38-.75-.65-1.23-.81s-1.11-.24-1.91-.24h-3.27v8Z"/>
    <path class="cls-2" d="M213.43,17.74v8c0,.18.04.32.12.42.08.1.23.18.44.24v.25h-3.46v-.25c.2-.05.35-.13.43-.23s.13-.24.13-.42v-8.01c0-.18-.04-.32-.12-.41-.08-.09-.23-.17-.44-.24v-.24h3.46v.24c-.21.06-.36.13-.44.23-.08.1-.12.23-.12.42Z"/>
    <path class="cls-2" d="M225.12,17.73l-1.18,2.28-.21-.12c0-.19-.06-.34-.18-.45-.33-.3-.82-.54-1.47-.73-.65-.19-1.3-.29-1.97-.29-.56,0-1.07.08-1.5.24-.63.23-.94.56-.94.99,0,.29.15.49.45.61.3.12.89.21,1.76.28l1.38.11c1.21.09,2.12.33,2.75.7.35.21.64.49.87.84.29.44.43.93.43,1.48,0,1-.45,1.78-1.35,2.36-.86.55-2.02.83-3.48.83s-2.9-.31-4.27-.94c-.09-.04-.17-.06-.24-.06-.12,0-.22.07-.32.21l-.22-.09,1.01-2.4.22.09v.07c0,.15.06.28.17.38.29.26.8.48,1.51.67.72.19,1.42.29,2.12.29.62,0,1.17-.08,1.66-.25.61-.2.91-.52.91-.96,0-.36-.21-.6-.63-.74-.28-.09-.78-.17-1.51-.24l-1.37-.11c-.74-.06-1.31-.13-1.7-.23-.39-.09-.73-.23-1.02-.41-.37-.23-.66-.55-.87-.95-.21-.4-.31-.84-.31-1.32,0-1.07.46-1.89,1.38-2.46.84-.51,1.88-.77,3.11-.77.67,0,1.29.07,1.88.22.58.15,1.27.41,2.08.78.24.11.4.17.5.17s.21-.06.36-.19l.21.12Z"/>
    <path class="cls-2" d="M236.3,23.13l1.48,2.16-.2.15c-.14-.1-.25-.15-.33-.15-.1,0-.33.11-.69.32-.8.46-1.5.79-2.12.97-.61.18-1.32.27-2.12.27-1.6,0-2.9-.38-3.91-1.14-.57-.44-1.03-.98-1.36-1.64-.36-.71-.54-1.48-.54-2.32,0-1.15.33-2.16,1-3.04,1.04-1.38,2.64-2.06,4.8-2.06.8,0,1.51.09,2.13.27.62.18,1.33.5,2.12.97.36.21.59.32.69.32.08,0,.19-.05.33-.15l.2.16-1.48,2.14-.19-.14c0-.07.01-.11.02-.13,0-.05,0-.09,0-.11,0-.28-.39-.61-1.18-.96-.75-.34-1.5-.51-2.25-.51-1.06,0-1.94.28-2.62.84-.79.63-1.18,1.43-1.18,2.42s.39,1.79,1.18,2.42c.69.55,1.57.83,2.62.83.83,0,1.65-.21,2.47-.62.64-.33.96-.61.96-.86,0-.01,0-.09-.03-.24l.19-.15Z"/>
    <path class="cls-2" d="M244.71,16.64c1.56,0,2.85.4,3.89,1.19,1.24.96,1.86,2.29,1.86,3.99,0,1.6-.62,2.88-1.86,3.84-1.03.79-2.32,1.19-3.88,1.19s-2.85-.4-3.88-1.19c-1.25-.96-1.87-2.26-1.87-3.92s.62-2.98,1.87-3.92c1.03-.78,2.32-1.17,3.86-1.19ZM244.72,18.49c-1.01,0-1.83.32-2.47.97-.59.61-.88,1.37-.88,2.28s.29,1.67.88,2.27c.64.65,1.46.98,2.48.98s1.83-.33,2.47-.98c.59-.6.88-1.34.88-2.23,0-.96-.29-1.74-.88-2.32-.64-.64-1.47-.96-2.48-.97Z"/>
    <path class="cls-2" d="M254.87,22.62v3.12c0,.18.04.32.12.41s.23.18.44.24v.25h-3.46v-.25c.2-.05.35-.13.43-.23s.13-.24.13-.42v-8.01c0-.18-.04-.32-.12-.41-.08-.09-.23-.17-.44-.24v-.24h6.42c.83,0,1.47.04,1.91.12.44.09.83.24,1.17.46.7.46,1.06,1.21,1.06,2.26,0,.79-.22,1.41-.65,1.86s-1.13.77-2.1.96l1.85,2.58c.34.48.61.8.81.97.2.17.43.28.69.33v.25h-4.12v-.25c.3-.08.46-.21.46-.39,0-.13-.09-.32-.28-.59l-1.96-2.8h-2.34ZM254.87,20.84h3.53c.54,0,.93-.06,1.19-.18.36-.16.54-.47.54-.94,0-.41-.13-.7-.38-.87-.25-.16-.7-.24-1.35-.24h-3.53v2.22Z"/>
    <path class="cls-2" d="M264.85,25.75v-8.01c0-.18-.04-.32-.12-.41-.08-.09-.23-.17-.44-.24v-.24h5.74c1.19,0,2.14.15,2.82.45.97.42,1.66,1.11,2.09,2.08.3.68.45,1.46.45,2.37,0,1.67-.5,2.94-1.49,3.8-.45.38-.98.66-1.59.84s-1.37.26-2.28.26h-5.74v-.25c.2-.05.35-.13.43-.23s.13-.24.13-.42ZM267.19,24.86h2.5c1.15,0,1.98-.26,2.5-.79.54-.55.81-1.33.81-2.33s-.27-1.79-.81-2.33c-.27-.27-.6-.47-1-.6-.4-.12-.9-.19-1.5-.19h-2.5v6.24Z"/>
    <path class="cls-2" d="M284.52,18.47v7.26c0,.18.04.32.12.41s.23.17.44.23v.28h-3.5v-.28c.21-.06.36-.13.44-.23s.12-.23.12-.41v-10.1c0-.18-.04-.31-.12-.4-.08-.09-.23-.17-.44-.23v-.28h4.06v.28c-.25.06-.38.2-.38.4,0,.14.08.29.24.46l6.58,6.84v-7.08c0-.18-.04-.31-.12-.4-.08-.09-.23-.17-.44-.23v-.28h3.5v.28c-.21.06-.36.13-.44.23-.08.09-.12.23-.12.4v10.1c0,.18.04.32.12.41s.23.17.44.23v.28h-3.76v-.28c.24-.05.37-.18.37-.38,0-.12-.14-.32-.43-.61l-6.69-6.91Z"/>
    <path class="cls-2" d="M299.84,22.48v2.38h6.21c.18,0,.32-.04.42-.12.1-.08.17-.23.23-.44h.25v2.89h-.25c-.05-.2-.13-.35-.23-.43-.1-.09-.24-.13-.42-.13h-9.12v-.25c.2-.05.35-.13.43-.23s.13-.24.13-.42v-8.01c0-.18-.04-.32-.12-.41-.08-.09-.23-.17-.44-.24v-.24h8.85c.19,0,.33-.04.42-.12s.17-.23.23-.44h.24v2.89h-.24c-.06-.21-.14-.36-.23-.44s-.24-.12-.42-.12h-5.94v2.15h3.69c.18,0,.32-.04.42-.12s.18-.23.24-.44h.24v2.82h-.24c-.06-.21-.14-.35-.23-.44-.1-.08-.24-.12-.42-.12h-3.69Z"/>
    <path class="cls-2" d="M316.39,19.84l-2.14,5.32c-.1.26-.16.48-.16.65,0,.33.19.52.58.59v.24h-3.65v-.24c.35-.09.52-.29.52-.59,0-.16-.05-.37-.16-.65l-2.59-6.68c-.2-.51-.37-.85-.5-1.03-.14-.17-.34-.29-.62-.36v-.24h3.72v.24c-.36.12-.54.3-.54.55,0,.12.06.33.17.63l1.84,4.62,1.83-4.59c.11-.27.17-.48.17-.63,0-.29-.2-.49-.59-.59v-.24h4.36v.24c-.38.12-.57.33-.57.61,0,.13.05.32.15.57l1.79,4.62,1.79-4.67c.08-.21.11-.38.11-.53,0-.16-.04-.29-.12-.38s-.23-.16-.45-.23v-.24h3.81v.24c-.29.11-.49.24-.63.4-.13.16-.3.49-.49.99l-2.62,6.68c-.09.24-.14.45-.14.63,0,.34.2.54.59.61v.24h-3.8v-.24c.37-.11.56-.32.56-.64,0-.08-.06-.28-.19-.6l-2.04-5.32Z"/>
    <path class="cls-2" d="M334.92,17.73l-1.18,2.28-.21-.12c0-.19-.06-.34-.18-.45-.33-.3-.82-.54-1.47-.73-.65-.19-1.3-.29-1.97-.29-.56,0-1.07.08-1.5.24-.63.23-.94.56-.94.99,0,.29.15.49.45.61.3.12.89.21,1.76.28l1.38.11c1.21.09,2.12.33,2.75.7.35.21.64.49.87.84.29.44.43.93.43,1.48,0,1-.45,1.78-1.35,2.36-.86.55-2.02.83-3.48.83s-2.9-.31-4.27-.94c-.09-.04-.17-.06-.24-.06-.12,0-.22.07-.32.21l-.22-.09,1.01-2.4.22.09v.07c0,.15.06.28.17.38.29.26.8.48,1.51.67.72.19,1.42.29,2.12.29.62,0,1.17-.08,1.66-.25.61-.2.91-.52.91-.96,0-.36-.21-.6-.63-.74-.28-.09-.78-.17-1.51-.24l-1.37-.11c-.74-.06-1.31-.13-1.7-.23-.39-.09-.73-.23-1.02-.41-.37-.23-.66-.55-.87-.95-.21-.4-.31-.84-.31-1.32,0-1.07.46-1.89,1.38-2.46.84-.51,1.88-.77,3.11-.77.67,0,1.29.07,1.88.22.58.15,1.27.41,2.08.78.24.11.4.17.5.17s.21-.06.36-.19l.21.12Z"/>
  </g>
</svg>