<?xml version="1.0" encoding="UTF-8"?>
<svg id="Layer_2" data-name="Layer 2" xmlns="http://www.w3.org/2000/svg" xmlns:xlink="http://www.w3.org/1999/xlink" viewBox="0 0 353.22 42" width="353" height="42">
  <defs>
    <style>
      .cls-1 {
        fill: url(#linear-gradient);
      }

      .cls-1, .cls-2 {
        stroke-width: 0px;
      }

      .cls-2 {
        fill: #fff;
      }
    </style>
    <linearGradient id="linear-gradient" x1="1.5" y1="21" x2="351.72" y2="21" gradientUnits="userSpaceOnUse">
      <stop offset="0" stop-color="#318120"/>
      <stop offset="1" stop-color="#185886"/>
    </linearGradient>
  </defs>
  <g>
    <path class="cls-1" d="M21,40.5C10.25,40.5,1.5,31.75,1.5,21S10.25,1.5,21,1.5h311.22c10.75,0,19.5,8.75,19.5,19.5s-8.75,19.5-19.5,19.5H21Z"/>
    <path class="cls-2" d="M332.22,3c9.93,0,18,8.07,18,18s-8.07,18-18,18H21c-9.93,0-18-8.07-18-18S11.07,3,21,3h311.22M332.22,0H21C9.4,0,0,9.4,0,21s9.4,21,21,21h311.22c11.6,0,21-9.4,21-21S343.81,0,332.22,0h0Z"/>
  </g>
  <g>
    <path class="cls-2" d="M31.28,16.01v.66h-12.37v-.66c0-.56.19-1.04.57-1.43.38-.39.84-.59,1.38-.59h8.45c.54,0,1,.2,1.4.59.39.39.58.87.57,1.43ZM31.28,17.4v2.56h-12.37v-2.56h12.37ZM31.28,20.68v2.56h-12.37v-2.56h12.37ZM31.28,23.94v.66c0,.56-.19,1.04-.57,1.45-.38.41-.85.6-1.4.59h-.57l-2.6,2.69v-2.69h-5.28c-.54,0-1-.2-1.38-.59s-.57-.88-.57-1.45v-.66h12.37Z"/>
    <path class="cls-2" d="M39.16,13.98c0,.23-.06.44-.18.64-.12.2-.27.35-.47.45v12.66c0,.1-.03.17-.09.23s-.14.09-.23.09h-.64c-.08,0-.16-.03-.21-.09-.06-.06-.1-.14-.11-.23v-12.66c-.19-.11-.34-.26-.45-.45-.11-.19-.17-.41-.18-.64,0-.36.12-.66.38-.91.25-.25.55-.38.9-.38s.65.12.91.38c.26.25.39.55.38.91ZM53.85,14.63v7.61c0,.26-.11.45-.34.57l-.18.09c-1.46.78-2.69,1.16-3.69,1.16-.58,0-1.11-.12-1.58-.36l-.29-.12c-.42-.23-.75-.39-.98-.48s-.54-.19-.91-.29c-.37-.09-.75-.14-1.13-.14-.68,0-1.47.14-2.36.43-.9.29-1.65.63-2.27,1.02-.11.06-.22.09-.33.09s-.22-.02-.33-.07c-.2-.13-.3-.32-.3-.55v-7.43c0-.23.1-.41.3-.54.23-.14.49-.29.79-.43.3-.14.67-.32,1.13-.52s.96-.37,1.52-.5c.56-.13,1.08-.19,1.56-.18.74,0,1.44.1,2.09.3s1.35.49,2.08.86c.25.13.55.2.9.2.81,0,1.84-.38,3.1-1.13.14-.07.24-.13.3-.16.2-.11.41-.1.62.03.21.13.31.31.31.55ZM52.58,21.86v-6.16c-1.13.61-2.15.91-3.06.91-.55,0-1.03-.11-1.45-.32-.67-.32-1.28-.57-1.84-.75s-1.15-.27-1.77-.29c-1.16,0-2.5.42-4.03,1.27v5.98c1.63-.75,3.08-1.13,4.33-1.13.36,0,.7.02,1.02.07s.65.14.98.27l.77.3c.18.07.45.2.82.39l.29.14c.29.14.62.21,1,.21.8,0,1.78-.3,2.94-.91Z"/>
    <path class="cls-2" d="M76.96,12.91c.52,0,.97.18,1.34.55.37.37.55.81.54,1.31v11.19c0,.51-.18.95-.54,1.31-.36.36-.81.54-1.34.55h-16.77c-.53,0-.97-.19-1.32-.55-.36-.37-.54-.81-.54-1.31v-11.19c0-.5.18-.94.54-1.31s.8-.55,1.32-.55h16.77ZM60.19,14.77v11.19h7.46v-11.19h-7.46ZM66.72,16.17v2.81c0,.12-.05.23-.14.32-.1.09-.2.14-.32.12h-4.65c-.12,0-.23-.04-.34-.12-.11-.08-.16-.19-.14-.32v-2.81c0-.12.05-.23.14-.32s.21-.14.34-.13h4.65c.12,0,.23.04.32.13.1.08.14.19.14.32ZM66.26,20.37c.12,0,.23.05.32.14.1.1.14.2.14.32s-.05.23-.14.32c-.1.1-.2.14-.32.14h-4.65c-.12,0-.23-.05-.34-.14s-.16-.2-.14-.32c.01-.12.06-.23.14-.32s.2-.14.34-.14h4.65ZM66.26,22.22c.12,0,.23.05.32.16.1.11.14.21.14.32s-.05.21-.14.32c-.1.11-.2.16-.32.14h-4.65c-.12,0-.23-.05-.34-.14-.11-.09-.16-.2-.14-.32.01-.12.06-.23.14-.32.08-.09.2-.15.34-.16h4.65ZM66.26,24.1c.12,0,.23.05.32.16.1.11.14.21.14.32s-.05.21-.14.3c-.1.1-.2.14-.32.14h-4.65c-.12,0-.23-.05-.34-.14s-.16-.2-.14-.3c.01-.11.06-.21.14-.32s.2-.16.34-.16h4.65ZM76.96,25.96v-11.19h-8.38v11.19h8.38ZM73.26,16.17v4.67c0,.12-.05.23-.14.32-.1.1-.2.14-.32.14h-2.81c-.12,0-.23-.05-.32-.14s-.14-.2-.14-.32v-4.67c0-.12.05-.23.14-.32s.2-.14.32-.13h2.81c.12,0,.23.04.32.13.1.08.14.19.14.32ZM69.98,23.17c-.12,0-.23-.05-.32-.14-.1-.09-.14-.2-.14-.32s.05-.23.14-.32c.1-.09.2-.15.32-.16h2.81c.12,0,.23.05.32.16.1.11.14.21.14.32s-.05.21-.14.32c-.1.11-.2.16-.32.14h-2.81ZM72.79,24.1c.12,0,.23.05.32.16.1.11.14.21.14.32s-.05.21-.14.3c-.1.1-.2.14-.32.14h-2.81c-.12,0-.23-.05-.32-.14s-.14-.2-.14-.3.05-.21.14-.32.2-.16.32-.16h2.81ZM74.63,16.63c-.12,0-.23-.05-.32-.14-.1-.1-.14-.2-.14-.32s.05-.23.14-.32c.1-.1.2-.14.32-.13h.95c.12,0,.23.04.32.13.1.08.14.19.14.32s-.05.24-.14.32c-.1.08-.2.13-.32.14h-.95ZM74.63,18.51c-.12,0-.23-.05-.32-.14-.1-.09-.14-.2-.14-.32s.05-.23.14-.32c.1-.09.2-.15.32-.16h.95c.12,0,.23.05.32.16.1.11.14.21.14.32s-.05.21-.14.32c-.1.11-.2.16-.32.14h-.95ZM74.63,20.37c-.12,0-.23-.05-.32-.14-.1-.1-.14-.21-.14-.34s.05-.24.14-.32c.1-.08.2-.13.32-.14h.95c.12,0,.23.05.32.14.1.1.14.2.14.32s-.05.23-.14.34c-.1.11-.2.16-.32.14h-.95ZM76.05,21.75v2.83c0,.12-.05.22-.14.3-.1.08-.2.13-.32.14h-.95c-.12,0-.23-.05-.32-.14-.1-.1-.14-.2-.14-.3v-2.83c0-.12.05-.22.14-.3.1-.08.2-.13.32-.14h.95c.12,0,.23.05.32.14.1.1.14.2.14.3Z"/>
    <path class="cls-2" d="M95,22.35h-2.95c-.18,0-.32.04-.41.12-.09.08-.16.23-.22.44h-.28v-2.78h.28c.06.22.13.36.22.44.09.08.23.12.41.12h5.66v.28c-.21.06-.35.13-.44.23-.08.09-.12.23-.12.41v2.45c0,.18.04.32.12.41.08.09.23.17.44.23v.22c-2.27,1.29-4.46,1.94-6.59,1.94-1.93,0-3.5-.46-4.72-1.37-1.53-1.15-2.3-2.76-2.3-4.81,0-1.91.68-3.43,2.05-4.56,1.29-1.07,3.01-1.61,5.16-1.61.68,0,1.32.06,1.93.19.6.13,1.29.34,2.06.63.4.16.68.24.85.24.12,0,.27-.07.43-.2l.25.13-1.4,2.86-.25-.13c0-.19-.03-.33-.08-.41-.05-.08-.15-.19-.31-.31-.36-.27-.88-.49-1.56-.68s-1.34-.28-1.95-.28c-1.25,0-2.28.35-3.1,1.05-.93.79-1.39,1.84-1.39,3.13s.45,2.27,1.35,3.05c.83.71,1.92,1.07,3.27,1.07.66,0,1.31-.08,1.95-.23s1.19-.36,1.66-.62v-1.63Z"/>
    <path class="cls-2" d="M106.95,24.19h-4.5l-.51,1.07c-.12.26-.18.46-.18.6,0,.28.19.46.56.53v.25h-3.6v-.25c.22-.03.39-.1.49-.2.11-.1.23-.29.38-.59l3.57-7.24c.13-.27.2-.51.2-.72,0-.24-.16-.42-.49-.56v-.24h3.8v.24c-.32.13-.48.33-.48.59,0,.19.07.43.22.71l3.71,7.02c.2.38.36.63.48.74.12.11.29.19.53.24v.25h-4v-.25c.38-.06.57-.24.57-.53,0-.18-.07-.4-.22-.67l-.54-1ZM106.24,22.82l-1.6-3.15-1.53,3.15h3.13Z"/>
    <path class="cls-2" d="M118.21,26.64l-3.57-6.44v5.54c0,.18.04.32.12.42.08.1.23.18.44.24v.25h-3.25v-.25c.2-.05.35-.13.43-.23.08-.1.13-.24.13-.42v-8.01c0-.18-.04-.32-.12-.42-.08-.1-.23-.17-.44-.23v-.24h4.14v.24c-.27.09-.41.25-.41.5s.1.53.3.87l2.44,4.43,2.46-4.37c.28-.46.42-.79.42-.98,0-.24-.14-.39-.43-.46v-.24h4.03v.24c-.21.06-.36.14-.44.23-.08.1-.12.23-.12.42v8c0,.18.04.32.12.42s.23.18.44.24v.25h-3.46v-.25c.2-.05.35-.13.43-.23.08-.1.13-.24.13-.42v-5.55l-3.78,6.44Z"/>
    <path class="cls-2" d="M129.51,22.48v2.39h6.21c.18,0,.32-.04.42-.12.1-.08.17-.23.23-.44h.25v2.89h-.25c-.05-.2-.13-.35-.23-.43-.1-.08-.24-.13-.42-.13h-9.12v-.25c.2-.05.35-.13.43-.23.08-.1.13-.24.13-.42v-8.01c0-.18-.04-.32-.12-.41-.08-.09-.23-.17-.44-.24v-.24h8.85c.19,0,.33-.04.42-.12.1-.08.17-.23.23-.44h.24v2.89h-.24c-.06-.21-.14-.36-.23-.44s-.24-.12-.42-.12h-5.94v2.15h3.69c.18,0,.32-.04.42-.12s.18-.23.24-.44h.24v2.82h-.24c-.06-.21-.14-.35-.23-.43-.1-.08-.24-.12-.42-.12h-3.69Z"/>
    <path class="cls-2" d="M147.51,17.73l-1.18,2.28-.21-.11c0-.19-.06-.34-.18-.45-.33-.3-.82-.54-1.47-.73s-1.3-.29-1.97-.29c-.56,0-1.07.08-1.5.24-.63.23-.94.56-.94.99,0,.29.15.49.45.61.3.12.89.21,1.76.28l1.38.1c1.21.09,2.12.33,2.75.7.35.21.64.49.87.84.29.44.43.93.43,1.48,0,1-.45,1.78-1.35,2.36-.86.55-2.02.83-3.48.83s-2.9-.31-4.27-.94c-.09-.04-.17-.06-.24-.06-.12,0-.22.07-.32.21l-.22-.09,1.01-2.4.22.09v.07c0,.15.06.28.17.38.29.26.8.48,1.51.67.72.19,1.42.28,2.12.28.62,0,1.17-.08,1.66-.25.61-.2.91-.52.91-.96,0-.36-.21-.6-.63-.74-.28-.09-.78-.17-1.51-.24l-1.37-.11c-.74-.06-1.31-.13-1.7-.23-.39-.09-.73-.23-1.02-.41-.37-.23-.66-.55-.87-.95-.21-.4-.31-.84-.31-1.32,0-1.07.46-1.89,1.38-2.46.84-.51,1.88-.77,3.11-.77.67,0,1.29.07,1.88.22.58.15,1.27.41,2.08.78.24.11.4.17.5.17s.21-.06.36-.19l.21.11Z"/>
    <path class="cls-2" d="M152.02,17.74v8c0,.18.04.32.12.42.08.1.23.18.44.24v.25h-3.46v-.25c.2-.05.35-.13.43-.23.08-.1.13-.24.13-.42v-8.01c0-.18-.04-.32-.12-.41-.08-.09-.23-.17-.44-.24v-.24h3.46v.24c-.21.06-.36.14-.44.23-.08.1-.12.23-.12.42Z"/>
    <path class="cls-2" d="M154.86,25.75v-8.01c0-.18-.04-.32-.12-.41-.08-.09-.23-.17-.44-.24v-.24h5.74c1.19,0,2.14.15,2.82.45.97.42,1.66,1.11,2.09,2.08.3.68.45,1.47.45,2.37,0,1.67-.5,2.94-1.49,3.8-.45.38-.98.66-1.59.83s-1.37.26-2.28.26h-5.74v-.25c.2-.05.35-.13.43-.23.08-.1.13-.24.13-.42ZM157.2,24.86h2.5c1.15,0,1.98-.26,2.5-.79.54-.55.81-1.33.81-2.33s-.27-1.79-.81-2.33c-.27-.27-.6-.47-1-.6-.4-.12-.9-.19-1.5-.19h-2.5v6.24Z"/>
    <path class="cls-2" d="M169.8,22.48v2.39h6.21c.18,0,.32-.04.42-.12.1-.08.17-.23.23-.44h.25v2.89h-.25c-.05-.2-.13-.35-.23-.43-.1-.08-.24-.13-.42-.13h-9.12v-.25c.2-.05.35-.13.43-.23.08-.1.13-.24.13-.42v-8.01c0-.18-.04-.32-.12-.41-.08-.09-.23-.17-.44-.24v-.24h8.85c.19,0,.33-.04.42-.12.1-.08.17-.23.23-.44h.24v2.89h-.24c-.06-.21-.14-.36-.23-.44s-.24-.12-.42-.12h-5.94v2.15h3.69c.18,0,.32-.04.42-.12s.18-.23.24-.44h.24v2.82h-.24c-.06-.21-.14-.35-.23-.43-.1-.08-.24-.12-.42-.12h-3.69Z"/>
    <path class="cls-2" d="M186.24,21.77v3.96c0,.17.04.31.13.41.08.1.23.17.43.22v.28h-3.72v-.28c.21-.06.36-.13.44-.23.08-.09.12-.23.12-.4v-10.1c0-.18-.04-.32-.12-.41-.08-.09-.23-.17-.44-.23v-.28h7.46c.91,0,1.63.05,2.16.16.53.1,1,.29,1.39.55.46.3.8.71,1.03,1.23.22.5.32,1.04.32,1.61,0,1.95-1.08,3.08-3.24,3.42l2.32,3.29c.41.58.71.95.9,1.12.19.17.42.26.69.28v.28h-4.31v-.28c.3-.05.44-.15.44-.32,0-.1-.14-.36-.41-.76l-2.42-3.51h-3.18ZM186.24,19.8h4.02c.59,0,1.01-.02,1.26-.05s.47-.11.67-.22c.44-.24.66-.67.66-1.29s-.22-1.05-.66-1.29c-.21-.12-.43-.19-.67-.22s-.66-.05-1.26-.05h-4.02v3.13Z"/>
    <path class="cls-2" d="M200.31,22.48v2.39h6.21c.18,0,.32-.04.42-.12.1-.08.17-.23.23-.44h.25v2.89h-.25c-.05-.2-.13-.35-.23-.43-.1-.08-.24-.13-.42-.13h-9.12v-.25c.2-.05.35-.13.43-.23.08-.1.13-.24.13-.42v-8.01c0-.18-.04-.32-.12-.41-.08-.09-.23-.17-.44-.24v-.24h8.85c.19,0,.33-.04.42-.12.1-.08.17-.23.23-.44h.24v2.89h-.24c-.06-.21-.14-.36-.23-.44s-.24-.12-.42-.12h-5.94v2.15h3.69c.18,0,.32-.04.42-.12s.18-.23.24-.44h.24v2.82h-.24c-.06-.21-.14-.35-.23-.43-.1-.08-.24-.12-.42-.12h-3.69Z"/>
    <path class="cls-2" d="M217.72,22.86h-2.23c-.19,0-.33.04-.42.12-.1.08-.17.23-.23.44h-.24v-2.6h.24c.06.21.14.35.23.44.1.08.24.12.42.12h4.66v.25c-.2.06-.35.14-.43.25s-.13.27-.13.47v2.06c0,.18.04.32.13.42.08.1.23.18.43.24v.2c-1.89,1.04-3.77,1.56-5.65,1.56-1.62,0-2.93-.38-3.93-1.15-.54-.42-.98-.94-1.31-1.56-.39-.73-.59-1.52-.59-2.35,0-1.15.36-2.18,1.07-3.08,1.11-1.39,2.74-2.08,4.91-2.08.95,0,2.03.21,3.25.63.48.16.77.25.85.25.1,0,.22-.05.35-.14l.21.11-1.17,2.46-.21-.1v-.05c0-.22-.22-.44-.65-.66-.8-.43-1.65-.64-2.57-.64-1.05,0-1.92.29-2.59.87-.71.61-1.07,1.42-1.07,2.45,0,.96.32,1.73.97,2.31.66.59,1.6.88,2.8.88s2.11-.21,2.89-.64v-1.5Z"/>
    <path class="cls-2" d="M224.68,17.74v8c0,.18.04.32.12.42.08.1.23.18.44.24v.25h-3.46v-.25c.2-.05.35-.13.43-.23.08-.1.13-.24.13-.42v-8.01c0-.18-.04-.32-.12-.41-.08-.09-.23-.17-.44-.24v-.24h3.46v.24c-.21.06-.36.14-.44.23-.08.1-.12.23-.12.42Z"/>
    <path class="cls-2" d="M232.47,16.64c1.56,0,2.85.4,3.89,1.19,1.24.96,1.86,2.29,1.86,3.99,0,1.6-.62,2.88-1.86,3.84-1.03.79-2.32,1.19-3.88,1.19s-2.85-.4-3.88-1.19c-1.25-.96-1.87-2.26-1.87-3.92s.62-2.98,1.87-3.92c1.03-.78,2.32-1.17,3.86-1.19ZM232.48,18.49c-1.01,0-1.83.32-2.47.97-.59.61-.88,1.37-.88,2.28s.29,1.67.88,2.27c.64.65,1.46.98,2.48.98s1.83-.33,2.47-.98c.59-.6.88-1.34.88-2.23,0-.96-.29-1.74-.88-2.33-.64-.64-1.47-.96-2.48-.97Z"/>
    <path class="cls-2" d="M242.41,20.19v5.55c0,.18.04.32.13.42s.23.18.43.24v.25h-3.25v-.25c.2-.05.35-.13.43-.23.08-.1.13-.24.13-.42v-8.01c0-.18-.04-.32-.12-.41-.08-.09-.23-.17-.44-.24v-.24h3.76v.24c-.26.06-.38.18-.38.34,0,.14.09.3.28.49l5.25,5.21v-5.39c0-.18-.04-.32-.12-.42-.08-.1-.23-.17-.44-.23v-.24h3.25v.24c-.21.06-.36.14-.44.23-.08.1-.12.23-.12.42v8c0,.18.04.32.12.42.08.1.23.18.44.24v.25h-3.51v-.25c.26-.05.38-.16.38-.32,0-.08-.04-.17-.1-.25-.07-.09-.23-.26-.48-.51l-5.2-5.12Z"/>
    <path class="cls-2" d="M260.45,24.19h-4.5l-.51,1.07c-.12.26-.18.46-.18.6,0,.28.19.46.56.53v.25h-3.6v-.25c.22-.03.39-.1.49-.2.11-.1.23-.29.38-.59l3.57-7.24c.13-.27.2-.51.2-.72,0-.24-.16-.42-.49-.56v-.24h3.8v.24c-.32.13-.48.33-.48.59,0,.19.07.43.22.71l3.71,7.02c.2.38.36.63.48.74.12.11.29.19.53.24v.25h-4v-.25c.38-.06.57-.24.57-.53,0-.18-.07-.4-.22-.67l-.54-1ZM259.74,22.82l-1.6-3.15-1.53,3.15h3.13Z"/>
    <path class="cls-2" d="M268.35,24.86h5.48c.19,0,.33-.04.42-.12.09-.08.17-.23.24-.44h.24v2.89h-.24c-.06-.21-.14-.36-.23-.44-.1-.08-.24-.12-.42-.12h-8.38v-.25c.2-.05.35-.13.43-.23.08-.1.13-.24.13-.42v-8.01c0-.18-.04-.32-.12-.41-.08-.09-.23-.17-.44-.24v-.24h3.46v.24c-.21.06-.36.14-.44.23-.08.1-.12.24-.12.42v7.12Z"/>
    <path class="cls-2" d="M283.37,18.47v7.25c0,.18.04.32.12.41.08.09.23.17.44.23v.28h-3.5v-.28c.21-.06.36-.13.44-.23.08-.09.12-.23.12-.41v-10.1c0-.17-.04-.31-.12-.4-.08-.09-.23-.17-.44-.23v-.28h4.06v.28c-.25.06-.38.2-.38.4,0,.14.08.29.24.46l6.58,6.84v-7.08c0-.17-.04-.31-.12-.4-.08-.09-.23-.17-.44-.23v-.28h3.5v.28c-.21.06-.36.13-.44.23-.08.09-.12.23-.12.4v10.1c0,.18.04.32.12.41.08.09.23.17.44.23v.28h-3.76v-.28c.24-.05.37-.18.37-.38,0-.12-.14-.32-.43-.61l-6.69-6.91Z"/>
    <path class="cls-2" d="M298.69,22.48v2.39h6.21c.18,0,.32-.04.42-.12.1-.08.17-.23.23-.44h.25v2.89h-.25c-.05-.2-.13-.35-.23-.43-.1-.08-.24-.13-.42-.13h-9.12v-.25c.2-.05.35-.13.43-.23.08-.1.13-.24.13-.42v-8.01c0-.18-.04-.32-.12-.41-.08-.09-.23-.17-.44-.24v-.24h8.85c.19,0,.33-.04.42-.12.1-.08.17-.23.23-.44h.24v2.89h-.24c-.06-.21-.14-.36-.23-.44s-.24-.12-.42-.12h-5.94v2.15h3.69c.18,0,.32-.04.42-.12s.18-.23.24-.44h.24v2.82h-.24c-.06-.21-.14-.35-.23-.43-.1-.08-.24-.12-.42-.12h-3.69Z"/>
    <path class="cls-2" d="M315.24,19.84l-2.14,5.32c-.1.26-.16.48-.16.65,0,.33.19.52.58.59v.24h-3.65v-.24c.35-.09.52-.29.52-.59,0-.16-.05-.37-.16-.65l-2.59-6.68c-.2-.51-.37-.85-.5-1.03-.14-.17-.34-.29-.62-.36v-.24h3.72v.24c-.36.12-.54.3-.54.55,0,.12.06.33.17.63l1.84,4.62,1.83-4.59c.11-.27.17-.48.17-.63,0-.29-.2-.49-.59-.59v-.24h4.36v.24c-.38.12-.57.33-.57.61,0,.13.05.32.15.57l1.79,4.62,1.79-4.67c.08-.2.11-.38.11-.53,0-.16-.04-.29-.12-.38-.08-.09-.23-.16-.45-.23v-.24h3.81v.24c-.29.11-.49.24-.63.4-.13.16-.3.49-.49.99l-2.62,6.68c-.09.24-.14.45-.14.63,0,.34.2.54.59.61v.24h-3.8v-.24c.37-.1.56-.32.56-.64,0-.08-.06-.28-.19-.6l-2.04-5.32Z"/>
    <path class="cls-2" d="M333.77,17.73l-1.18,2.28-.21-.11c0-.19-.06-.34-.18-.45-.33-.3-.82-.54-1.47-.73s-1.3-.29-1.97-.29c-.56,0-1.07.08-1.5.24-.63.23-.94.56-.94.99,0,.29.15.49.45.61.3.12.89.21,1.76.28l1.38.1c1.21.09,2.12.33,2.75.7.35.21.64.49.87.84.29.44.43.93.43,1.48,0,1-.45,1.78-1.35,2.36-.86.55-2.02.83-3.48.83s-2.9-.31-4.27-.94c-.09-.04-.17-.06-.24-.06-.12,0-.22.07-.32.21l-.22-.09,1.01-2.4.22.09v.07c0,.15.06.28.17.38.29.26.8.48,1.51.67.72.19,1.42.28,2.12.28.62,0,1.17-.08,1.66-.25.61-.2.91-.52.91-.96,0-.36-.21-.6-.63-.74-.28-.09-.78-.17-1.51-.24l-1.37-.11c-.74-.06-1.31-.13-1.7-.23-.39-.09-.73-.23-1.02-.41-.37-.23-.66-.55-.87-.95-.21-.4-.31-.84-.31-1.32,0-1.07.46-1.89,1.38-2.46.84-.51,1.88-.77,3.11-.77.67,0,1.29.07,1.88.22.58.15,1.27.41,2.08.78.24.11.4.17.5.17s.21-.06.36-.19l.21.11Z"/>
  </g>
</svg>