<?xml version="1.0" encoding="UTF-8"?>
<svg id="Layer_2" data-name="Layer 2" xmlns="http://www.w3.org/2000/svg" viewBox="0 0 122.24 42" width="122" height="42">
  <defs>
    <style>
      .cls-1 {
        fill: #fff;
      }

      .cls-1, .cls-2 {
        stroke-width: 0px;
      }

      .cls-2 {
        fill: #bb1b1b;
      }
    </style>
  </defs>
  <g>
    <path class="cls-2" d="M21,40.5C10.25,40.5,1.5,31.75,1.5,21S10.25,1.5,21,1.5h80.24c10.75,0,19.5,8.75,19.5,19.5s-8.75,19.5-19.5,19.5H21Z"/>
    <path class="cls-1" d="M101.24,3c9.93,0,18,8.07,18,18s-8.07,18-18,18H21c-9.93,0-18-8.07-18-18S11.07,3,21,3h80.24M101.24,0H21C9.4,0,0,9.4,0,21s9.4,21,21,21h80.24c11.6,0,21-9.4,21-21S112.84,0,101.24,0h0Z"/>
  </g>
  <g>
    <path class="cls-1" d="M35.68,18.46v1.27c0,1.48-.49,2.76-1.47,3.85-.98,1.09-2.2,1.71-3.65,1.86v1.32h2.56c.18,0,.33.07.45.2.12.13.19.28.2.45s-.05.32-.2.45c-.14.13-.29.2-.45.2h-6.39c-.18,0-.33-.07-.45-.2-.12-.13-.19-.28-.2-.45-.01-.17.05-.32.2-.45.14-.13.29-.2.45-.2h2.56v-1.32c-1.44-.16-2.66-.78-3.65-1.86s-1.48-2.37-1.47-3.85v-1.27c0-.18.07-.33.2-.45s.28-.19.45-.2c.17-.01.32.05.45.2.13.14.19.29.18.45v1.27c0,1.23.44,2.29,1.32,3.17.88.88,1.93,1.32,3.15,1.31s2.27-.45,3.17-1.31,1.33-1.92,1.31-3.17v-1.27c0-.18.07-.33.2-.45.13-.12.28-.19.45-.2s.32.05.45.2c.13.14.2.29.2.45ZM33.12,14.63v5.1c0,.88-.31,1.64-.93,2.26-.62.62-1.38.94-2.27.95s-1.65-.3-2.26-.95c-.61-.64-.92-1.4-.93-2.26v-5.1c0-.88.31-1.64.93-2.27.62-.63,1.37-.94,2.26-.93s1.64.32,2.27.93c.63.61.94,1.37.93,2.27Z"/>
    <path class="cls-1" d="M44.38,21.77v3.96c0,.17.04.31.13.41.08.1.23.17.43.22v.28h-3.72v-.28c.21-.06.36-.13.44-.23.08-.09.12-.23.12-.4v-10.1c0-.18-.04-.32-.12-.41-.08-.09-.23-.17-.44-.23v-.28h7.46c.91,0,1.63.05,2.16.16.53.1,1,.29,1.39.55.46.3.8.71,1.03,1.23.22.5.32,1.04.32,1.61,0,1.95-1.08,3.08-3.24,3.42l2.32,3.29c.41.58.71.95.9,1.12.19.17.42.26.69.28v.28h-4.31v-.28c.3-.05.44-.15.44-.32,0-.1-.14-.36-.41-.76l-2.42-3.51h-3.18ZM44.38,19.8h4.02c.59,0,1.01-.02,1.26-.05s.47-.11.67-.22c.44-.24.66-.67.66-1.29s-.22-1.05-.66-1.29c-.21-.12-.43-.19-.67-.22s-.66-.05-1.26-.05h-4.02v3.13Z"/>
    <path class="cls-1" d="M63.38,24.19h-4.5l-.51,1.07c-.12.26-.18.46-.18.6,0,.28.19.46.56.53v.25h-3.6v-.25c.22-.03.39-.1.49-.2.11-.1.23-.29.38-.59l3.57-7.24c.13-.27.2-.51.2-.72,0-.24-.16-.42-.49-.56v-.24h3.8v.24c-.32.13-.48.33-.48.59,0,.19.07.43.22.71l3.71,7.02c.2.38.36.63.48.74.12.11.29.19.53.24v.25h-4v-.25c.38-.06.57-.24.57-.53,0-.18-.07-.4-.22-.67l-.54-1ZM62.67,22.82l-1.6-3.15-1.53,3.15h3.13Z"/>
    <path class="cls-1" d="M68.94,25.75v-8.01c0-.18-.04-.32-.12-.41-.08-.09-.23-.17-.44-.24v-.24h5.74c1.19,0,2.14.15,2.82.45.97.42,1.66,1.11,2.09,2.08.3.68.45,1.47.45,2.37,0,1.67-.5,2.94-1.49,3.8-.45.38-.98.66-1.59.83s-1.37.26-2.28.26h-5.74v-.25c.2-.05.35-.13.43-.23.08-.1.13-.24.13-.42ZM71.28,24.86h2.5c1.15,0,1.98-.26,2.5-.79.54-.55.81-1.33.81-2.33s-.27-1.79-.81-2.33c-.27-.27-.6-.47-1-.6-.4-.12-.9-.19-1.5-.19h-2.5v6.24Z"/>
    <path class="cls-1" d="M83.88,17.74v8c0,.18.04.32.12.42.08.1.23.18.44.24v.25h-3.46v-.25c.2-.05.35-.13.43-.23.08-.1.13-.24.13-.42v-8.01c0-.18-.04-.32-.12-.41-.08-.09-.23-.17-.44-.24v-.24h3.46v.24c-.21.06-.36.14-.44.23-.08.1-.12.23-.12.42Z"/>
    <path class="cls-1" d="M91.67,16.64c1.56,0,2.85.4,3.89,1.19,1.24.96,1.86,2.29,1.86,3.99,0,1.6-.62,2.88-1.86,3.84-1.03.79-2.32,1.19-3.88,1.19s-2.85-.4-3.88-1.19c-1.25-.96-1.87-2.26-1.87-3.92s.62-2.98,1.87-3.92c1.03-.78,2.32-1.17,3.86-1.19ZM91.68,18.49c-1.01,0-1.83.32-2.47.97-.59.61-.88,1.37-.88,2.28s.29,1.67.88,2.27c.64.65,1.46.98,2.48.98s1.83-.33,2.47-.98c.59-.6.88-1.34.88-2.23,0-.96-.29-1.74-.88-2.33-.64-.64-1.47-.96-2.48-.97Z"/>
  </g>
</svg>