<?xml version="1.0" encoding="UTF-8"?>
<svg id="Layer_2" data-name="Layer 2" xmlns="http://www.w3.org/2000/svg" viewBox="0 0 151.42 42" width="151" height="42">
  <defs>
    <style>
      .cls-1 {
        fill: #fff;
      }

      .cls-1, .cls-2 {
        stroke-width: 0px;
      }

      .cls-2 {
        fill: #bb1b1b;
      }
    </style>
  </defs>
  <g>
    <path class="cls-2" d="M21,40.5C10.25,40.5,1.5,31.75,1.5,21S10.25,1.5,21,1.5h109.42c10.75,0,19.5,8.75,19.5,19.5s-8.75,19.5-19.5,19.5H21Z"/>
    <path class="cls-1" d="M130.42,3c9.93,0,18,8.07,18,18s-8.07,18-18,18H21c-9.93,0-18-8.07-18-18S11.07,3,21,3h109.42M130.42,0H21C9.4,0,0,9.4,0,21h0c0,11.6,9.4,21,21,21h109.42c11.6,0,21-9.4,21-21h0c0-11.6-9.4-21-21-21h0Z"/>
  </g>
  <g>
    <path class="cls-1" d="M30.88,13.98c1.26,0,2.44.23,3.53.68,1.09.45,1.94,1.07,2.56,1.86.62.79.94,1.65.95,2.58s-.3,1.78-.95,2.56c-.64.78-1.5,1.4-2.56,1.86-1.06.46-2.24.69-3.53.68-.57,0-1.16-.05-1.75-.16-.84.58-1.76,1.01-2.77,1.29-.25.06-.54.11-.86.16h-.04c-.07,0-.14-.03-.21-.09-.07-.06-.11-.13-.11-.21-.01-.01-.02-.03-.02-.05s0-.05.02-.07.02-.04.02-.05l.02-.05.07-.11.05-.05s.05-.05.04-.04l.5-.54c.06-.06.13-.16.21-.3.08-.14.17-.27.25-.38.08-.11.15-.26.2-.45-.82-.48-1.47-1.06-1.93-1.75-.47-.69-.7-1.44-.72-2.24,0-.93.32-1.79.95-2.58.63-.79,1.49-1.41,2.56-1.86,1.07-.45,2.25-.68,3.53-.68ZM30.88,15.25c-1.01,0-1.97.17-2.86.52-.9.35-1.6.82-2.11,1.42s-.78,1.23-.79,1.92c0,.54.18,1.06.54,1.58.36.51.85.95,1.49,1.31l.97.57-.34.82c.23-.13.43-.26.61-.38l.45-.32.54.11c.51.1,1.02.14,1.52.14,1.01,0,1.97-.17,2.86-.52.9-.35,1.6-.82,2.11-1.41s.77-1.23.77-1.9-.26-1.31-.77-1.92c-.51-.61-1.22-1.08-2.11-1.42-.9-.33-1.85-.51-2.86-.52ZM39.09,25.65c.06.17.13.32.2.45.07.13.16.26.25.38l.48.59c.11.13.19.21.23.25l.09.09.07.11.05.18s0,.03-.02.05c-.02.1-.07.17-.12.23-.06.06-.13.08-.21.07-.33-.05-.62-.1-.86-.16-1.03-.27-1.96-.7-2.79-1.29-.6.11-1.18.16-1.75.16-1.8,0-3.37-.44-4.71-1.32.38.04.67.05.88.05,1.07,0,2.1-.15,3.08-.45.98-.3,1.86-.73,2.65-1.29.82-.62,1.46-1.33,1.92-2.13.45-.8.67-1.64.66-2.52,0-.51-.08-1.02-.23-1.52.86.46,1.54,1.06,2.04,1.77.5.72.75,1.48.75,2.28s-.24,1.56-.72,2.26c-.48.71-1.12,1.29-1.93,1.75Z"/>
    <path class="cls-1" d="M47.85,25.72v-10.09c0-.18-.04-.32-.12-.41-.08-.09-.23-.17-.44-.23v-.28h6.66c1.46,0,2.58.17,3.36.5,1.12.48,1.95,1.28,2.48,2.39.43.87.64,1.9.64,3.07,0,2.06-.63,3.62-1.9,4.7-.53.46-1.15.78-1.86.97s-1.62.29-2.72.29h-6.66v-.28c.21-.06.36-.13.44-.23.08-.09.12-.23.12-.41ZM50.46,24.67h3.27c1.04,0,1.83-.14,2.35-.43,1.13-.61,1.69-1.8,1.69-3.58,0-1.28-.3-2.26-.91-2.95-.34-.38-.75-.65-1.23-.81s-1.11-.24-1.91-.24h-3.27v8Z"/>
    <path class="cls-1" d="M64.98,17.74v8c0,.18.04.32.12.42.08.1.23.18.44.24v.25h-3.46v-.25c.2-.05.35-.13.43-.23.08-.1.13-.24.13-.42v-8.01c0-.18-.04-.32-.12-.41-.08-.09-.23-.17-.44-.24v-.24h3.46v.24c-.21.06-.36.14-.44.23-.08.1-.12.23-.12.42Z"/>
    <path class="cls-1" d="M76.68,17.73l-1.18,2.28-.21-.11c0-.19-.06-.34-.18-.45-.33-.3-.82-.54-1.47-.73s-1.3-.29-1.97-.29c-.56,0-1.07.08-1.5.24-.63.23-.94.56-.94.99,0,.29.15.49.45.61.3.12.89.21,1.76.28l1.38.1c1.21.09,2.12.33,2.75.7.35.21.64.49.87.84.29.44.43.93.43,1.48,0,1-.45,1.78-1.35,2.36-.86.55-2.02.83-3.48.83s-2.9-.31-4.27-.94c-.09-.04-.17-.06-.24-.06-.12,0-.22.07-.32.21l-.22-.09,1.01-2.4.22.09v.07c0,.15.06.28.17.38.29.26.8.48,1.51.67.72.19,1.42.28,2.12.28.62,0,1.17-.08,1.66-.25.61-.2.91-.52.91-.96,0-.36-.21-.6-.63-.74-.28-.09-.78-.17-1.51-.24l-1.37-.11c-.74-.06-1.31-.13-1.7-.23-.39-.09-.73-.23-1.02-.41-.37-.23-.66-.55-.87-.95-.21-.4-.31-.84-.31-1.32,0-1.07.46-1.89,1.38-2.46.84-.51,1.88-.77,3.11-.77.67,0,1.29.07,1.88.22.58.15,1.27.41,2.08.78.24.11.4.17.5.17s.21-.06.36-.19l.21.11Z"/>
    <path class="cls-1" d="M87.86,23.12l1.48,2.16-.2.15c-.14-.1-.25-.15-.33-.15-.1,0-.33.11-.69.32-.8.47-1.5.79-2.12.97s-1.32.27-2.12.27c-1.6,0-2.9-.38-3.91-1.15-.57-.44-1.03-.98-1.36-1.64-.36-.71-.54-1.48-.54-2.32,0-1.15.33-2.16,1-3.04,1.04-1.38,2.64-2.06,4.8-2.06.8,0,1.51.09,2.13.27s1.33.5,2.12.97c.36.22.59.32.69.32.08,0,.19-.05.33-.15l.2.16-1.48,2.14-.19-.14c0-.07.01-.11.02-.13,0-.05,0-.09,0-.11,0-.28-.39-.61-1.18-.97-.75-.34-1.5-.51-2.25-.51-1.06,0-1.94.28-2.62.84-.79.63-1.18,1.43-1.18,2.42s.39,1.8,1.18,2.42c.69.55,1.57.83,2.62.83.83,0,1.65-.21,2.47-.62.64-.33.96-.61.96-.86,0-.01,0-.09-.03-.25l.19-.15Z"/>
    <path class="cls-1" d="M96.27,16.64c1.56,0,2.85.4,3.89,1.19,1.24.96,1.86,2.29,1.86,3.99,0,1.6-.62,2.88-1.86,3.84-1.03.79-2.32,1.19-3.88,1.19s-2.85-.4-3.88-1.19c-1.25-.96-1.87-2.26-1.87-3.92s.62-2.98,1.87-3.92c1.03-.78,2.32-1.17,3.86-1.19ZM96.28,18.49c-1.01,0-1.83.32-2.47.97-.59.61-.88,1.37-.88,2.28s.29,1.67.88,2.27c.64.65,1.46.98,2.48.98s1.83-.33,2.47-.98c.59-.6.88-1.34.88-2.23,0-.96-.29-1.74-.88-2.33-.64-.64-1.47-.96-2.48-.97Z"/>
    <path class="cls-1" d="M106.42,22.62v3.12c0,.18.04.32.12.41s.23.18.44.24v.25h-3.46v-.25c.2-.05.35-.13.43-.23.08-.1.13-.24.13-.42v-8.01c0-.18-.04-.32-.12-.41-.08-.09-.23-.17-.44-.24v-.24h6.42c.83,0,1.47.04,1.91.13.44.08.83.24,1.17.46.7.46,1.06,1.21,1.06,2.25,0,.79-.22,1.41-.65,1.86-.43.45-1.13.77-2.1.97l1.85,2.58c.34.48.61.8.81.97.2.17.43.28.69.33v.25h-4.12v-.25c.3-.08.46-.21.46-.39,0-.13-.09-.32-.28-.58l-1.96-2.8h-2.34ZM106.42,20.84h3.53c.54,0,.93-.06,1.19-.17.36-.16.54-.47.54-.94,0-.41-.13-.7-.38-.87s-.7-.25-1.35-.25h-3.53v2.22Z"/>
    <path class="cls-1" d="M116.4,25.75v-8.01c0-.18-.04-.32-.12-.41-.08-.09-.23-.17-.44-.24v-.24h5.74c1.19,0,2.14.15,2.82.45.97.42,1.66,1.11,2.09,2.08.3.68.45,1.47.45,2.37,0,1.67-.5,2.94-1.49,3.8-.45.38-.98.66-1.59.83s-1.37.26-2.28.26h-5.74v-.25c.2-.05.35-.13.43-.23.08-.1.13-.24.13-.42ZM118.75,24.86h2.5c1.15,0,1.98-.26,2.5-.79.54-.55.81-1.33.81-2.33s-.27-1.79-.81-2.33c-.27-.27-.6-.47-1-.6-.4-.12-.9-.19-1.5-.19h-2.5v6.24Z"/>
  </g>
</svg>