<?xml version="1.0" encoding="UTF-8"?>
<svg id="Layer_2" data-name="Layer 2" xmlns="http://www.w3.org/2000/svg" viewBox="0 0 110.2 42" width="110" height="42">
  <defs>
    <style>
      .cls-1 {
        fill: #fff;
      }

      .cls-1, .cls-2 {
        stroke-width: 0px;
      }

      .cls-2 {
        fill: #bb1b1b;
      }
    </style>
  </defs>
  <g>
    <path class="cls-2" d="M21,40.5C10.25,40.5,1.5,31.75,1.5,21S10.25,1.5,21,1.5h68.2c10.75,0,19.5,8.75,19.5,19.5s-8.75,19.5-19.5,19.5H21Z"/>
    <path class="cls-1" d="M89.2,3c9.93,0,18,8.07,18,18s-8.07,18-18,18H21c-9.93,0-18-8.07-18-18S11.07,3,21,3h68.2M89.2,0H21C9.4,0,0,9.4,0,21s9.4,21,21,21h68.2c11.6,0,21-9.4,21-21S100.8,0,89.2,0h0Z"/>
  </g>
  <g>
    <path class="cls-1" d="M22.21,19.35h-2.02c.23-1.81.99-3.37,2.29-4.67s2.86-2.07,4.69-2.31v2.02c-1.27.21-2.35.78-3.26,1.68-.91.91-1.47,2-1.7,3.28ZM27.17,26.33v2.04c-1.84-.23-3.4-1-4.69-2.31-1.29-1.31-2.05-2.88-2.29-4.69h2.02c.21,1.28.78,2.37,1.7,3.28.92.91,2,1.47,3.26,1.68ZM27.17,19.35h-2.9c.19-.7.54-1.31,1.06-1.83.51-.51,1.13-.87,1.84-1.07v2.9ZM27.17,21.38v2.9c-.72-.19-1.33-.54-1.84-1.06-.51-.51-.87-1.13-1.06-1.84h2.9ZM29.19,14.4v-2.02c1.81.23,3.37.99,4.67,2.29s2.07,2.86,2.31,4.69h-2.02c-.21-1.28-.78-2.37-1.7-3.28-.92-.91-2-1.47-3.26-1.68ZM29.19,19.35v-2.9c.72.19,1.33.55,1.84,1.07.51.53.87,1.13,1.06,1.83h-2.9ZM34.15,21.38h2.02c-.25,1.83-1.02,3.39-2.31,4.69-1.29,1.3-2.85,2.07-4.67,2.31v-2.04c1.25-.21,2.34-.78,3.26-1.68.92-.91,1.49-2,1.7-3.28ZM29.19,21.38h2.9c-.19.7-.54,1.32-1.06,1.84-.51.53-1.13.88-1.84,1.06v-2.9Z"/>
    <path class="cls-1" d="M44.97,18.47v7.25c0,.18.04.32.12.41.08.09.23.17.44.23v.28h-3.5v-.28c.21-.06.36-.13.44-.23.08-.09.12-.23.12-.41v-10.1c0-.17-.04-.31-.12-.4-.08-.09-.23-.17-.44-.23v-.28h4.06v.28c-.25.06-.38.2-.38.4,0,.14.08.29.24.46l6.58,6.84v-7.08c0-.17-.04-.31-.12-.4-.08-.09-.23-.17-.44-.23v-.28h3.5v.28c-.21.06-.36.13-.44.23-.08.09-.12.23-.12.4v10.1c0,.18.04.32.12.41.08.09.23.17.44.23v.28h-3.76v-.28c.24-.05.37-.18.37-.38,0-.12-.14-.32-.43-.61l-6.69-6.91Z"/>
    <path class="cls-1" d="M64.95,24.19h-4.5l-.51,1.07c-.12.26-.18.46-.18.6,0,.28.19.46.56.53v.25h-3.6v-.25c.22-.03.39-.1.49-.2.11-.1.23-.29.38-.59l3.57-7.24c.13-.27.2-.51.2-.72,0-.24-.16-.42-.49-.56v-.24h3.8v.24c-.32.13-.48.33-.48.59,0,.19.07.43.22.71l3.71,7.02c.2.38.36.63.48.74.12.11.29.19.53.24v.25h-4v-.25c.38-.06.57-.24.57-.53,0-.18-.07-.4-.22-.67l-.54-1ZM64.24,22.82l-1.6-3.15-1.53,3.15h3.13Z"/>
    <path class="cls-1" d="M73.68,23.54l2.38-5.18c.14-.3.21-.52.21-.66,0-.29-.19-.49-.57-.6v-.24h3.78v.24c-.23.08-.4.17-.51.28-.11.11-.24.34-.4.68l-3.43,7.21c-.12.26-.18.45-.18.58,0,.29.19.48.58.55v.24h-3.84v-.24c.38-.08.57-.26.57-.55,0-.13-.06-.33-.18-.58l-3.43-7.21c-.16-.35-.3-.58-.4-.69-.1-.11-.27-.2-.51-.28v-.24h3.92v.24c-.37.12-.56.32-.56.6,0,.13.07.35.22.66l2.36,5.18Z"/>
    <path class="cls-1" d="M85.95,22.34v3.4c0,.18.04.32.12.42.08.1.23.18.44.24v.24h-3.46v-.24c.21-.06.36-.14.44-.23.08-.1.12-.24.12-.42v-3.4l-2.9-3.99c-.33-.45-.59-.76-.78-.92-.2-.17-.43-.28-.69-.34v-.24h4.41v.24c-.38.1-.57.28-.57.53,0,.13.14.38.41.77l1.42,1.97,1.39-1.97c.27-.39.41-.65.41-.78,0-.25-.19-.42-.56-.52v-.24s4.19,0,4.19,0v.24c-.27.06-.5.17-.7.34-.2.17-.46.47-.78.92l-2.9,3.99Z"/>
  </g>
</svg>