<?xml version="1.0" encoding="UTF-8"?>
<svg id="Layer_2" data-name="Layer 2" xmlns="http://www.w3.org/2000/svg" viewBox="0 0 209.75 42" width="210" height="42">
  <defs>
    <style>
      .cls-1 {
        fill: #fff;
      }

      .cls-1, .cls-2 {
        stroke-width: 0px;
      }

      .cls-2 {
        fill: #185886;
      }
    </style>
  </defs>
  <g>
    <path class="cls-2" d="M21,40.5C10.25,40.5,1.5,31.75,1.5,21S10.25,1.5,21,1.5h167.75c10.75,0,19.5,8.75,19.5,19.5s-8.75,19.5-19.5,19.5H21Z"/>
    <path class="cls-1" d="M188.75,3c9.93,0,18,8.07,18,18s-8.07,18-18,18H21c-9.93,0-18-8.07-18-18S11.07,3,21,3h167.75M188.75,0H21C9.4,0,0,9.4,0,21s9.4,21,21,21h167.75c11.6,0,21-9.4,21-21S200.35,0,188.75,0h0Z"/>
  </g>
  <g>
    <path class="cls-1" d="M32.07,12.07v16.61c0,.18-.07.33-.2.45s-.28.18-.45.2h-12.78c-.18,0-.33-.07-.45-.2-.12-.13-.19-.28-.2-.45V12.07c0-.18.07-.33.2-.45s.28-.19.45-.2h12.78c.18,0,.33.07.45.2.12.13.19.28.2.45ZM26.95,28.05h3.83v-15.36h-11.51v15.36h3.85v-2.24c0-.1.03-.17.09-.23s.14-.09.23-.09h3.19c.08,0,.16.03.23.09s.1.14.09.23v2.24ZM21.83,14.3v.63c0,.1-.03.17-.09.23-.06.06-.14.09-.23.09h-.63c-.08,0-.16-.03-.23-.09-.07-.06-.1-.14-.09-.23v-.63c0-.09.03-.17.09-.23.06-.06.14-.09.23-.09h.63c.1,0,.17.03.23.09s.09.14.09.23ZM21.83,16.86v.63c0,.08-.03.16-.09.23-.06.07-.14.1-.23.09h-.63c-.08,0-.16-.03-.23-.09-.07-.06-.1-.14-.09-.23v-.63c0-.1.03-.17.09-.23.06-.06.14-.09.23-.09h.63c.1,0,.17.03.23.09.06.06.09.14.09.23ZM21.83,19.41v.64c0,.08-.03.16-.09.23-.06.07-.14.1-.23.09h-.63c-.08,0-.16-.03-.23-.09-.07-.06-.1-.14-.09-.23v-.64c0-.08.03-.16.09-.21.06-.06.14-.09.23-.09h.63c.1,0,.17.03.23.09s.09.13.09.21ZM21.83,21.97v.64c0,.08-.03.16-.09.23s-.14.1-.23.09h-.63c-.08,0-.16-.03-.23-.09-.07-.06-.1-.14-.09-.23v-.64c0-.08.03-.16.09-.21.06-.06.14-.1.23-.11h.63c.1,0,.17.04.23.11.06.07.09.14.09.21ZM21.83,24.53v.64c0,.08-.03.16-.09.21s-.14.1-.23.11h-.63c-.08,0-.16-.04-.23-.11-.07-.07-.1-.14-.09-.21v-.64c0-.08.03-.16.09-.21.06-.06.14-.1.23-.11h.63c.1,0,.17.04.23.11s.09.14.09.21ZM24.39,14.3v.63c0,.1-.03.17-.09.23-.06.06-.14.09-.23.09h-.63c-.1,0-.17-.03-.23-.09-.06-.06-.09-.14-.09-.23v-.63c0-.09.03-.17.09-.23s.14-.09.23-.09h.63c.1,0,.17.03.23.09.06.06.09.14.09.23ZM24.39,16.86v.63c0,.08-.03.16-.09.23-.06.07-.14.1-.23.09h-.63c-.1,0-.17-.03-.23-.09-.06-.06-.09-.14-.09-.23v-.63c0-.1.03-.17.09-.23.06-.06.14-.09.23-.09h.63c.1,0,.17.03.23.09.06.06.09.14.09.23ZM24.39,19.41v.64c0,.08-.03.16-.09.23-.06.07-.14.1-.23.09h-.63c-.1,0-.17-.03-.23-.09s-.09-.14-.09-.23v-.64c0-.08.03-.16.09-.21s.14-.09.23-.09h.63c.1,0,.17.03.23.09.06.06.09.13.09.21ZM24.39,21.97v.64c0,.08-.03.16-.09.23-.06.07-.14.1-.23.09h-.63c-.1,0-.17-.03-.23-.09s-.09-.14-.09-.23v-.64c0-.08.03-.16.09-.21s.14-.1.23-.11h.63c.1,0,.17.04.23.11.06.07.09.14.09.21ZM26.95,14.3v.63c0,.1-.03.17-.09.23-.06.06-.14.09-.23.09h-.64c-.08,0-.16-.03-.21-.09-.06-.06-.09-.14-.09-.23v-.63c0-.09.03-.17.09-.23.06-.06.13-.09.21-.09h.64c.08,0,.16.03.23.09s.1.14.09.23ZM26.95,16.86v.63c0,.08-.03.16-.09.23-.06.07-.14.1-.23.09h-.64c-.08,0-.16-.03-.21-.09-.06-.06-.09-.14-.09-.23v-.63c0-.1.03-.17.09-.23.06-.06.13-.09.21-.09h.64c.08,0,.16.03.23.09.07.06.1.14.09.23ZM26.95,19.41v.64c0,.08-.03.16-.09.23-.06.07-.14.1-.23.09h-.64c-.08,0-.16-.03-.21-.09-.06-.06-.09-.14-.09-.23v-.64c0-.08.03-.16.09-.21.06-.06.13-.09.21-.09h.64c.08,0,.16.03.23.09s.1.13.09.21ZM26.95,21.97v.64c0,.08-.03.16-.09.23s-.14.1-.23.09h-.64c-.08,0-.16-.03-.21-.09-.06-.06-.09-.14-.09-.23v-.64c0-.08.03-.16.09-.21.06-.06.13-.1.21-.11h.64c.08,0,.16.04.23.11.07.07.1.14.09.21ZM29.51,14.3v.63c0,.1-.03.17-.09.23-.06.06-.14.09-.23.09h-.64c-.08,0-.16-.03-.21-.09-.06-.06-.1-.14-.11-.23v-.63c0-.09.04-.17.11-.23.07-.06.14-.09.21-.09h.64c.08,0,.16.03.23.09.07.06.1.14.09.23ZM29.51,16.86v.63c0,.08-.03.16-.09.23-.06.07-.14.1-.23.09h-.64c-.08,0-.16-.03-.21-.09-.06-.06-.1-.14-.11-.23v-.63c0-.1.04-.17.11-.23.07-.06.14-.09.21-.09h.64c.08,0,.16.03.23.09.07.06.1.14.09.23ZM29.51,19.41v.64c0,.08-.03.16-.09.23-.06.07-.14.1-.23.09h-.64c-.08,0-.16-.03-.21-.09s-.1-.14-.11-.23v-.64c0-.08.04-.16.11-.21.07-.06.14-.09.21-.09h.64c.08,0,.16.03.23.09.07.06.1.13.09.21ZM29.51,21.97v.64c0,.08-.03.16-.09.23-.06.07-.14.1-.23.09h-.64c-.08,0-.16-.03-.21-.09s-.1-.14-.11-.23v-.64c0-.08.04-.16.11-.21.07-.06.14-.1.21-.11h.64c.08,0,.16.04.23.11.07.07.1.14.09.21ZM29.51,24.53v.64c0,.08-.03.16-.09.21-.06.06-.14.1-.23.11h-.64c-.08,0-.16-.04-.21-.11s-.1-.14-.11-.21v-.64c0-.08.04-.16.11-.21.07-.06.14-.1.21-.11h.64c.08,0,.16.04.23.11.07.07.1.14.09.21Z"/>
    <path class="cls-1" d="M40.77,21.4v3.27h7.67c.17,0,.31-.04.4-.12.09-.08.17-.23.23-.44h.28v3.09h-.28c-.06-.21-.13-.36-.23-.44-.09-.08-.23-.12-.4-.12h-10.84v-.28c.21-.06.36-.13.44-.23.08-.09.12-.23.12-.41v-10.09c0-.18-.04-.32-.12-.41-.08-.09-.23-.17-.44-.23v-.28h10.63c.17,0,.31-.04.4-.12.09-.08.17-.23.23-.43h.28v3.08h-.28c-.06-.21-.13-.35-.23-.43-.09-.08-.23-.12-.4-.12h-7.46v2.83h4.84c.17,0,.31-.04.4-.12.09-.08.17-.23.23-.44h.28v3.02h-.28c-.06-.2-.13-.35-.23-.43-.09-.08-.23-.13-.4-.13h-4.84Z"/>
    <path class="cls-1" d="M57.25,26.64l-3.57-6.44v5.54c0,.18.04.32.12.42.08.1.23.18.44.24v.25h-3.25v-.25c.2-.05.35-.13.43-.23.08-.1.13-.24.13-.42v-8.01c0-.18-.04-.32-.12-.42-.08-.1-.23-.17-.44-.23v-.24h4.14v.24c-.27.09-.41.25-.41.5s.1.53.3.87l2.44,4.43,2.46-4.37c.28-.46.42-.79.42-.98,0-.24-.14-.39-.43-.46v-.24h4.03v.24c-.21.06-.36.14-.44.23-.08.1-.12.23-.12.42v8c0,.18.04.32.12.42s.23.18.44.24v.25h-3.46v-.25c.2-.05.35-.13.43-.23.08-.1.13-.24.13-.42v-5.55l-3.78,6.44Z"/>
    <path class="cls-1" d="M74.64,21.38c.48.22.84.44,1.07.66.43.42.64.99.64,1.7,0,.96-.36,1.69-1.08,2.21-.64.46-1.52.69-2.65.69h-6.97v-.25c.2-.05.35-.13.43-.23.08-.1.13-.24.13-.42v-8.01c0-.18-.04-.32-.12-.41-.08-.09-.23-.17-.44-.24v-.24h6.85c1.2,0,2.08.21,2.64.65.59.45.89,1.08.89,1.87,0,.47-.1.85-.31,1.15-.21.3-.57.58-1.08.87ZM68.55,20.52h3.56c.56,0,.96-.07,1.19-.21.23-.14.35-.39.35-.74s-.11-.59-.35-.73c-.23-.14-.63-.21-1.19-.21h-3.56v1.9ZM68.55,24.86h3.65c1.18,0,1.77-.43,1.77-1.29s-.59-1.28-1.77-1.28h-3.65v2.57Z"/>
    <path class="cls-1" d="M85.18,24.19h-4.5l-.51,1.07c-.12.26-.18.46-.18.6,0,.28.19.46.56.53v.25h-3.6v-.25c.22-.03.39-.1.49-.2.11-.1.23-.29.38-.59l3.57-7.24c.13-.27.2-.51.2-.72,0-.24-.16-.42-.49-.56v-.24h3.8v.24c-.32.13-.48.33-.48.59,0,.19.07.43.22.71l3.71,7.02c.2.38.36.63.48.74.12.11.29.19.53.24v.25h-4v-.25c.38-.06.57-.24.57-.53,0-.18-.07-.4-.22-.67l-.54-1ZM84.48,22.82l-1.6-3.15-1.53,3.15h3.13Z"/>
    <path class="cls-1" d="M99.6,17.73l-1.18,2.28-.21-.11c0-.19-.06-.34-.18-.45-.33-.3-.82-.54-1.47-.73s-1.3-.29-1.97-.29c-.56,0-1.07.08-1.5.24-.63.23-.94.56-.94.99,0,.29.15.49.45.61.3.12.89.21,1.76.28l1.38.1c1.21.09,2.12.33,2.75.7.35.21.64.49.87.84.29.44.43.93.43,1.48,0,1-.45,1.78-1.35,2.36-.86.55-2.02.83-3.48.83s-2.9-.31-4.27-.94c-.09-.04-.17-.06-.24-.06-.12,0-.22.07-.32.21l-.22-.09,1.01-2.4.22.09v.07c0,.15.06.28.17.38.29.26.8.48,1.51.67.72.19,1.42.28,2.12.28.62,0,1.17-.08,1.66-.25.61-.2.91-.52.91-.96,0-.36-.21-.6-.63-.74-.28-.09-.78-.17-1.51-.24l-1.37-.11c-.74-.06-1.31-.13-1.7-.23-.39-.09-.73-.23-1.02-.41-.37-.23-.66-.55-.87-.95-.21-.4-.31-.84-.31-1.32,0-1.07.46-1.89,1.38-2.46.84-.51,1.88-.77,3.11-.77.67,0,1.29.07,1.88.22.58.15,1.27.41,2.08.78.24.11.4.17.5.17s.21-.06.36-.19l.21.11Z"/>
    <path class="cls-1" d="M110.62,17.73l-1.18,2.28-.21-.11c0-.19-.06-.34-.18-.45-.33-.3-.82-.54-1.47-.73s-1.3-.29-1.97-.29c-.56,0-1.07.08-1.5.24-.63.23-.94.56-.94.99,0,.29.15.49.45.61.3.12.89.21,1.76.28l1.38.1c1.21.09,2.12.33,2.75.7.35.21.64.49.87.84.29.44.43.93.43,1.48,0,1-.45,1.78-1.35,2.36-.86.55-2.02.83-3.48.83s-2.9-.31-4.27-.94c-.09-.04-.17-.06-.24-.06-.12,0-.22.07-.32.21l-.22-.09,1.01-2.4.22.09v.07c0,.15.06.28.17.38.29.26.8.48,1.51.67.72.19,1.42.28,2.12.28.62,0,1.17-.08,1.66-.25.61-.2.91-.52.91-.96,0-.36-.21-.6-.63-.74-.28-.09-.78-.17-1.51-.24l-1.37-.11c-.74-.06-1.31-.13-1.7-.23-.39-.09-.73-.23-1.02-.41-.37-.23-.66-.55-.87-.95-.21-.4-.31-.84-.31-1.32,0-1.07.46-1.89,1.38-2.46.84-.51,1.88-.77,3.11-.77.67,0,1.29.07,1.88.22.58.15,1.27.41,2.08.78.24.11.4.17.5.17s.21-.06.36-.19l.21.11Z"/>
    <path class="cls-1" d="M117.9,22.34v3.4c0,.18.04.32.12.42s.23.18.44.24v.24h-3.46v-.24c.21-.06.36-.14.44-.23.08-.1.12-.24.12-.42v-3.4l-2.9-3.99c-.33-.45-.59-.76-.78-.92-.2-.17-.43-.28-.69-.34v-.24h4.41v.24c-.38.1-.57.28-.57.53,0,.13.14.38.41.77l1.42,1.97,1.39-1.97c.27-.39.41-.65.41-.78,0-.25-.19-.42-.56-.52v-.24s4.19,0,4.19,0v.24c-.27.06-.5.17-.69.34-.2.17-.46.47-.78.92l-2.9,3.99Z"/>
    <path class="cls-1" d="M130.81,21.8v3.93c0,.17.04.31.13.41.08.1.23.17.43.22v.28h-3.72v-.28c.21-.06.36-.13.44-.23.08-.09.12-.23.12-.4v-10.1c0-.18-.04-.32-.12-.41-.08-.09-.23-.17-.44-.23v-.28h7.45c.87,0,1.56.06,2.07.17.51.12.96.32,1.35.6.4.3.72.69.94,1.17.23.5.34,1.03.34,1.59,0,.8-.22,1.51-.65,2.12-.37.52-.87.89-1.48,1.11s-1.47.33-2.57.33h-4.28ZM130.81,19.83h3.98c.79,0,1.35-.08,1.67-.25.2-.11.37-.29.49-.53.13-.24.19-.51.19-.8s-.06-.55-.19-.79c-.13-.24-.29-.42-.49-.53-.31-.17-.87-.25-1.67-.25h-3.98v3.16Z"/>
    <path class="cls-1" d="M146.5,16.64c1.56,0,2.85.4,3.89,1.19,1.24.96,1.86,2.29,1.86,3.99,0,1.6-.62,2.88-1.86,3.84-1.03.79-2.32,1.19-3.88,1.19s-2.85-.4-3.88-1.19c-1.25-.96-1.87-2.26-1.87-3.92s.62-2.98,1.87-3.92c1.03-.78,2.32-1.17,3.86-1.19ZM146.51,18.49c-1.01,0-1.83.32-2.47.97-.59.61-.88,1.37-.88,2.28s.29,1.67.88,2.27c.64.65,1.46.98,2.48.98s1.83-.33,2.47-.98c.59-.6.88-1.34.88-2.23,0-.96-.29-1.74-.88-2.33-.64-.64-1.47-.96-2.48-.97Z"/>
    <path class="cls-1" d="M156.65,24.86h5.48c.19,0,.33-.04.42-.12.09-.08.17-.23.24-.44h.24v2.89h-.24c-.06-.21-.14-.36-.23-.44-.1-.08-.24-.12-.42-.12h-8.38v-.25c.2-.05.35-.13.43-.23.08-.1.13-.24.13-.42v-8.01c0-.18-.04-.32-.12-.41-.08-.09-.23-.17-.44-.24v-.24h3.46v.24c-.21.06-.36.14-.44.23-.08.1-.12.24-.12.42v7.12Z"/>
    <path class="cls-1" d="M166.93,17.74v8c0,.18.04.32.12.42.08.1.23.18.44.24v.25h-3.46v-.25c.2-.05.35-.13.43-.23.08-.1.13-.24.13-.42v-8.01c0-.18-.04-.32-.12-.41-.08-.09-.23-.17-.44-.24v-.24h3.46v.24c-.21.06-.36.14-.44.23-.08.1-.12.23-.12.42Z"/>
    <path class="cls-1" d="M178.78,23.12l1.48,2.16-.2.15c-.14-.1-.25-.15-.33-.15-.1,0-.33.11-.69.32-.8.47-1.5.79-2.12.97s-1.32.27-2.12.27c-1.6,0-2.9-.38-3.91-1.15-.57-.44-1.03-.98-1.36-1.64-.36-.71-.54-1.48-.54-2.32,0-1.15.33-2.16,1-3.04,1.04-1.38,2.64-2.06,4.8-2.06.8,0,1.51.09,2.13.27s1.33.5,2.12.97c.36.22.59.32.69.32.08,0,.19-.05.33-.15l.2.16-1.48,2.14-.19-.14c0-.07.01-.11.02-.13,0-.05,0-.09,0-.11,0-.28-.39-.61-1.18-.97-.75-.34-1.5-.51-2.25-.51-1.06,0-1.94.28-2.62.84-.79.63-1.18,1.43-1.18,2.42s.39,1.8,1.18,2.42c.69.55,1.57.83,2.62.83.83,0,1.65-.21,2.47-.62.64-.33.96-.61.96-.86,0-.01,0-.09-.03-.25l.19-.15Z"/>
    <path class="cls-1" d="M187.36,22.34v3.4c0,.18.04.32.12.42s.23.18.44.24v.24h-3.46v-.24c.21-.06.36-.14.44-.23.08-.1.12-.24.12-.42v-3.4l-2.9-3.99c-.33-.45-.59-.76-.78-.92-.2-.17-.43-.28-.69-.34v-.24h4.41v.24c-.38.1-.57.28-.57.53,0,.13.14.38.41.77l1.42,1.97,1.39-1.97c.27-.39.41-.65.41-.78,0-.25-.19-.42-.56-.52v-.24s4.19,0,4.19,0v.24c-.27.06-.5.17-.69.34-.2.17-.46.47-.78.92l-2.9,3.99Z"/>
  </g>
</svg>