<?xml version="1.0" encoding="UTF-8"?>
<svg id="Layer_2" data-name="Layer 2" xmlns="http://www.w3.org/2000/svg" viewBox="0 0 231.46 42" width="231" height="42">
  <defs>
    <style>
      .cls-1 {
        fill: #fff;
      }

      .cls-1, .cls-2 {
        stroke-width: 0px;
      }

      .cls-2 {
        fill: #185886;
      }
    </style>
  </defs>
  <g>
    <path class="cls-2" d="M21,40.5C10.25,40.5,1.5,31.75,1.5,21S10.25,1.5,21,1.5h189.46c10.75,0,19.5,8.75,19.5,19.5s-8.75,19.5-19.5,19.5H21Z"/>
    <path class="cls-1" d="M210.46,3c9.93,0,18,8.07,18,18s-8.07,18-18,18H21c-9.93,0-18-8.07-18-18S11.07,3,21,3h189.46M210.46,0H21C9.4,0,0,9.4,0,21s9.4,21,21,21h189.46c11.6,0,21-9.4,21-21S222.05,0,210.46,0h0Z"/>
  </g>
  <g>
    <path class="cls-1" d="M33.47,20.34c0,1.05-.2,2.05-.61,3.01-.41.96-.95,1.77-1.63,2.45-.68.68-1.5,1.23-2.45,1.65-.96.42-1.95.62-2.97.61s-2.02-.21-2.99-.61-1.78-.94-2.45-1.65c-.67-.7-1.21-1.52-1.63-2.45-.42-.93-.62-1.93-.61-3.01s.21-2.07.61-2.99c.39-.92.94-1.74,1.63-2.45.69-.72,1.51-1.26,2.45-1.63.94-.37,1.94-.57,2.99-.61s2.04.17,2.97.61,1.75.98,2.45,1.63,1.25,1.46,1.63,2.45c.38.99.58,1.99.61,2.99ZM21.26,23.33l7.54-7.54c-.89-.6-1.89-.9-2.99-.9-.99,0-1.9.24-2.74.72-.83.48-1.49,1.14-1.97,1.99-.48.85-.72,1.76-.73,2.74,0,1.09.3,2.08.89,2.99ZM31.23,20.34c0-1.07-.29-2.05-.86-2.94l-7.54,7.52c.91.6,1.9.9,2.97.9.74,0,1.44-.15,2.11-.45.67-.3,1.24-.69,1.72-1.16.48-.48.87-1.06,1.16-1.74s.44-1.39.43-2.13Z"/>
    <path class="cls-1" d="M49.64,20.39c1.34.51,2.01,1.45,2.01,2.81,0,1.09-.39,1.94-1.17,2.56-.4.31-.86.53-1.38.67s-1.17.21-1.94.21h-8.15v-.28c.21-.06.36-.13.44-.23.08-.09.12-.23.12-.41v-10.09c0-.18-.04-.32-.12-.41-.08-.09-.23-.17-.44-.23v-.28h8.08c.77,0,1.4.06,1.87.17.47.12.89.31,1.24.59.71.55,1.06,1.35,1.06,2.4,0,1.17-.54,2-1.62,2.52ZM42.18,19.45h4.57c.69,0,1.18-.1,1.45-.31.31-.23.46-.59.46-1.08s-.15-.86-.44-1.07c-.29-.21-.78-.32-1.48-.32h-4.57v2.78ZM42.18,24.67h4.42c.82,0,1.41-.11,1.77-.34.41-.26.62-.69.62-1.29s-.21-1.02-.62-1.28c-.36-.23-.95-.34-1.77-.34h-4.42v3.25Z"/>
    <path class="cls-1" d="M56.13,24.86h5.48c.19,0,.33-.04.42-.12.09-.08.17-.23.24-.44h.24v2.89h-.24c-.06-.21-.14-.36-.23-.44-.1-.08-.24-.12-.42-.12h-8.38v-.25c.2-.05.35-.13.43-.23.08-.1.13-.24.13-.42v-8.01c0-.18-.04-.32-.12-.41-.08-.09-.23-.17-.44-.24v-.24h3.46v.24c-.21.06-.36.14-.44.23-.08.1-.12.24-.12.42v7.12Z"/>
    <path class="cls-1" d="M69.02,16.64c1.56,0,2.85.4,3.89,1.19,1.24.96,1.86,2.29,1.86,3.99,0,1.6-.62,2.88-1.86,3.84-1.03.79-2.32,1.19-3.88,1.19s-2.85-.4-3.88-1.19c-1.25-.96-1.87-2.26-1.87-3.92s.62-2.98,1.87-3.92c1.03-.78,2.32-1.17,3.86-1.19ZM69.03,18.49c-1.01,0-1.83.32-2.47.97-.59.61-.88,1.37-.88,2.28s.29,1.67.88,2.27c.64.65,1.46.98,2.48.98s1.83-.33,2.47-.98c.59-.6.88-1.34.88-2.23,0-.96-.29-1.74-.88-2.33-.64-.64-1.47-.96-2.48-.97Z"/>
    <path class="cls-1" d="M85.84,23.12l1.48,2.16-.2.15c-.14-.1-.25-.15-.33-.15-.1,0-.33.11-.69.32-.8.47-1.5.79-2.12.97-.61.18-1.32.27-2.12.27-1.6,0-2.9-.38-3.91-1.15-.57-.44-1.03-.98-1.36-1.64-.36-.71-.54-1.48-.54-2.32,0-1.15.33-2.16,1-3.04,1.04-1.38,2.64-2.06,4.8-2.06.8,0,1.51.09,2.13.27.62.18,1.33.5,2.12.97.36.22.59.32.69.32.08,0,.19-.05.33-.15l.2.16-1.48,2.14-.19-.14c0-.07.01-.11.02-.13,0-.05,0-.09,0-.11,0-.28-.39-.61-1.18-.97-.75-.34-1.5-.51-2.25-.51-1.06,0-1.94.28-2.62.84-.79.63-1.18,1.43-1.18,2.42s.39,1.8,1.18,2.42c.69.55,1.57.83,2.62.83.83,0,1.65-.21,2.47-.62.64-.33.96-.61.96-.86,0-.01,0-.09-.03-.25l.19-.15Z"/>
    <path class="cls-1" d="M92.69,22.18l-1.39,1.13v2.43c0,.18.04.32.12.41.08.1.23.18.44.24v.25h-3.46v-.25c.2-.05.35-.13.43-.23.08-.1.13-.24.13-.42v-8.01c0-.18-.04-.32-.12-.41-.08-.09-.23-.17-.44-.24v-.24h3.46v.24c-.21.06-.36.14-.44.23-.08.1-.12.24-.12.42v3.21l3.68-2.94c.27-.22.41-.41.41-.57,0-.17-.17-.29-.51-.35v-.24h4.4v.24c-.22.04-.41.1-.56.2-.15.1-.52.4-1.11.91l-3.29,2.64,3.63,4.17c.47.54.8.89,1,1.05s.43.27.69.33v.25h-4.29v-.25c.32-.08.48-.19.48-.35,0-.06-.02-.11-.06-.17-.04-.05-.17-.21-.41-.48l-2.7-3.22Z"/>
    <path class="cls-1" d="M111.62,16.67v9.05c0,.18.04.32.12.41.08.09.23.17.44.23v.28h-3.72v-.28c.21-.06.35-.13.44-.23.08-.09.12-.23.12-.41v-9.05h-3.71c-.17,0-.31.04-.4.12-.09.08-.17.23-.23.44h-.28v-3.08h.28c.06.21.14.36.23.44.09.08.22.12.4.12h10.01c.18,0,.32-.04.41-.12.09-.08.17-.23.23-.44h.28v3.08h-.28c-.06-.21-.13-.36-.23-.44-.09-.08-.23-.12-.41-.12h-3.7Z"/>
    <path class="cls-1" d="M120.31,22.48v2.39h6.21c.18,0,.32-.04.42-.12.1-.08.17-.23.23-.44h.25v2.89h-.25c-.05-.2-.13-.35-.23-.43-.1-.08-.24-.13-.42-.13h-9.12v-.25c.2-.05.35-.13.43-.23.08-.1.13-.24.13-.42v-8.01c0-.18-.04-.32-.12-.41-.08-.09-.23-.17-.44-.24v-.24h8.85c.19,0,.33-.04.42-.12.1-.08.17-.23.23-.44h.24v2.89h-.24c-.06-.21-.14-.36-.23-.44-.1-.08-.24-.12-.42-.12h-5.94v2.15h3.69c.18,0,.32-.04.42-.12.1-.08.18-.23.24-.44h.24v2.82h-.24c-.06-.21-.14-.35-.23-.43-.1-.08-.24-.12-.42-.12h-3.69Z"/>
    <path class="cls-1" d="M131.8,24.86h5.48c.19,0,.33-.04.42-.12.09-.08.17-.23.24-.44h.24v2.89h-.24c-.06-.21-.14-.36-.23-.44-.1-.08-.24-.12-.42-.12h-8.38v-.25c.2-.05.35-.13.43-.23.08-.1.13-.24.13-.42v-8.01c0-.18-.04-.32-.12-.41-.08-.09-.23-.17-.44-.24v-.24h3.46v.24c-.21.06-.36.14-.44.23-.08.1-.12.24-.12.42v7.12Z"/>
    <path class="cls-1" d="M142.08,22.48v2.39h6.21c.18,0,.32-.04.42-.12.1-.08.17-.23.23-.44h.25v2.89h-.25c-.05-.2-.13-.35-.23-.43-.1-.08-.24-.13-.42-.13h-9.12v-.25c.2-.05.35-.13.43-.23.08-.1.13-.24.13-.42v-8.01c0-.18-.04-.32-.12-.41-.08-.09-.23-.17-.44-.24v-.24h8.85c.19,0,.33-.04.42-.12.1-.08.17-.23.23-.44h.24v2.89h-.24c-.06-.21-.13-.36-.23-.44-.1-.08-.24-.12-.42-.12h-5.94v2.15h3.69c.18,0,.32-.04.42-.12.1-.08.18-.23.24-.44h.24v2.82h-.24c-.06-.21-.13-.35-.23-.43-.1-.08-.24-.12-.42-.12h-3.69Z"/>
    <path class="cls-1" d="M159.49,22.86h-2.23c-.19,0-.33.04-.42.12-.1.08-.17.23-.23.44h-.24v-2.6h.24c.06.21.14.35.23.44.1.08.24.12.42.12h4.66v.25c-.2.06-.35.14-.43.25-.08.11-.13.27-.13.47v2.06c0,.18.04.32.13.42.08.1.23.18.43.24v.2c-1.89,1.04-3.77,1.56-5.65,1.56-1.62,0-2.93-.38-3.93-1.15-.54-.42-.98-.94-1.31-1.56-.39-.73-.59-1.52-.59-2.35,0-1.15.36-2.18,1.07-3.08,1.11-1.39,2.74-2.08,4.91-2.08.95,0,2.03.21,3.25.63.48.16.77.25.85.25.1,0,.22-.05.35-.14l.21.11-1.17,2.46-.21-.1v-.05c0-.22-.21-.44-.65-.66-.8-.43-1.65-.64-2.57-.64-1.05,0-1.92.29-2.59.87-.71.61-1.07,1.42-1.07,2.45,0,.96.32,1.73.97,2.31.66.59,1.6.88,2.8.88s2.11-.21,2.89-.64v-1.5Z"/>
    <path class="cls-1" d="M166.25,22.62v3.12c0,.18.04.32.12.41.08.1.23.18.44.24v.25h-3.46v-.25c.2-.05.35-.13.43-.23.08-.1.13-.24.13-.42v-8.01c0-.18-.04-.32-.12-.41-.08-.09-.23-.17-.44-.24v-.24h6.42c.83,0,1.47.04,1.91.13.44.08.83.24,1.17.46.71.46,1.06,1.21,1.06,2.25,0,.79-.22,1.41-.65,1.86-.43.45-1.13.77-2.1.97l1.85,2.58c.34.48.61.8.81.97.2.17.43.28.69.33v.25h-4.12v-.25c.3-.08.46-.21.46-.39,0-.13-.09-.32-.28-.58l-1.96-2.8h-2.34ZM166.25,20.84h3.53c.54,0,.93-.06,1.19-.17.36-.16.54-.47.54-.94,0-.41-.13-.7-.38-.87-.25-.16-.7-.25-1.35-.25h-3.53v2.22Z"/>
    <path class="cls-1" d="M183.5,24.19h-4.5l-.51,1.07c-.12.26-.18.46-.18.6,0,.28.19.46.56.53v.25h-3.6v-.25c.22-.03.39-.1.49-.2.11-.1.23-.29.38-.59l3.57-7.24c.13-.27.2-.51.2-.72,0-.24-.16-.42-.49-.56v-.24h3.8v.24c-.32.13-.48.33-.48.59,0,.19.07.43.22.71l3.71,7.02c.2.38.36.63.48.74.12.11.29.19.53.24v.25h-4v-.25c.38-.06.57-.24.57-.53,0-.18-.07-.4-.22-.67l-.54-1ZM182.8,22.82l-1.6-3.15-1.53,3.15h3.13Z"/>
    <path class="cls-1" d="M194.77,26.64l-3.57-6.44v5.54c0,.18.04.32.12.42.08.1.23.18.44.24v.25h-3.25v-.25c.2-.05.35-.13.43-.23.08-.1.13-.24.13-.42v-8.01c0-.18-.04-.32-.12-.42-.08-.1-.23-.17-.44-.23v-.24h4.14v.24c-.27.09-.41.25-.41.5s.1.53.3.87l2.44,4.43,2.46-4.37c.28-.46.42-.79.42-.98,0-.24-.14-.39-.43-.46v-.24h4.03v.24c-.21.06-.36.14-.44.23-.08.1-.12.23-.12.42v8c0,.18.04.32.12.42.08.1.23.18.44.24v.25h-3.46v-.25c.2-.05.35-.13.43-.23.08-.1.13-.24.13-.42v-5.55l-3.78,6.44Z"/>
    <path class="cls-1" d="M212.58,17.73l-1.18,2.28-.21-.11c0-.19-.06-.34-.18-.45-.33-.3-.82-.54-1.47-.73-.65-.19-1.3-.29-1.97-.29-.57,0-1.07.08-1.5.24-.63.23-.94.56-.94.99,0,.29.15.49.45.61s.89.21,1.76.28l1.38.1c1.21.09,2.12.33,2.75.7.35.21.64.49.87.84.29.44.43.93.43,1.48,0,1-.45,1.78-1.35,2.36-.86.55-2.02.83-3.48.83s-2.9-.31-4.27-.94c-.09-.04-.17-.06-.24-.06-.12,0-.22.07-.32.21l-.22-.09,1.01-2.4.22.09v.07c0,.15.06.28.17.38.29.26.79.48,1.51.67s1.42.28,2.12.28c.62,0,1.17-.08,1.66-.25.61-.2.91-.52.91-.96,0-.36-.21-.6-.63-.74-.28-.09-.78-.17-1.51-.24l-1.37-.11c-.74-.06-1.3-.13-1.7-.23-.39-.09-.73-.23-1.02-.41-.37-.23-.67-.55-.87-.95-.21-.4-.32-.84-.32-1.32,0-1.07.46-1.89,1.38-2.46.84-.51,1.88-.77,3.11-.77.67,0,1.29.07,1.88.22.58.15,1.27.41,2.08.78.24.11.4.17.5.17s.21-.06.36-.19l.21.11Z"/>
  </g>
</svg>