<?xml version="1.0" encoding="UTF-8"?>
<svg id="Layer_2" data-name="Layer 2" xmlns="http://www.w3.org/2000/svg" viewBox="0 0 167.46 42" width="167" height="42">
  <defs>
    <style>
      .cls-1 {
        fill: #fff;
      }

      .cls-1, .cls-2 {
        stroke-width: 0px;
      }

      .cls-2 {
        fill: #185886;
      }
    </style>
  </defs>
  <g>
    <path class="cls-2" d="M21,40.5C10.25,40.5,1.5,31.75,1.5,21S10.25,1.5,21,1.5h125.46c10.75,0,19.5,8.75,19.5,19.5s-8.75,19.5-19.5,19.5H21Z"/>
    <path class="cls-1" d="M146.46,3c9.93,0,18,8.07,18,18s-8.07,18-18,18H21c-9.93,0-18-8.07-18-18S11.07,3,21,3h125.46M146.46,0H21C9.4,0,0,9.4,0,21s9.4,21,21,21h125.46c11.6,0,21-9.4,21-21S158.05,0,146.46,0h0Z"/>
  </g>
  <g>
    <path class="cls-1" d="M32.63,16.01v.66h-12.37v-.66c0-.56.19-1.04.57-1.43.38-.39.84-.59,1.38-.59h8.45c.54,0,1,.2,1.4.59.39.39.58.87.57,1.43ZM32.63,17.4v2.56h-12.37v-2.56h12.37ZM32.63,20.68v2.56h-12.37v-2.56h12.37ZM32.63,23.94v.66c0,.56-.19,1.04-.57,1.45-.38.41-.85.6-1.4.59h-.57l-2.6,2.69v-2.69h-5.28c-.54,0-1-.2-1.38-.59s-.57-.88-.57-1.45v-.66h12.37Z"/>
    <path class="cls-1" d="M41.54,21.77v3.96c0,.17.04.31.13.41.08.1.23.17.43.22v.28h-3.72v-.28c.21-.06.36-.13.44-.23.08-.09.12-.23.12-.4v-10.1c0-.18-.04-.32-.12-.41-.08-.09-.23-.17-.44-.23v-.28h7.46c.91,0,1.63.05,2.16.16.53.1,1,.29,1.39.55.46.3.8.71,1.03,1.23.22.5.32,1.04.32,1.61,0,1.95-1.08,3.08-3.24,3.42l2.32,3.29c.41.58.71.95.9,1.12.19.17.42.26.69.28v.28h-4.31v-.28c.3-.05.44-.15.44-.32,0-.1-.14-.36-.41-.76l-2.42-3.51h-3.18ZM41.54,19.8h4.02c.59,0,1.01-.02,1.26-.05s.47-.11.67-.22c.44-.24.66-.67.66-1.29s-.22-1.05-.66-1.29c-.21-.12-.43-.19-.67-.22s-.66-.05-1.26-.05h-4.02v3.13Z"/>
    <path class="cls-1" d="M60.2,26.64l-4.4-8.24v7.32c0,.18.04.32.12.41.08.09.23.17.44.23v.28h-3.5v-.28c.21-.06.36-.13.44-.23.08-.09.12-.23.12-.41v-10.1c0-.17-.04-.31-.12-.4-.08-.09-.23-.17-.44-.23v-.28h4.6v.28c-.27.07-.41.23-.41.48,0,.12.04.25.12.4l3.25,6.17,3.3-6.06c.15-.27.22-.46.22-.59,0-.24-.15-.37-.44-.4v-.28h4.51v.28c-.21.06-.36.13-.44.23-.08.09-.12.23-.12.4v10.1c0,.18.04.32.12.41.08.09.23.17.44.23v.28h-3.72v-.28c.2-.05.35-.13.43-.22.08-.1.13-.23.13-.42v-7.32l-4.65,8.24Z"/>
    <path class="cls-1" d="M80.78,20.39c1.34.51,2.01,1.45,2.01,2.81,0,1.09-.39,1.94-1.17,2.56-.4.31-.86.53-1.38.67s-1.17.21-1.94.21h-8.15v-.28c.21-.06.36-.13.44-.23.08-.09.12-.23.12-.41v-10.09c0-.18-.04-.32-.12-.41-.08-.09-.23-.17-.44-.23v-.28h8.08c.77,0,1.4.06,1.87.17.47.12.89.31,1.24.59.71.55,1.06,1.35,1.06,2.4,0,1.17-.54,2-1.62,2.52ZM73.31,19.45h4.57c.69,0,1.18-.1,1.45-.31.31-.23.46-.59.46-1.08s-.15-.86-.44-1.07-.78-.32-1.48-.32h-4.57v2.78ZM73.31,24.67h4.42c.82,0,1.41-.11,1.77-.34.41-.26.62-.69.62-1.29s-.21-1.02-.62-1.28c-.36-.23-.95-.34-1.77-.34h-4.42v3.25Z"/>
    <path class="cls-1" d="M92.22,21.77v3.96c0,.17.04.31.13.41.08.1.23.17.43.22v.28h-3.72v-.28c.21-.06.36-.13.44-.23.08-.09.12-.23.12-.4v-10.1c0-.18-.04-.32-.12-.41-.08-.09-.23-.17-.44-.23v-.28h7.46c.91,0,1.63.05,2.16.16.53.1,1,.29,1.39.55.46.3.8.71,1.03,1.23.22.5.32,1.04.32,1.61,0,1.95-1.08,3.08-3.24,3.42l2.32,3.29c.41.58.71.95.9,1.12.19.17.42.26.69.28v.28h-4.31v-.28c.3-.05.44-.15.44-.32,0-.1-.14-.36-.41-.76l-2.42-3.51h-3.18ZM92.22,19.8h4.02c.59,0,1.01-.02,1.26-.05s.47-.11.67-.22c.44-.24.66-.67.66-1.29s-.22-1.05-.66-1.29c-.21-.12-.43-.19-.67-.22s-.66-.05-1.26-.05h-4.02v3.13Z"/>
    <path class="cls-1" d="M113.39,17.74v5.18c0,1.18-.23,2.05-.7,2.6-.75.88-2.17,1.32-4.25,1.32-1.39,0-2.52-.21-3.37-.64-.62-.31-1.04-.75-1.27-1.32-.21-.52-.31-1.18-.31-1.97v-5.18c0-.18-.04-.32-.12-.41-.08-.09-.23-.17-.44-.24v-.24h3.46v.24c-.21.06-.36.14-.44.23-.08.1-.12.24-.12.42v4.71c0,.55.05.97.14,1.26.1.29.26.53.5.72.48.38,1.17.57,2.07.57s1.59-.19,2.07-.57c.23-.19.4-.43.49-.72.09-.29.14-.71.14-1.26v-4.71c0-.18-.04-.32-.12-.41-.08-.09-.23-.17-.44-.24v-.24h3.26v.24c-.21.06-.36.14-.44.23-.08.1-.12.24-.12.42Z"/>
    <path class="cls-1" d="M118.38,24.86h5.48c.19,0,.33-.04.42-.12.09-.08.17-.23.24-.44h.24v2.89h-.24c-.06-.21-.14-.36-.23-.44-.1-.08-.24-.12-.42-.12h-8.38v-.25c.2-.05.35-.13.43-.23.08-.1.13-.24.13-.42v-8.01c0-.18-.04-.32-.12-.41-.08-.09-.23-.17-.44-.24v-.24h3.46v.24c-.21.06-.36.14-.44.23-.08.1-.12.24-.12.42v7.12Z"/>
    <path class="cls-1" d="M128.66,22.48v2.39h6.21c.18,0,.32-.04.42-.12.1-.08.17-.23.23-.44h.25v2.89h-.25c-.05-.2-.13-.35-.23-.43-.1-.08-.24-.13-.42-.13h-9.12v-.25c.2-.05.35-.13.43-.23.08-.1.13-.24.13-.42v-8.01c0-.18-.04-.32-.12-.41-.08-.09-.23-.17-.44-.24v-.24h8.85c.19,0,.33-.04.42-.12.1-.08.17-.23.23-.44h.24v2.89h-.24c-.06-.21-.14-.36-.23-.44s-.24-.12-.42-.12h-5.94v2.15h3.69c.18,0,.32-.04.42-.12s.18-.23.24-.44h.24v2.82h-.24c-.06-.21-.14-.35-.23-.43-.1-.08-.24-.12-.42-.12h-3.69Z"/>
    <path class="cls-1" d="M146.66,17.73l-1.18,2.28-.21-.11c0-.19-.06-.34-.18-.45-.33-.3-.82-.54-1.47-.73s-1.3-.29-1.97-.29c-.56,0-1.07.08-1.5.24-.63.23-.94.56-.94.99,0,.29.15.49.45.61.3.12.89.21,1.76.28l1.38.1c1.21.09,2.12.33,2.75.7.35.21.64.49.87.84.29.44.43.93.43,1.48,0,1-.45,1.78-1.35,2.36-.86.55-2.02.83-3.48.83s-2.9-.31-4.27-.94c-.09-.04-.17-.06-.24-.06-.12,0-.22.07-.32.21l-.22-.09,1.01-2.4.22.09v.07c0,.15.06.28.17.38.29.26.8.48,1.51.67.72.19,1.42.28,2.12.28.62,0,1.17-.08,1.66-.25.61-.2.91-.52.91-.96,0-.36-.21-.6-.63-.74-.28-.09-.78-.17-1.51-.24l-1.37-.11c-.74-.06-1.31-.13-1.7-.23-.39-.09-.73-.23-1.02-.41-.37-.23-.66-.55-.87-.95-.21-.4-.31-.84-.31-1.32,0-1.07.46-1.89,1.38-2.46.84-.51,1.88-.77,3.11-.77.67,0,1.29.07,1.88.22.58.15,1.27.41,2.08.78.24.11.4.17.5.17s.21-.06.36-.19l.21.11Z"/>
  </g>
</svg>