<?xml version="1.0" encoding="UTF-8"?>
<svg id="Layer_2" data-name="Layer 2" xmlns="http://www.w3.org/2000/svg" viewBox="0 0 128.26 42" width="128" height="42">
  <defs>
    <style>
      .cls-1 {
        fill: #fff;
      }

      .cls-1, .cls-2 {
        stroke-width: 0px;
      }

      .cls-2 {
        fill: #bb1b1b;
      }
    </style>
  </defs>
  <g>
    <path class="cls-2" d="M21,40.5C10.25,40.5,1.5,31.75,1.5,21S10.25,1.5,21,1.5h86.26c10.75,0,19.5,8.75,19.5,19.5s-8.75,19.5-19.5,19.5H21Z"/>
    <path class="cls-1" d="M107.26,3c9.93,0,18,8.07,18,18s-8.07,18-18,18H21c-9.93,0-18-8.07-18-18S11.07,3,21,3h86.26M107.26,0H21C9.4,0,0,9.4,0,21s9.4,21,21,21h86.26c11.6,0,21-9.4,21-21S118.85,0,107.26,0h0Z"/>
  </g>
  <g>
    <path class="cls-1" d="M36.96,26.1c.01.18-.04.33-.17.47-.13.13-.28.2-.47.2h-1.43c-.17,0-.32-.06-.45-.18s-.19-.26-.18-.41c-.08-1.43-.42-2.79-1.02-4.08s-1.37-2.41-2.31-3.37c-.94-.96-2.06-1.72-3.37-2.31-1.3-.58-2.66-.92-4.06-1.02-.17-.01-.31-.08-.43-.2-.12-.12-.18-.26-.18-.43v-1.43c0-.19.06-.35.19-.47s.28-.18.46-.18h.02c1.75.1,3.43.5,5.01,1.2,1.59.7,3,1.68,4.25,2.93s2.23,2.67,2.94,4.27c.72,1.6,1.12,3.27,1.2,5.01ZM31.84,26.08c.01.18-.04.34-.16.47-.12.14-.28.21-.48.21h-1.34c-.17,0-.31-.05-.43-.16s-.19-.24-.2-.41c-.14-1.53-.76-2.83-1.84-3.92-1.09-1.08-2.39-1.7-3.92-1.84-.17-.01-.3-.08-.41-.2s-.16-.26-.16-.43v-1.34c0-.19.07-.35.21-.47.11-.12.25-.18.43-.18h.05c1.06.08,2.08.35,3.04.81.97.45,1.83,1.06,2.59,1.81.76.75,1.36,1.62,1.82,2.6.45.98.72,2,.81,3.06ZM26.72,24.85c0,.54-.19.99-.55,1.36-.37.37-.82.55-1.36.55s-.99-.18-1.36-.55c-.37-.37-.55-.82-.55-1.36s.19-.99.55-1.36c.37-.37.82-.55,1.36-.55s.99.18,1.36.55c.37.37.55.82.55,1.36Z"/>
    <path class="cls-1" d="M45.66,21.42v4.3c0,.18.04.32.13.42.08.1.23.17.43.22v.28h-3.72v-.28c.21-.06.36-.13.44-.23.08-.09.12-.23.12-.41v-10.09c0-.18-.04-.32-.12-.41-.08-.09-.23-.17-.44-.23v-.28h10.56c.17,0,.31-.04.4-.12.09-.08.17-.23.23-.44h.28v3.08h-.28c-.06-.21-.13-.36-.23-.44-.09-.08-.23-.12-.4-.12h-7.39v2.85h4.83c.18,0,.32-.04.41-.12s.17-.23.23-.43h.28v3.01h-.28c-.06-.21-.13-.35-.23-.43s-.23-.12-.41-.12h-4.83Z"/>
    <path class="cls-1" d="M59.91,16.64c1.56,0,2.85.4,3.89,1.19,1.24.96,1.86,2.29,1.86,3.99,0,1.6-.62,2.88-1.86,3.84-1.03.79-2.32,1.19-3.88,1.19s-2.85-.4-3.88-1.19c-1.25-.96-1.87-2.26-1.87-3.92s.62-2.98,1.87-3.92c1.03-.78,2.32-1.17,3.86-1.19ZM59.92,18.49c-1.01,0-1.83.32-2.47.97-.59.61-.88,1.37-.88,2.28s.29,1.67.88,2.27c.64.65,1.46.98,2.48.98s1.83-.33,2.47-.98c.59-.6.88-1.34.88-2.23,0-.96-.29-1.74-.88-2.33-.64-.64-1.47-.96-2.48-.97Z"/>
    <path class="cls-1" d="M70.06,22.62v3.12c0,.18.04.32.12.41s.23.18.44.24v.25h-3.46v-.25c.2-.05.35-.13.43-.23.08-.1.13-.24.13-.42v-8.01c0-.18-.04-.32-.12-.41-.08-.09-.23-.17-.44-.24v-.24h6.42c.83,0,1.47.04,1.91.13.44.08.83.24,1.17.46.7.46,1.06,1.21,1.06,2.25,0,.79-.22,1.41-.65,1.86-.43.45-1.13.77-2.1.97l1.85,2.58c.34.48.61.8.81.97.2.17.43.28.69.33v.25h-4.12v-.25c.3-.08.46-.21.46-.39,0-.13-.09-.32-.28-.58l-1.96-2.8h-2.34ZM70.06,20.84h3.53c.54,0,.93-.06,1.19-.17.36-.16.54-.47.54-.94,0-.41-.13-.7-.38-.87s-.7-.25-1.35-.25h-3.53v2.22Z"/>
    <path class="cls-1" d="M89.47,17.74v5.18c0,1.18-.23,2.05-.7,2.6-.75.88-2.17,1.32-4.25,1.32-1.39,0-2.52-.21-3.37-.64-.62-.31-1.04-.75-1.27-1.32-.21-.52-.31-1.18-.31-1.97v-5.18c0-.18-.04-.32-.12-.41-.08-.09-.23-.17-.44-.24v-.24h3.46v.24c-.21.06-.36.14-.44.23-.08.1-.12.24-.12.42v4.71c0,.55.05.97.14,1.26.1.29.26.53.5.72.48.38,1.17.57,2.07.57s1.59-.19,2.07-.57c.23-.19.4-.43.49-.72.09-.29.14-.71.14-1.26v-4.71c0-.18-.04-.32-.12-.41-.08-.09-.23-.17-.44-.24v-.24h3.26v.24c-.21.06-.36.14-.44.23-.08.1-.12.24-.12.42Z"/>
    <path class="cls-1" d="M97.83,26.64l-3.57-6.44v5.54c0,.18.04.32.12.42.08.1.23.18.44.24v.25h-3.25v-.25c.2-.05.35-.13.43-.23.08-.1.13-.24.13-.42v-8.01c0-.18-.04-.32-.12-.42-.08-.1-.23-.17-.44-.23v-.24h4.14v.24c-.27.09-.41.25-.41.5s.1.53.3.87l2.44,4.43,2.46-4.37c.28-.46.42-.79.42-.98,0-.24-.14-.39-.43-.46v-.24h4.03v.24c-.21.06-.36.14-.44.23-.08.1-.12.23-.12.42v8c0,.18.04.32.12.42s.23.18.44.24v.25h-3.46v-.25c.2-.05.35-.13.43-.23.08-.1.13-.24.13-.42v-5.55l-3.78,6.44Z"/>
  </g>
</svg>