<?xml version="1.0" encoding="UTF-8"?>
<svg id="Layer_2" data-name="Layer 2" xmlns="http://www.w3.org/2000/svg" viewBox="0 0 184.42 42" width="184" height="42">
  <defs>
    <style>
      .cls-1 {
        fill: #fff;
      }

      .cls-1, .cls-2 {
        stroke-width: 0px;
      }

      .cls-2 {
        fill: #bb1b1b;
      }
    </style>
  </defs>
  <g>
    <path class="cls-2" d="M21,40.5C10.25,40.5,1.5,31.75,1.5,21S10.25,1.5,21,1.5h142.42c10.75,0,19.5,8.75,19.5,19.5s-8.75,19.5-19.5,19.5H21Z"/>
    <path class="cls-1" d="M163.42,3c9.93,0,18,8.07,18,18s-8.07,18-18,18H21c-9.93,0-18-8.07-18-18S11.07,3,21,3h142.42M163.42,0H21C9.4,0,0,9.4,0,21s9.4,21,21,21h142.42c11.6,0,21-9.4,21-21S175.02,0,163.42,0h0Z"/>
  </g>
  <g>
    <path class="cls-1" d="M33.46,17.88c0,.14-.09.3-.27.48l-3.62,3.53.86,5v.21c0,.13-.04.24-.11.34-.07.1-.17.15-.3.15-.12,0-.26-.03-.4-.12l-4.49-2.36-4.48,2.36c-.14.08-.28.12-.41.12s-.23-.05-.3-.16-.11-.22-.11-.34c0-.05,0-.12.02-.21l.86-5-3.63-3.53c-.17-.18-.25-.34-.25-.48,0-.25.19-.41.55-.46l5.01-.72,2.26-4.55c.13-.27.29-.41.48-.41s.36.14.5.41l2.24,4.55,5.01.72c.38.06.57.21.57.46Z"/>
    <path class="cls-1" d="M49.6,22.35h-2.95c-.18,0-.32.04-.41.12-.09.08-.16.23-.22.44h-.28v-2.78h.28c.06.22.13.36.22.44.09.08.23.12.41.12h5.66v.28c-.21.06-.35.13-.44.23-.08.09-.12.23-.12.41v2.45c0,.18.04.32.12.41.08.09.23.17.44.23v.22c-2.27,1.29-4.46,1.94-6.59,1.94-1.93,0-3.5-.46-4.72-1.37-1.53-1.15-2.3-2.76-2.3-4.81,0-1.91.68-3.43,2.05-4.56,1.29-1.07,3.01-1.61,5.16-1.61.68,0,1.32.06,1.93.19.6.13,1.29.34,2.06.63.4.16.68.24.85.24.12,0,.27-.07.43-.2l.25.13-1.4,2.86-.25-.13c0-.19-.03-.33-.08-.41-.05-.08-.15-.19-.31-.31-.36-.27-.88-.49-1.56-.68s-1.34-.28-1.95-.28c-1.25,0-2.28.35-3.1,1.05-.93.79-1.39,1.84-1.39,3.13s.45,2.27,1.35,3.05c.83.71,1.92,1.07,3.27,1.07.66,0,1.31-.08,1.95-.23s1.19-.36,1.66-.62v-1.63Z"/>
    <path class="cls-1" d="M57.03,22.48v2.39h6.21c.18,0,.32-.04.42-.12.1-.08.17-.23.23-.44h.25v2.89h-.25c-.05-.2-.13-.35-.23-.43-.1-.08-.24-.13-.42-.13h-9.12v-.25c.2-.05.35-.13.43-.23.08-.1.13-.24.13-.42v-8.01c0-.18-.04-.32-.12-.41-.08-.09-.23-.17-.44-.24v-.24h8.85c.19,0,.33-.04.42-.12.1-.08.17-.23.23-.44h.24v2.89h-.24c-.06-.21-.14-.36-.23-.44s-.24-.12-.42-.12h-5.94v2.15h3.69c.18,0,.32-.04.42-.12s.18-.23.24-.44h.24v2.82h-.24c-.06-.21-.14-.35-.23-.43-.1-.08-.24-.12-.42-.12h-3.69Z"/>
    <path class="cls-1" d="M71.12,18.62v7.12c0,.18.04.32.12.42.08.1.23.18.44.24v.25h-3.46v-.25c.2-.05.35-.13.43-.23.08-.1.13-.24.13-.42v-7.12h-2.88c-.19,0-.33.04-.42.12s-.17.23-.23.43h-.24v-2.89h.24c.05.2.13.35.22.43.1.08.24.13.42.13h8.12c.19,0,.33-.04.42-.12.1-.08.17-.23.23-.44h.24v2.89h-.24c-.06-.21-.14-.35-.23-.43s-.24-.12-.42-.12h-2.88Z"/>
    <path class="cls-1" d="M81.15,25.72v-10.1c0-.17-.04-.31-.12-.4-.08-.09-.23-.17-.44-.23v-.28h3.72v.28c-.21.05-.36.13-.44.22-.08.1-.12.23-.12.41v10.1c0,.18.04.32.13.42.08.1.23.17.43.22v.28h-3.72v-.28c.21-.06.36-.13.44-.23.08-.09.12-.23.12-.41Z"/>
    <path class="cls-1" d="M88.93,20.19v5.55c0,.18.04.32.13.42s.23.18.43.24v.25h-3.25v-.25c.2-.05.35-.13.43-.23.08-.1.13-.24.13-.42v-8.01c0-.18-.04-.32-.12-.41-.08-.09-.23-.17-.44-.24v-.24h3.76v.24c-.26.06-.38.18-.38.34,0,.14.09.3.28.49l5.25,5.21v-5.39c0-.18-.04-.32-.12-.42-.08-.1-.23-.17-.44-.23v-.24h3.25v.24c-.21.06-.36.14-.44.23-.08.1-.12.23-.12.42v8c0,.18.04.32.12.42.08.1.23.18.44.24v.25h-3.51v-.25c.26-.05.38-.16.38-.32,0-.08-.04-.17-.1-.25-.07-.09-.23-.26-.48-.51l-5.2-5.12Z"/>
    <path class="cls-1" d="M104.79,23.54l2.38-5.18c.14-.3.21-.52.21-.66,0-.29-.19-.49-.57-.6v-.24h3.78v.24c-.23.08-.4.17-.51.28-.1.11-.24.34-.4.68l-3.43,7.21c-.12.26-.18.45-.18.58,0,.29.19.48.58.55v.24h-3.84v-.24c.38-.08.57-.26.57-.55,0-.13-.06-.33-.18-.58l-3.43-7.21c-.16-.35-.3-.58-.4-.69-.1-.11-.27-.2-.51-.28v-.24h3.92v.24c-.37.12-.56.32-.56.6,0,.13.07.35.22.66l2.36,5.18Z"/>
    <path class="cls-1" d="M116.28,16.64c1.56,0,2.85.4,3.89,1.19,1.24.96,1.86,2.29,1.86,3.99,0,1.6-.62,2.88-1.86,3.84-1.03.79-2.32,1.19-3.88,1.19s-2.85-.4-3.88-1.19c-1.25-.96-1.87-2.26-1.87-3.92s.62-2.98,1.87-3.92c1.03-.78,2.32-1.17,3.86-1.19ZM116.29,18.49c-1.01,0-1.83.32-2.47.97-.59.61-.88,1.37-.88,2.28s.29,1.67.88,2.27c.64.65,1.46.98,2.48.98s1.83-.33,2.47-.98c.59-.6.88-1.34.88-2.23,0-.96-.29-1.74-.88-2.33-.64-.64-1.47-.96-2.48-.97Z"/>
    <path class="cls-1" d="M126.43,24.86h5.48c.19,0,.33-.04.42-.12.09-.08.17-.23.24-.44h.24v2.89h-.24c-.06-.21-.14-.36-.23-.44-.1-.08-.24-.12-.42-.12h-8.38v-.25c.2-.05.35-.13.43-.23.08-.1.13-.24.13-.42v-8.01c0-.18-.04-.32-.12-.41-.08-.09-.23-.17-.44-.24v-.24h3.46v.24c-.21.06-.36.14-.44.23-.08.1-.12.24-.12.42v7.12Z"/>
    <path class="cls-1" d="M137.57,23.54l2.38-5.18c.14-.3.21-.52.21-.66,0-.29-.19-.49-.57-.6v-.24h3.78v.24c-.23.08-.4.17-.51.28-.1.11-.24.34-.4.68l-3.43,7.21c-.12.26-.18.45-.18.58,0,.29.19.48.58.55v.24h-3.84v-.24c.38-.08.57-.26.57-.55,0-.13-.06-.33-.18-.58l-3.43-7.21c-.16-.35-.3-.58-.4-.69-.1-.11-.27-.2-.51-.28v-.24h3.92v.24c-.37.12-.56.32-.56.6,0,.13.07.35.22.66l2.36,5.18Z"/>
    <path class="cls-1" d="M147.28,22.48v2.39h6.21c.18,0,.32-.04.42-.12.1-.08.17-.23.23-.44h.25v2.89h-.25c-.05-.2-.13-.35-.23-.43-.1-.08-.24-.13-.42-.13h-9.12v-.25c.2-.05.35-.13.43-.23.08-.1.13-.24.13-.42v-8.01c0-.18-.04-.32-.12-.41-.08-.09-.23-.17-.44-.24v-.24h8.85c.19,0,.33-.04.42-.12.1-.08.17-.23.23-.44h.24v2.89h-.24c-.06-.21-.14-.36-.23-.44s-.24-.12-.42-.12h-5.94v2.15h3.69c.18,0,.32-.04.42-.12s.18-.23.24-.44h.24v2.82h-.24c-.06-.21-.14-.35-.23-.43-.1-.08-.24-.12-.42-.12h-3.69Z"/>
    <path class="cls-1" d="M156.42,25.75v-8.01c0-.18-.04-.32-.12-.41-.08-.09-.23-.17-.44-.24v-.24h5.74c1.19,0,2.14.15,2.82.45.97.42,1.66,1.11,2.09,2.08.3.68.45,1.47.45,2.37,0,1.67-.5,2.94-1.49,3.8-.45.38-.98.66-1.59.83s-1.37.26-2.28.26h-5.74v-.25c.2-.05.35-.13.43-.23.08-.1.13-.24.13-.42ZM158.76,24.86h2.5c1.15,0,1.98-.26,2.5-.79.54-.55.81-1.33.81-2.33s-.27-1.79-.81-2.33c-.27-.27-.6-.47-1-.6-.4-.12-.9-.19-1.5-.19h-2.5v6.24Z"/>
  </g>
</svg>